<mxfile host="Electron" modified="2024-05-22T09:23:59.984Z" agent="Mozilla/5.0 (Windows NT 10.0; Win64; x64) AppleWebKit/537.36 (KHTML, like Gecko) draw.io/24.4.0 Chrome/120.0.6099.109 Electron/28.1.0 Safari/537.36" etag="Rz82MtnMc5898aK4hyAH" version="24.4.0" type="device">
  <diagram name="Page-1" id="E3I3ojluWwszAOQEUTey">
    <mxGraphModel dx="2849" dy="697" grid="1" gridSize="10" guides="1" tooltips="1" connect="1" arrows="1" fold="1" page="1" pageScale="1" pageWidth="827" pageHeight="1169" math="1" shadow="0">
      <root>
        <mxCell id="0" />
        <mxCell id="1" parent="0" />
        <mxCell id="9nqqFqsoLH2m6re_zZ1c-1" value="&lt;div&gt;&lt;font face=&quot;Roboto Mono&quot;&gt;[[0, 1, 1, 0, 0, 0, 0, 0, 0, 0],&lt;/font&gt;&lt;/div&gt;&lt;div&gt;&lt;font face=&quot;Roboto Mono&quot;&gt;&amp;nbsp;[1, 0, 1, 1, 0, 0, 0, 0, 0, 0],&lt;/font&gt;&lt;/div&gt;&lt;div&gt;&lt;font face=&quot;Roboto Mono&quot;&gt;&amp;nbsp;[1, 1, 0, 1, 0, 0, 0, 0, 0, 0],&lt;/font&gt;&lt;/div&gt;&lt;div&gt;&lt;font face=&quot;Roboto Mono&quot;&gt;&amp;nbsp;[0, 1, 1, 0, 1, 0, 0, 0, 0, 0],&lt;/font&gt;&lt;/div&gt;&lt;div&gt;&lt;font face=&quot;Roboto Mono&quot;&gt;&amp;nbsp;[0, 0, 0, 1, 0, 1, 0, 0, 0, 0],&lt;/font&gt;&lt;/div&gt;&lt;div&gt;&lt;font face=&quot;Roboto Mono&quot;&gt;&amp;nbsp;[0, 0, 0, 0, 1, 0, 1, 1, 0, 0],&lt;/font&gt;&lt;/div&gt;&lt;div&gt;&lt;font face=&quot;Roboto Mono&quot;&gt;&amp;nbsp;[0, 0, 0, 0, 0, 1, 0, 0, 1, 0],&lt;/font&gt;&lt;/div&gt;&lt;div&gt;&lt;font face=&quot;Roboto Mono&quot;&gt;&amp;nbsp;[0, 0, 0, 0, 0, 1, 0, 0, 1, 0],&lt;/font&gt;&lt;/div&gt;&lt;div&gt;&lt;font face=&quot;Roboto Mono&quot;&gt;&amp;nbsp;[0, 0, 0, 0, 0, 0, 1, 1, 0, 1],&lt;/font&gt;&lt;/div&gt;&lt;div&gt;&lt;font face=&quot;Roboto Mono&quot;&gt;&amp;nbsp;[0, 0, 0, 0, 0, 0, 0, 0, 1, 0]]&lt;/font&gt;&lt;/div&gt;" style="text;html=1;align=left;verticalAlign=top;whiteSpace=wrap;rounded=0;spacingLeft=6;spacing=0;" parent="1" vertex="1">
          <mxGeometry x="80" y="240" width="250" height="170" as="geometry" />
        </mxCell>
        <mxCell id="9nqqFqsoLH2m6re_zZ1c-2" value="" style="shape=image;verticalLabelPosition=bottom;labelBackgroundColor=default;verticalAlign=top;aspect=fixed;imageAspect=0;image=data:image/png,iVBORw0KGgoAAAANSUhEUgAAAxoAAAEdCAIAAAAEuIaUAAAAAXNSR0IArs4c6QAAIABJREFUeAHtnQ90E9ed7+8MSBZKQrADTfibYMBOWqc1RfwpNC2k5U9CCyWYQhJclNB1gh2gKXKXJIJd0s2fdjddSLIvdEG227qmIHeX4LaQQLrYoZaRDJLbhibagotfS9vXV3DwOco5ds7RS95sJtMZSdbM3Jm5o/lyOIeZq/v3c3/z4+ORPCJp/AEBEAABEAABEAABENBBgOhoi6YgAAIgAAIgAAIgAAJp6BSCAARAAARAAARAAAR0EYBO6cKHxiAAAiAAAiAAAiAAnUIMgAAIgAAIgAAIgIAuAtApXfjQGARAAARAAARAAASgU4gBEAABEAABEAABENBFADqlCx8agwAIgAAIgAAIgAB0CjEAAiAAAiAAAiAAAroIQKd04UNjEAABEAABEAABEIBOIQZAAARAAARAAARAQBcB6JQufGgMAiAAAiAAAiAAAtApxAAIgAAIgAAIgAAI6CIAndKFD41BAARAAARAAARAADqFGAABEAABEAABEAABXQSgU7rwoTEIgAAIgAAIgAAIQKcQAyAAAiAAAiAAAiCgiwB0Shc+NAYBEAABEAABEAAB6BRiAARAAARAAARAAAR0EYBO6cKHxiAAAiAAAiAAAiAAnUIMgAAIgAAIgAAIgIAuAtApXfjQGARAAARAAARAAASgU4gBEAABEAABEAABENBFADqlC5/tGg8ODiaTyXg8HolE2tvbI5FIPB5PJpODg4O2WwsmDAIgYBUBZBKryGNcZglAp5jdGjoTGxwcTCQSoVCotrZ2zpy5Ho+HZPrj8XjmzJlbW1sbCoUSiQTsig599AIChUIAmaRQdhLrMIoAdMoospb3G41G/X6/1+slhHAcVzqjfPmqdYGdz+5taWtuaw8fP324PR4+frq5rX1vS1tg57PLV60rnV7GcRwhxOv1+v3+WCxm+SowARAAAWsJIJNYyx+j24UAdMouO5XvPFOpVENDwyyfjxAyYdKU2sCOUPjYqXOX4n0D+fw9de5SKHysNrBjwqQphBCfb3ZjY2Mqlcp3eNQDARAoCALIJAWxjViEeQSgU+axNnqkVCr1xBNPFBcXcxy3YNGSPQ2Hunv781GojHW6e/v3NBxasGgJx3HFxcXBYBBSZfQOon8QYIEAMgkLu4A52I4AdMp2W5Z5wp2dnWXl5e6iouqazUc6ejIakrbCIx091TWb3UVFZeXlkUgk8/AoBQEQKAgCyCQFsY1YhAUEoFMWQKc7ZCqVCgQCPM9XVPp+/FpMmzMN26r1RKyi0sfzfCAQwG0qujuI3kCABQLIJCzsAuZgXwLQKfvu3fszj0Qiwk2prY89GbtwZVgr0lMhduHKlu273G43blPZO2gwexBQEEAmUSBBAQioIwCdUseLqdrhcNjlchl6U0qpX8JtKpfLFQ6HmaKByYAACGgjgEyijRtagYCUAHRKSsNOx/v37+d5ftnKNdHzl5XSY2hJ9PzlpSuqeJ4PhUJ2Qoa5ggAIKAggkyiQoAAEtBCATmmhZnmb/fv3E0Kq1m/U87t7epSru7d/9f0PEkJgVJYHAyYAApoJIJNoRoeGICAjAJ2SAbHBaTgc5nm+av3Gsxev6lEinW3PXrxatX4jz/N4188GQYMpgoCCADKJAgkKQEA7AeiUdnaWtIxEIi6Xa9nKNWd+97ZOH9LfvLu3f+mKKpfLhQcoWBIMGBQENBNAJtGMDg1BICMB6FRGLIwWplKpsvLyikqf+Z+XyuZe0fOXKyp9ZeXleHoCo0GDaYGAggAyiQIJCkBALwHolF6CZrYPBALuoiLjHi6VzZlyl7eeiLnd7vr6ejNRYCwQAAHNBJBJNKNDQxDIRgA6lY0Mc+WdnZ0cx2197MnccmPJq1u27+J5Hm/5MRc0mBAIKAggkyiQoAAEKBCATlGAaEIXws3522f6rPpVvtyWFrtwBW/5mRAGGAIEdBJAJtEJEM1BIBsB6FQ2MmyVB4NBBt/mkzqW8JZfMBhkCxxmAwIgICGATCKBgUMQoEkAOkWTpkF9pVKp4uLi6prNUn1h8Li6ZnNJSQk+k25QGKBbENBJAJlEJ0A0B4EcBKBTOeCw8lJjYyPHcUc6ehhUKOmUjnT0EEKamppYAYd5gAAISAggk0hg4BAEKBOATlEGakR3s3y+BYuWSMWF2eMFCxf7fLONgIA+QQAEdBJAJtEJEM1BIAcB6FQOOEy8FI1GCSF7Gg4xq1DSie0OHSSERKNRJthhEiAAAh8QQCb5gAT+BQFDCECnDMFKsVO/3z9h0hQ2f6FPKlLCcXdv//iJk/1+P0UC6AoEQEA/AWQS/QzRAwjkIACdygHH+pcGBwe9Xm9tYIdSXNSWRH/71//VfPjvtv79vDvunDq97PoxxSNdrjHFJTPnzP/a4998/Y0/qO0wW/1N24Jer3doaMh6fJgBCIDA/ydAMZOIF/6L3/+Pu1etnTj5Fs8or2eUd/ykKXPmf/ahrz32WvyCWEfPATIJgtdeBKBTTO9XIpEghITCx/RkJaFtc1s7yf7nIzdNOPhKRP8o8b6B/eGjhJCenh6myWJyIOAkAhQzSbxvoOPXv5+/cHG2dNLQ+goyiZOCC2v9HwLQKaZDIRQKcRz3i9/8UX96EnVqpMt1+0zfHXcunTRlqjQhTpx8S1fyL/oHOnXuEsdxDQ0NTJPF5EDASQQoZpLob//6sU/MElOHy+2ecVvFHXcuraj0XTd6DCGElk4hkzgpQgthrdAppnextra2dHqZfsWJ9w00t7WPu3F8/T9+u+PXvxc6PHvx6qZtQTEtEkK+s/8AlbGmTptRV1fHNFlMDgScRIBiJvnqlm+ISWPO/M/+5NSvxKQRu3DlpR8eeSX6llii8wCZxElBavu1QqeY3sI5c+YuX7VOZ0oSmr/+xh863/yTsqsbx08Uk+OW7buUFTSU3L1q7dy585gmi8mBgJMI0MoknW/+6drR1wsZ44ZxHzn5y4sa8kP+TZBJnBSktl8rdIrdLRwcHCwqKgrsfDb/7KOh5kc//klRpx5/areGHpRNtu18xuPx4NPo7MYWZuYkAhQzyfNNrWK6uOde/w+O/NfGRwJ3fenLK9dWb9v5zLHTbyqzgZ4SZBInxant1wqdYncLk8kkIWRvS5uefJS77bHTb450uYT8yHHcf/7Xmdz183x1b0sbISSZTLILFzMDAccQoJhJHv76E6JOfeSmCeKxcDDS5Xo0+FSeWSKfasgkjgnSQlgodIrdXYzH44SQ5rb2fPKOhjpdyb/MmvdpMSHevWqthk4yNmluO0kISSQS7MLFzEDAMQQoZpK1G2rEjJHtYMezz2dMCxoKkUkcE6SFsFDoFLu7GIlECCHh46c1pKFhm3T8+vez539GTIgfnzWn860/D9sqzwqHXu0ihHR1dbELFzMDAccQoJhJ7rnXLyYNQsiSL9zzSjT580Tv/RvrxPIxJTfELlzJM1fkroZM4pggLYSFQqfY3cX29vefFHW4PZ4742h49djpN6eXf1RMf7Pnf+bUuUsa+snW5PDJs4SQ9vZ2duFiZiDgGAIUM0l1zWYxb/A83/7LPiEJxC5cKb5hrPjSD3/SkS05qCpHJnFMkBbCQqFT7O4ixZ8ppSksfPy09Lf57vrSl6O//au0gv5j/EzJblRhZs4jQDGTPP7UbtGZxo67UZorbp/pE196qfll6Uuaj5FJnBetNl4xdIrdzaP4iQcxne07+DPhUXtC4tv4SODsxaviq7QO8IkHdqMKM3MeAYqZJHz8tOhMRUWeM797W0waU6ZOE1/60bFOsVzPATKJ86LVxiuGTrG7eRR/H0fIaM+82Ohyu4WUN3LkyJ3fflFPpsvRFr+Pw25UYWbOI0A3k0gfif4P//xvQh4QLnkht5SMHSfVrByJYtiXkEmcF602XjF0it3No/i0mHjfQMtPX+c4TvzxccLkmz9310rZ32/92/eGTXD5VMDTYtiNKszMeQToZpKm/zwxYsQIIZO893SVT8ya6/vUHeLzVgghtB5fF+8bQCZxXrTaeMXQKaY3j9azjON9A/sO/kx0qWwHD33tsXxsadg6eJYx01GFyTmPAMVMEu8beObFRndRkTKNcBy38ZHAsPkh/wrIJM4LVRuvGDrF9OZR/KYtM3UK37TFdFRhcs4jQDGTCDL0k1O/Wut/6JZpMzyjvEVFnklTpn6x6r4fHPmv/FUpn5rIJM4LVRuvGDrF9OYJ3wNP9ykG+WQxPXXwPfBMhxQm50gCyCSO3HYs2lQC0ClTcasdLJFIEEJC4WN6/MbktvvDRwkhPT09aheL+iAAAgYRQCYxCCy6BQGRAHRKRMHiweDgoNfrrQ3sMFmJ9Ay3aVvQ6/Xi+49ZjCfMyakEkEmcuvNYt3kEoFPmsdY2kt/vnzBpSndvvx7FMa1td2//+ImT/X6/tsWiFQiAgEEEkEkMAotuQUAgAJ1iPRKi0SghZE/DIdOUSM9Au0MHCSGxWIx1rJgfCDiMADKJwzYcyzWbAHTKbOIaxpvl8y1YtESP5ZjWdsHCxT7fbA1rRBMQAAGjCSCTGE0Y/TuZAHTKBrvf2NjIcdyRjh7TrEjbQEc6egghTU1NNmCKKYKA8wggkzhvz7Fi8whAp8xjrXmkVCpVXFxcXbNZm+WY1qq6ZnNJSUkqldK8UjQEARAwjgAyiXFs0TMIQKfsEQPBYNBdVPTj12KmuZHagVpPxNxudzAYtAdQzBIEHEkAmcSR245Fm0EAOmUGZf1jpFKpsvLyikpf7MIVtaJjQv3YhSsVlb7yW29955139C8WPYAACBhEAJnEILDoFgSgU7aJgc7OTp7ntz72pAl6pHaILdt38TwfiURsQxMTBQGnEkAmcerOY93GEoBOGcuXbu+BQIDBt/yEt/nq6+vpLha9gQAIGEQAmcQgsOjWyQSgU3baffFGffT8ZbU3kAyqHz1/GW/z2SmGMFcQSKeRSRAFIECdAHSKOlJjO4xEIi6Xa9nKNSw8J727t3/piiqXy4W3+YzddfQOArQJIJPQJor+nE4AOmW/CAiHwzzPr77/wbMXrxp0zymfbs9evLr6/gd5nm9tbbUfRMwYBBxPAJnE8SEAADQJQKdo0jSnrwMHDnAcRwipWr/RqntU3b39q+97gBDywgsvmLNqjAICIECXQEtLCzuZ5MUXX6S7OvQGAiYTgE6ZDFzvcAcOHOB5fsOGDfv27eN5ftnKNeZ/jip6/vLSFVU8z48aNWrevHn9/f16V4X2IAAC5hJoaWnhed7v97OTSd5++21zGWA0EKBJADpFk6bRfYku9e6776bT6XA47HK5Kip9rSfMe7xn64lYRaXvvXFbW1u7u7vHjBkDozJ639E/CNAlILoUI5kkFosJmQRGRXej0ZuZBKBTZtLWNZbMpYS+IpFIWXm5u6hoy/ZdRj/hM3bhypbtu9xud1l5ufjZcxiVrk1FYxAwnYDMpYTxLc8kMCrTAwEDUiYAnaIM1KDuMrqUMFYqlQoEAu99JLyi0mfct9AIN6V4nq+vr5d9Kx+MyqBNR7cgQJ1ARpcSRrE8k8CoqG83OjSTAHTKTNoax8rhUmKPnZ2dwm2q6prNRzp68vnVvDzrHOnoqa7ZLLspJY4rHMCoZEBwCgIMEsjhUuJsrc0kMCpxI3BgOwLQKda3LB+XEtaQSqWCwWBJSQkhZMHCxbtDB/X83l93b//u0MEFCxcTQkpKSoLBoOymlAwcjEoGBKcgwBSBfFxKmLC1mQRGxVTYYDL5E4BO5c/Kgpr5u5Q4uVQq1djY6PPNJoRMmDRl07bg/vDRU+cu5Xkv6tS5S/vDRzdtC46fOJkQMnv2nKamptwiJQ4NoxJR4AAEmCKQv0uJ07Ywk8CoxF3AgY0IQKfY3SwNLiVdTDQa9fv9Xq+XEMJxXOn0srtXrd2285m9LW3NbScPvdp1+OTZQ692Nbed3NvStm3nM3evWjt12gzhOTRer9fv98diMWmH+RzDqPKhhDogYCYBDS4lnZ4lmQRGJd0CHNuCAHSK0W3S6VLiqoaGhnp6ehoaGurq6ubOnefxeEimPx6PZ+7ceXV1dQ0NDT09PUNDQ2IPag9gVGqJoT4IGEdAp0uJEzM/k8CoRPg4sAUB6BSL20TLpZRrGxoaSiaTiUSiqamJENLU1JRIJJLJpB5/Uo4Co1IyQQkImE+AlkspZy5mkq6urvb29q6uLiMyCYxKSR4lzBKATjG3Nca5lHSpZ86cIYScOXNGWkjxGEZFESa6AgENBIxzKQ2T0dwERqUZHRqaTAA6ZTLwYYYzx6XS6bTROpVOp2FUw2w2XgYBwwgUhksJeGBUhoUJOqZJADpFk6bOvkxzKXN0CkalMx7QHAS0ESgklxIIwKi0RQJamUkAOmUm7VxjmelSpukUjCrXluM1EDCAQOG5lAAJRmVAsKBLmgSgUzRpau7LZJcyU6dgVJqjAg1BQC2BQnUpgQOMSm08oL6ZBKBTZtLOPJb5LmWyTsGoMm88SkGAKoHCdikBFYyKasigM5oEoFM0aWroyxKXMl+nYFQaYgNNQCB/Ak5wKYEGjCr/qEBNMwlAp8ykLR/LKpeyRKdgVPLtxzkIUCLgHJcSgMGoKAUOuqFJADpFk6aqvix0Kat0CkalKkJQGQTyIeA0lxKYwKjyiQ3UMZMAdMpM2h+OZa1LWahTMKoPgwBHIKCbgDNdSsAGo9IdPuiAJgHoFE2aefZluUtZq1MwqjzjBNVAIDcBJ7uUQAZGlTtC8KqZBKBTZtJ+fywWXMpynYJRmR12GK/gCMClhC2FURVcaNt1QdApU3eOEZdiQadgVKZGHgYrLAJwKel+wqikNHBsFQHolHnk2XEpRnQKRmVe8GGkAiIAl1JuJoxKyQQlJhOATpkEnCmXYkenYFQmxR+GKRQCcKlsOwmjykYG5eYQgE6ZwZk1l2JKp2BUZoQgxigIAnCp3NsIo8rNB68aSgA6ZSje9ztn0KVY0ykYleFRiAHsTwAulc8ewqjyoYQ6RhCAThlB9cM+2XQpBnUKRvVh0OAIBBQE4FIKJFkLYFRZ0eAFIwlApwyky6xLsalTMCoDYxFd25kAXErt7sGo1BJDff0EoFP6GWbugWWXYlanYFSZgwmlDiYAl9K2+TAqbdzQSjMB6JRmdLkaMu5SLOsUjCpXYOE1hxGAS+nZcBiVHnpoq5YAdEotseHrs+9SjOsUjGr4IEMNBxCAS+nfZBiVfoboIU8C0Kk8QeVbzRYuxb5OwajyDTjUK1ACcClaGwujokUS/eQmAJ3KzUfdq3ZxKVvoFIxKXfChdgERgEvR3UwYFV2e6C0jAehURixaCm3kUnbRKRiVlkBEG5sTgEsZsYEwKiOook8pAeiUlIb2Y3u5lI10CkalPSjR0oYE4FLGbRqMyji26DmdTkOnKISB7VzKXjoFo6IQo+jCDgTgUkbvEozKaMJO7r+QdWpwcDCZTMbj8Ugk0t7eHolE4vF4MpkcHBykuOV2dCnb6ZRxRmVOkFCMNxO6AhMZZHOAwKVk2A06NciozAkSg5gY1K3TmBSUTg0ODiYSiVAoVFtbO2fOXI/HQzL98Xg8c+bMra2tDYVCiURCj13Z1KXsqFO0jMr8IDEoVVHsFkxkMM0HApeSbYGhp1SMyvwgMZQJlc4dzqRAdCoajfr9fq/XSwjhOK50RvnyVesCO5/d29LW3NYePn76cHs8fPx0c1v73pa2wM5nl69aVzq9jOM4QojX6/X7/bFYTG082delbKpTOo3KkiBRG1Qm1wcTGXBLgMClZLtgwqkeo7IkSExgomcIMLH9Z6dSqVRDQ8Msn48QMmHSlNrAjlD42Klzl+J9A/n8PXXuUih8rDawY8KkKYQQn292Y2NjKpXKJ6ps7VL21SkNRmVhkOQTSJbUARMZdguBwKVke2HaqVqjsjBITGOidiAwkRKz692pVCr1xBNPFBcXcxy3YNGSPQ2Hunv781GojHW6e/v3NBxasGgJx3HFxcXBYDC3VNndpWytU/kblbVBIr3M2DkGE9leWAsELiXbDpNP8zQqa4PEZCZ5DgcmSlC21KnOzs6y8nJ3UVF1zeYjHT0ZDUlb4ZGOnuqaze6iorLy8kgkouSVTqcLwKXsrlP5GJW1QZIxciwvBBPZFlgLBC4l2w5LToc1KmuDxBImww4KJhkR2UynUqlUIBDgeb6i0vfj12LanGnYVq0nYhWVPp7nA4GA7DZVYbhUAehUDqOyPEgyXmnWFoKJjL/lQOBSsh2x8DSbUVkeJBYyyTY0mGQjY7PPTkUiEeGm1NbHnoxduDKsFempELtwZcv2XW63W3qbqmBcqjB0KqNRWR4kOS42q14CExl5y4HApWQ7Yvmp0qgsDxLLmSgnACZKJtIS29ydCofDLpfL0JtSSv0SblO5XK5wOFxILlUwOiUzKsuDRHppMXIMJrKNsBwIXEq2I4ycSo3K8iBhhIl0GmAipZHx2B46tX//fp7nl61cEz1/WSk9hpZEz19euqKK53mO4zZs2PDuu+9m5Gi7wjNnzhBCzpw5Y7uZKyfc3d09ZsyY0tJSy4MkFAopp2dhCQsXDlNMWADCcZzf7y+YTGJheFMfWjAqZBIlWBYuHKYyiRKRPd7s279/PyGkav1GPb+7p0e5unv7V9/3ACFk3759GSHasbCQdCqdTgeDQULI6vsftDJI7n+QEMLONc/EhcMSEyaAFFwmsWP2yzFnZBIlHCYuHJYyiRKRUML63alwOMzzfNX6jWcvXtWjRDrbnr14tWr9Rp7nw+FwNpT2Ki8knUKQKGMPTGRMAEQGBKdKAggSMFESyL+EaZ2KRCIul2vZyjVnfve2Th/S37y7t3/piiqXy5XtAQr5Q2ehZsHoFIJEGU5gImMCIDIgOFUSQJCAiZKAqhJ2dSqVSpWVl1dU+sz/vFQ294qev1xR6SsrL5c9PUEVcUYqF4ZOIUiU4QQmMiYAIgOCUyUBBAmYKAmoLWFXpwKBgLuoyLiHS2VzptzlrSdibre7vr5eLWjW6heGTiFIlHEFJjImACIDglMlAQQJmCgJqC1hVKc6Ozs5jtv62JO55caSV7ds38XzvN3f8isAnUKQKK92MJExARAZEJwqCSBIwERJQEMJizol3He9fabPqt/Sym1psQtXCuAtP7vrFIJEebWDiYwJgMiA4FRJAEECJkoC2kpY1KlgMMjg23xSxxLe8gsGg9qgs9DK7jqFIFFGEZjImACIDAhOlQQQJGCiJKCthDmdSqVSxcXF1TWbpfrC4HF1zeaSkhL7fibd1jqFIFFe7WAiYwIgMiA4VRJAkICJkoDmEuZ0qrGxkeO4Ix09DCqUdEpHOnoIIU1NTZrRW9vQ1jqFIFEGD5jImACIDAhOlQQQJGCiJKC5hDmdmuXzLVi0RCouzB4vWLjY55utGb21DW2tUwgSZfCAiYwJgMiA4FRJAEECJkoCmkvY0qloNEoI2dNwiFmFkk5sd+ggISQajWqmb2FD++oUgkQZNmAiYwIgMiA4VRJAkICJkoCeErZ0yu/3T5g0heIv9H3/5Z8vv+feCZNvLiryXDv6+tsqKmu2bm//ZZ/UijQfd/f2j5842e/369kAq9raV6coBsmT3/nul9Z95bbbZ37kpglFRR6X2z2m5IaPz5qz8ZHA0a7faA4MaUNzgoQiE+nkO9/80+SbS4nkz09/8WtpBW3HJjChCOSLVfdJAMgP53/289ogSFuZAMSqPMPyuBSDJN438NPON/wPf+2jH//k6OuLR44cWVTkuWni5M8uvvvp50NU/kczJ0goMun41f9+5Bv/cPsnZ183esxIl2vsR25atPQLdO+VmMMk/xhmSKcGBwe9Xm9tYIc00eg5/urmeo7j5PmPkOIbxja3ndTTs9h207ag1+sdGhrKnzgjNW2qU3SDROYK0lDxjPI+39QqbrSeA6ODhC4T6UrXVH9VyoQQQkWn4n0DhjKhC8QEnTIaCCM5h6lp0A2SF773Y49nlOxiEU9nz//M6f/+v9IrS9uxoVdNOp2myOSHP+n4yE0TRALSg2Ur11D8phOjmagKWoZ0KpFIEEJC4WPaQk3Wavs3nxO30DPKO3/h4o9+/JNiyejri493/1bWRMPp/vBRQkhPT48q6CxUtqlO0Q2SyTeXchw3+ebSWfM+fcedS6dOLxcjhBAypuSG6G//qiEqZE2MDhK6TMTJv9T8spSGcExLpwxlQheIqFNjSm743F0rZX/r6neKxPQcGAqEhYTD2hwoBkn0/OXiG8aKF8t7/7ksWLRE+t8NIWTL9l16wkNoa3SQ0GJy8pcXS8aOE4FMmTpt/mc/P/r6YrHk3gc26adhDhNVccuQToVCIY7jfvGbP+oHfercpWuuvU7YvFHea/7j591Cn7WBHeKOrlxbTWUgjuMaGhpUQWehsk11imKQxPsG/uW7za/G/lsaBt9+6QdihBBCfviTDumr2o5PnbtkaJDQZSKssePXv79x/ERCyLWjr79u9BiRCS2dMpQJXSCiTs2a92ltAZBPK0OBsJBwWJsDxSBp+enr4gUy+vri185eEHb877b+vVh+x51L8wmD3HWMDhJaTB762mPiwu+8a4XwXufx7t+OKS4RyjmOE/9Tzr3kYV81momquGVIp2pra0unlw2LL58KO7/9oridK7+8XmwSSf4f8ZasZ5S3880/iS9pPpg6bUZdXZ0q6CxUtqlOUQySbDsutYfWE7Fs1VSVGxokRjBZfs+9whX0zX/99/GTpohXEy2divcNGMeELhBzdMpQICwkHNbmQDFIwsdPixfIbbfPFDOD8LtKwkt3fenLYrmeA+OumnQ6TYtJpW+eCOSl5pfF9d5zr18s3/DQVrFc54GhTFTFLUM6NWfO3OWr1ukkKzT/wur/+c+AEPL4U7ulfVZU+sQd3XfoqPQlbcd3r1o7d+48VdBZqGxTnaIYJBm3+1++2yyGx+SbS2MXrmSRMUvHAAAgAElEQVSsprbQ0CChzuQ7+1oECHfetSLeN2CQThnHhC4QUacm31x634O1S1dUrfzy+trAju+//HO1YZC7vnFAWEg4rM2BYpBEz1+eOPkW4ZIZMWLE0y80dL715592vjFnwUIxmdD6IKahQUKLyZSp08SFN7e1i2Hv3/SoWP7xWXPEcp0HhjJRFbes6NTg4GBRUVFg57M6yQrNpc60O3RQ2uedy74o7ugTT++RvqTteNvOZzwej+0+jW5HnaIbJOJ2f3XLNz5318oFi5bcXDpdjI2bJk6m8k6fMIpxQUKdyWvxC8LnHkrGjnst/v7bFgbplEFMqAMRdUqMDfFg9vzPvBJ9SwwknQcGAVH1/4FDKlMPku+//POx424UA0N6cN3oMTuefV5nbIjNjQsSikxun/nhPYunnw+Jk5f+5zum5AaxXOeBcUzUXg6s6FQymSSE7G1p00lWaC79f/G7B34i7XP5qnVirG/++3+UvqTteG9LGyEkmUyqRW9tfTvqFN0gEbdbemtaiI1bKz7RejwqVtB/YFyQUGdy510rBAjf2X9AWLhBOmUQE+pAcujUe9+LcMu0GZ1v/Vl/hMT7BgwCYm2eYXN06kES7xt4JfqWVCOEi8jldm/Zvuv1N/5AJUIMDRKKTDY+EhD/k71l2owfHf3FL37zx2debBwxYoRYPtLlYp+J2uhlRafi8TghRHpjUA9rqU7JFO3uVWvFHaWiU81tJwkhiURCLXpr69tRp+gGiRhgSp0ihIwcOVL2NrFYX8OBcUFCl8k/7d4nXB1frLpPXKZBOmUQE7pA4n0DNVu3P1D79Zd+eOSnnW90Jf/yckfigdqvS5/A8rXHvymy0nNgEBBr8wybo1MPkuf+/YfiLz+NKS6Z/9nPf+wTs8T/aG4unU7rQ4fGBQlFJq/FL2S7Vycy8V5zrZ6LRdrWOCZqo5cVnYpEIoSQ8PHTUkyaj3O82bdo6RfEHaXyZt+hV7sIIV1dXWrRW1vfjjpFN0hk0fX6G3/40bHOtRtqxPAYMWIErYAUgqSpqekM7T9NTU20Lpyu5F+Ej+HfNHGy9Odpg3TKICYUgcgiRHq6zv+wGCe+T90hfUnzsU0zibV5TNvodDPJ4fa4y+0W4mF6+Uc7fv17IQZ2PfeSGCRUfrMv3jdg0FVz5swZuhdO+Php6SeoBA7jbhwvApk0ZarmK0XWkJ0LhxWdam9vJ4Qcbo/LSGk7lX4U/bGn/lXaifSHBiofRT988iwhpL29XduFbVUrO+oU3SCRRoX0eOGS5eI1//Cjj0tf0nwsBInYLfUDKhdOx6/+tzCxoiLPmOIS8S/P8+KER19fPKa45JkXGzWjEBsayoQKEHGqyoN/3f8jkcnNpdOVFTSU2DSTWJXB9IxLN5Ns2hYUg+HR4FPSrfdec63w0siRI6k8xM7Qq4bif8HxvoHo+cvffukH6/wPL11Rtfq+B3Y9t/e7B34iglryhXukoPQcs3PhsKJTdH9ckD4oQfq2Redbf6b+oAR21FhVfrGjTtENkmwX8Je/8nfiNV+1fmO2aqrKbfEzpahT4vKzHex67iVVy89Y2SAmdH/Izvb45vp/+JYI52OfmJVxgWoLbZpJVKUdRirTzSSr73tADIav73hauu/iO4CEECoPjjboqqF+d0oKQTz+0rqviKCe2rNfLNd5wM6Fw4pOUXzjNt43IH2Mp2eU98ev/c/Tgx5+9HFxO6k8xjPeN8DOG7eqUpUddYpukOz89otPfue74p154ZJu+s8T0qf3yn7W1HzZGxckFJmYrFMGMaEIJN43sO/gz2bO/tRz//5DqVc1t7WLDyQkhNz/1TrNgSFtaBAQVWnBIZXpBon06dAzbqsQ3yjf9dxe8b+ba669jso39xkXJHSZvPj9//h5olcM7+hv//rIN3aKNCZNmSq9oMRq2g6MY6L2cmBFpyj+WoGwJcovmbnt9pnido6+vlj2OGxtG2nor1qo3UtV9e2oU3SD5L4Ha9//yLnLNeO2ijvuXLpg0RLZl8xcN3oM+0FCl0nGq8Cgz04Z9ItsdIHsO/gzIWmM8l4zc/anPvP5u8o/9nHp59Cvufa6Y6ffzMhNbaFBQFSlBYdUphskh9vjI10u8T+XMSU3zF+4WPqpEkLImuqvqo2HjPWNCxK6TG67feaIESOmld02f+HimXPmjym5QeTjcru/d/i1jKvTVmgcE7WXAys6RfGhF+KWbHwkIE184naOKbmB1lcgx/sG2Hnohaq9t6NO0Q0SQafEqJAdjB13I62vjzQ0SOgyEa8d6YFBOmXQhUMXyL5D738pZ7Y/Y8fd2ND6ipSVnmODgKhKCw6pTDdI4n0Du557SWpUsoD55NwF4i0rPRFio0wivXkhpXHDuI/sD1N4erYUIzsXDis6lU6naT2SVQr6+y//fPmqdTdNnOwuKrr2utG3VnyiZuv29l/2SevoPGbnkayqUqEddYpukBx6tevhrz8x/7Ofn3zLtOtGjxkxYsQo7zWTby5duGT5E0/vofIFRGJoGRokRlw44syNe4yncUwoAjl78WoofMy/6dFZ8z497sbxLrd7pMtVMnbc7Pmf+fqOp2XvFEuhaTg2DoiqzOCQyhSDRNjrlzsSX3loy223zxSSSVGRZ/ykKYuWfuHpFxrO/O5tDfGQsYmhQUKRydPPhxYvXyWk1pEjR5aMHef71B2PBp+i8p28MjKGMlF1OTCkU7S+MEjG2uhTdr4wSNXG21SnECTKXQYTGRMAkQHBqZIAggRMlAR0ljCkU8LXWZ86d8loAaLYP1NfZ60qFGyqUwgS5S6DiYwJgMiA4FRJAEECJkoCOksY0qlEIkEIofiBFYralK2r/eH3P1rR09OjcxvMb25TnUKQKEMFTGRMAEQGBKdKAggSMFES0FnCkE4NDg56vd7awI5s7sJg+aZtQa/Xa7vvP06n0zbVKQSJ8oIHExkTAJEBwamSAIIETJQEdJYwpFPpdNrv90+YNIXK8zlMcK/u3v7xEyf7/X6de2BJc5vqFIIkY7TgwpFhARAZEJwqCSBIwERJQE8JWzoVjUYJIXsaDpkgQ/qH2B06SAiJxWJ6NsCqtvbVKQSJMmbARMYEQGRAcKokgCABEyUBPSVs6VQ6nZ7l8y1YtES/65jQw4KFi32+2XroW9jWvjqFIMkYNrhwZFgARAYEp0oCCBIwURLQXMKcTjU2NnIcd6SjxwQf0jPEkY4eQkhTU5Nm9NY2tLVOIUiUwQMmMiYAIgOCUyUBBAmYKAloLmFOp1KpVHFxcXXNZj2uY0Lb6prNJSUlqVRKM3prG9papxAkyuABExkTAJEBwamSAIIETJQENJcwp1PpdDoYDLqLisTvLTbBjdQO0Xoi5na7g8GgZu6WN7S1TiFIMsYPLhwZFgCRAcGpkgCCBEyUBLSVsKhTqVSqrLy8otIXu3BFreiYUD924UpFpa/81lvfeecdbdBZaGV3nUKQKKMITGRMAEQGBKdKAggSMFES0FbCok6l0+nOzk6e57c+9qQJeqR2iC3bd/E8H4lEtBFnpJXddQpBkjGQcOHIsACIDAhOlQQQJGCiJKChhFGdSqfTgUCAwbf8hLf56uvrNbBmqkkB6BSCJGNE4cKRYQEQGRCcKgkgSMBESUBtCbs6Jd6DjZ6/rPYGkkH1o+cvF8DbfEKIFIZOIUiUFzyYyJgAiAwITpUEECRgoiSgtoRdnUqn05FIxOVyLVu5hoXnpHf39i9dUeVyuez+Np8QIoWhUwiSjBc8LhwZFgCRAcGpkgCCBEyUBFSVMK1T6XQ6HA7zPF+1fuPZi1cNuueUT7dnL15dfd8DPM+3traq4sts5YLRKTFIVt//oPVBcv+DjAQJQxcOG0wYAlJYmYTZFKdhYkKQIJNI0TF04bCRSaRwZMes61Q6nQ6FQoSQqvUbrbpH1d3bv/r+BwkhpaWl/f39MoI2PS0knTpw4ADHcYwESSgUYiQk2LlwGGHCDpDS0tK3336bkTjBNEQCLS0tyCQiDfGAnQuHkUwikpEd2ECnBKPieX7ZyjXmf44qev7y0hVVPM/v2LFjzJgx8+bNKwyjKhidOnDgAM/zGzZs2Ldvn+VBwtrVHgqFwESa8lgAImYSGJV0ayw/bmlp4Xne7/cjkyj3goULh7XsqqRkD50S3tBxuVwVlb7WE7F83p6jUqf1RKyi0vfeuMJ7fN3d3QVjVIWhU6JLvfvuu4wEifIas7YkHA5bfuFYS0A2OgtAYrGYkElgVLLdsepUdClkkmxbwMKFk21ujJTbRqeEDx2XlZe7i4q2bN9l9BM+YxeubNm+y+12l5WXSz97XjBGVQA6JXMp4YqKRCKWBwkj17Y4DTARUbATJDAq2aZYeCpzKXaCxEImGYdGJsmIRSy0k06l0+lUKhUIBN77tG9Fpc+4b6ERbkrxPF9fX6/8Vr7CMCq761RGlxLCmoUgES8wRg7ARLYRLACBUck2xZLTjC4lzISFILGESY5BwSQHHJvplLCSzs5O4Q5Edc3mIx09VN7XEzo50tFTXbNZeVNKRrAAjMrWOpXDpcSdsjxIxJmwcwAmsr2wHAiMSrYjJp/mcClxJpYHiTgTdg7AJONe2FKnhNtUwWCwpKSEELJg4eLdoYN6fu+vu7d/d+jggoWLCSElJSXBYFB5U0qGz+5GZV+dyselhM1KpVLWBoksZlg4BRPZLlgOBEYl2xHTTvNxKWEylgeJaUzyHwhMlKzsqlNilDc2Nvp8swkhEyZN2bQtuD989NS5S3nerzp17tL+8NFN24LjJ04mhMyePaepqWlYkRIh2tqobKpT+buUuE2pVMrCIBGnwdQBmMi2w1ogMCrZdphwmr9LiZOxNkjEaTB1ACbS7bC3TokriUajfr/f6/USQjiOK51edveqtdt2PrO3pa257eShV7sOnzx76NWu5raTe1vatu185u5Va6dOmyE8YsTr9fr9/lgsJvaW/4F9jcqOOqXBpaRbaVWQSOfA2jGYyHbEKiAwKtlGGHqqwaWk87EqSKRzYO0YTNLpdIHolBBbQ0NDPT09DQ0NdXV1c+fO83g8JNMfj8czd+68urq6hoaGnp6eoaEhPaFpU6OynU7pdClxiy0JEnF0Ng/ARLYvlgCBUcl2waBTnS4lzsqSIBFHZ/PA4UwKSqdkETY0NJRMJhOJRFdXV3t7e1dXVyKRSCaTOv1JNko6nbajUdlLp2i5lHLvTAsS5dDMloCJbGtMAwKjkpGnfkrLpZQTMy1IlEMzW+I0JoWsU2YGme2MykY6ZZxLmRkhGAsE8iEAo8qHkrY6xrmUtvmgVYERgE5R21B7GZVddAouRS1A0ZFNCMCojNgouJQRVNGnlAB0SkpD77GNjMoWOgWX0huRaG9PAjAquvsGl6LLE71lJACdyohFe6FdjIp9nYJLaY9CtLQ/ARgVrT2ES9EiiX5yE4BO5eaj5VVbGBXjOgWX0hJ5aFNYBGBU+vcTLqWfIXrIkwB0Kk9Q6qqxb1Qs6xRcSl20oXbhEoBR6dlbuJQeemirlgB0Si2xfOszblTM6hRcKt8IQz1nEIBRadtnuJQ2bmilmQB0SjO64RuybFRs6hRcavioQg3nEYBRqd1zuJRaYqivnwB0Sj/DXD0wa1QM6hRcKlck4TVnE4BR5b//cKn8WaEmRQLQKYowM3fFplGxplNwqczRg1IQ+IAAjOoDErn+hUvlooPXjCQAnTKS7gd9M2hUTOkUXOqDSMG/IJCLAIwqF510Gi6Vmw9eNZQAdMpQvB92zppRsaNTcKkPowRHIDAcARhVNkJwqWxkUG4OAeiUOZzfH4Upo2JEp+BS5sUfRioUAjAq5U7CpZRMUGIyAeiUqcDZMSoWdAouZWrwYbACIgCjkm4mXEpKA8dWEYBOmU2eEaOyXKfgUmZHHsYrLAIwKmE/4VKFFdc2Xg10yoLNY8GorNUpuJQFYYchC44AjAouVXBBbeMFQaes2TzLjcpCnYJLWRNzGLUQCTjZqOBShRjRNl4TdMqyzbPWqKzSKbiUZQGHgQuUgDONCi5VoOFs42VBp6zcPAuNyhKdgktZGW0Yu3AJOM2o4FKFG8s2Xhl0yuLNs8qozNcpuJTFoYbhC5qAc4wKLlXQgWzjxUGnrN88S4zKZJ2CS1kfZ5hBoRNwglHBpQo9im28PugUE5tnvlGZqVNwKSaCDJNwAIHCNiq4lANC2MZLhE6xsnkmG5VpOgWXYiXCMA9nEChUo4JLOSN+bbxK6BRDm2emUZmjU3AphsILU3EMgcIzKriUY4LXxguFTrG1eaYZlQk6BZdiK7YwGycRKCSjgks5KXJtvFboFHObZ45RGa1TcCnmAgsTchiBwjAquJTDwtbGy4VOsbh5xhnV4OBgMpmMx+NNTU2EkKampng8nkwmBwcHKYKAS1GEia5AQDMB44xKzCSRSKS9vT0SiRiRSeBSmrceDc0nAJ0yn3leI9IyqsHBwUQiEQqFamtr58yZ6/F4SKY/Ho9nzpy5tbW1oVAokUjosSu4VF4bjEogYAoBWkZlfiaBS5kSIBiEGgHoFDWU1DvSaVTRaNTv93u9XkIIx3GlM8qXr1oX2Pns3pa25rb28PHTh9vj4eOnm9va97a0BXY+u3zVutLpZRzHEUK8Xq/f74/FYmoXBZdSSwz1QcBoAjqNypJMApcyOirQP3UC0CnqSGl2qMGoUqlUQ0PDLJ+PEDJh0pTawI5Q+Nipc5fifQP5/D117lIofKw2sGPCpCmEEJ9vdmNjYyqVymdVcKl8KKEOCJhPQINRWZhJ4FLmRwhG1E8AOqWfobE95G9UqVTqiSeeKC4u5jhuwaIlexoOdff256NQGet09/bvaTi0YNESjuOKi4uDwWBuqYJLGRsH6B0E9BHI36iszSRwKX37jNaWEYBOWYY+/4HzMarOzs6y8nJ3UVF1zeYjHT0ZDUlb4ZGOnuqaze6iorLy8kgkknHacKmMWFAIAkwRyMeorM0kcCmmAgaTUUUAOqUKl2WVcxhVKpUKBAI8z1dU+n78WkybMw3bqvVErKLSx/N8IBCQ3aaCS1kWFhgYBFQSyGFUlmcSuJTKzUR1tghAp9jajxyzyWhUkUhEuCm19bEnYxeuDGtFeirELlzZsn2X2+2W3qaCS+XYMrwEAgwSyGhUlmcSuBSDoYIpqSIAnVKFy+LKMqMKh8Mul8vQm1JK/RJuU7lcrnA4DJeyOCAwPAhoIiAzKsszCVxK0zaiEVsEoFNs7cewsxGN6vnnn+d5ftnKNdHzl5XSY2hJ9PzlpSuqeJ7nOG7Dhg3vvvvusNNGBRAAAaYIiEb1wgsvsJBJ/H4/MglTEYLJqCUAnVJLzPr63d3do0aNIoRUrd+o53f39ChXd2//6vseIITs27fPeiKYAQiAgHoCsVgMmUQ9NrQAgcwEoFOZubBcGg6HeZ5fff+DZy9e1aNEOtuevXi1av1GnufD4TDLuDA3EACBjASQSTJiQSEIaCMAndLGzbJWkUjE5XItW7nmzO/e1ulD+pt39/YvXVHlcrmyPUDBMkwYGARAICcBZJKcePAiCKgmAJ1SjczCBqlUqqy8vKLSZ/7npbK5V/T85YpKX1l5uezpCRZSwtAgAAK5CSCT5OaDV0FAAwHolAZoljUJBALuoiLjHi6VzZlyl7eeiLnd7vr6esu4YGAQAAE1BJBJ1NBCXRDIiwB0Ki9MLFTq7OzkOG7rY0/mlhtLXt2yfRfP83jLj4U4wRxAIDcBZJLcfPAqCGgjAJ3Sxs3sVsLN+dtn+qz6Vb7clha7cAVv+ZkdExgPBNQTQCZRzwwtQCAvAtCpvDBZXikYDDL4Np/UsYS3/ILBoOWsMAEQAIFsBJBJspFBOQjoJACd0gnQjOapVKq4uLi6ZrNUXxg8rq7ZXFJSgs+kmxETGAME1BNAJlHPDC1AIF8C0Kl8SVlYr7GxkeO4Ix09DCqUdEpHOnoIIU1NTRaywtAgAALZCCCTZCODchDQTwA6pZ+h4T3M8vkWLFoiFRdmjxcsXOzzzTacCAYAARBQTwCZRD0ztACBfAlAp/IlZVW9aDRKCNnTcIhZhZJObHfoICEkGo1ahQvjggAIZCSATJIRCwpBgBYB6BQtkkb14/f7J0yawuYv9ElFSjju7u0fP3Gy3+83Cgf6BQEQ0EQAmUQTNjQCgXwJQKfyJWVJvcHBQa/XWxvYoRQXDSVtr//yG7v+efk9994ybQbHceSDP/sO/kxDb9mabNoW9Hq9Q0NDlhDDoCAAAkoCtDLJQ1977IO0kfXfWfM+nS05qCpHJlHuI0pYJgCdYnl30olEghASCh9TlYayVc6WCunq1P7wUUJIT08P02QxORBwEgFamSRbDpG6FS2dQiZxUoQWwlqhU0zvYigU4jjuF7/5YzZDUlUupsKiIo/HM0rMgHR16tS5SxzHNTQ0ME0WkwMBJxGglUm+9W/f+9xdK5V/i28YK+aTrzy0RVVeylYZmcRJEVoIa4VOMb2LtbW1pdPLsqUbteUvNb+841sv/OjoL2IXrsya92kx/dHVqXjfwNRpM+rq6pgmi8mBgJMI0M0ksszzWvyC+OPZSJfr2Ok3ZRU0nyKTOClIbb9W6BTTWzhnztzlq9ZpTkY5GhqqU3evWjt37jymyWJyIOAkAsZlknjfwMOPPi7+bLb8nntzpB21LyGTOClIbb9W6BS7Wzg4OFhUVBTY+azaHJRPfUN1atvOZzweDz6Nzm5sYWZOImBoJulK/qVk7DhRpw6+Eskn/+RZB5nESXFq+7VCp9jdwmQySQjZ29KWZ+pRVc1Qndrb0kYISSaT7MLFzEDAMQQMzSQ7nn1edKlPfeZzqrLQsJWRSRwTpIWwUOgUu7sYj8cJIc1t7cMmHQ0VDNWp5raThJBEIsEuXMwMBBxDwLhMcvbi1anTy0Sdeqn5ZQ25KEcTZBLHBGkhLBQ6xe4uRiIRQkj4+Okc6UbzS4bq1KFXuwghXV1d7MLFzEDAMQSMyyR7Gg6JLlX20ds1p6NsDZFJHBOkhbBQ6BS7u9je3k4IOdwez5Zr9JQbqlOHT54lhLS3t7MLFzMDAccQMC6T+D51h6hT/7R7n56MlLEtMoljgrQQFgqdYncXjfuZMt43YKhO4WdKdqMKM3MeAYMySctPXxdd6qYJk2IXrmRUIj2FyCTOi1Ybrxg6xe7mGfeJB6N1Cp94YDeqMDPnETAokyxbuUbUqUeDT+nRpmxtkUmcF602XjF0it3NM/T3cQy9O4Xfx2E3qjAz5xEwIpMc7frNyJEjBZ269rrRr7/xh2xKpKccmcR50WrjFUOn2N086k+Leb4xfPtMn/D3mmuvE3+ynDq9XCzXk/vEtnhaDLtRhZk5jwD1TBLvG6iu2SwmkA0PbRWvfboHyCTOi1Ybrxg6xfTm0X2W8a7nXhIzYLYDKtkQzzJmOqowOecRoJtJXn/jD9deN1rIISNdrleib1HJG8pOkEmcF6o2XjF0iunNo/tNW6bpFL5pi+mowuScR4BuJvn6jqfFn8fofquMzKiQSZwXqjZeMXSK6c0Tvgf+1LlLsizD8im+B57pkMLkHEkAmcSR245Fm0oAOmUqbrWDJRIJQkgofIxlf5LNbX/4KCGkp6dH7WJRHwRAwCACyCQGgUW3ICASgE6JKFg8GBwc9Hq9tYEdMmVh+XTTtqDX68X3H7MYT5iTUwkgkzh157Fu8whAp8xjrW0kv98/YdKU7t5+lhVKnFt3b//4iZP9fr+2xaIVCICAQQSQSQwCi25BQCAAnWI9EqLRKCFkT8MhUVlYPtgdOkgIicVirGPF/EDAYQSQSRy24Viu2QSgU2YT1zDeLJ9vwaIlLFuUOLcFCxf7fLM1rBFNQAAEjCaATGI0YfTvZALQKRvsfmNjI8dxRzp6RGth8+BIRw8hpKmpyQZMMUUQcB4BZBLn7TlWbB4B6JR5rDWPlEqliouLq2s2s2lR4qyqazaXlJSkUinNK0VDEAAB4wggkxjHFj2DAHTKHjEQDAbdRUU/fi0mugtrB60nYm63OxgM2gMoZgkCjiSATOLIbceizSAAnTKDsv4xUqlUWXl5RaUvduEKayIV7xuIXbhSUekrv/XWd955R/9i0QMIgIBBBJBJDAKLbkEAOmWbGOjs7OR5futjTzKoU1u27+J5PhKJ2IYmJgoCTiWATOLUnce6jSUAnTKWL93eA4EAg2/5CW/z1dfX010segMBEDCIADKJQWDRrZMJQKfstPvijfro+cuM3KOKnr+Mt/nsFEOYKwik08gkiAIQoE4AOkUdqbEdRiIRl8u1bOUaFp6T3t3bv3RFlcvlwtt8xu46egcB2gSQSWgTRX9OJwCdsl8EhMNhnuer1m88e/Gqhfeozl68uvr+B3meb21ttR9EzBgEHE8AmcTxIQAANAlAp2jSNK2vUChECKlav9Gqe1Tdvf2r73+QEBIKhUxbNQYCARCgSwCZhC5P9OZkAtApu+5+KBTieX7ZyjXmf44qev7y0hVVPM/DpewaPZg3CHxAAJnkAxL4FwR0EYBO6cJnbeNwOOxyuSoqfa0nzHu8Z+uJWEWl771x8R6ftbuP0UGAFgFkElok0Y+TCUCn7L37kUikrLzcXVS0Zfsuo5/wGbtwZcv2XW63u6y8HJ89t3fcYPYg8LcEkEn+lgfOQEA1AeiUamSsNUilUoFA4L2PhFdU+oz7FhrhphTP8/X19fhWPtZiAPMBAf0EkEn0M0QPTiYAnSqQ3e/s7BRuU1XXbD7S0UPxN/6OdPRU12zGTakCCRQsAwRyEkAmyYkHL4JAVgLQqaxobPdCKpUKBoMlJSWEkAULF+8OHdTze3/dvf27QwcXLFxMCCkpKQkGg7gpZbuQwIRBQAMBZBIN0NAEBKBThRYDqVSqsbHR55tNCJkwacqmbcH94aOnzl3K837VqXOX9oePbtoWHD9xMiFk9uw5TUQt5UQAAAHdSURBVE1NEKlCixKsBwSGI4BMMhwhvA4Cf0MAOvU3OArpJBqN+v1+r9dLCOE4rnR62d2r1m7b+czelrbmtpOHXu06fPLsoVe7mttO7m1p27bzmbtXrZ06bQbHcYQQr9fr9/tjsVghAcFaQAAENBBAJtEADU0cSAA6VeCbPjQ01NPT09DQUFdXN3fuPI/HQzL98Xg8c+fOq6ura2ho6OnpGRoaKnAuWB4IgIAaAsgkamihrhMJQKectetDQ0PJZDKRSHR1dbW3t3d1dSUSiWQyCX9yVhxgtSCgjwAyiT5+aF2ABKBTBbipWBIIgAAIgAAIgICZBKBTZtLGWCAAAiAAAiAAAgVIADpVgJuKJYEACIAACIAACJhJADplJm2MBQIgAAIgAAIgUIAEoFMFuKlYEgiAAAiAAAiAgJkEoFNm0sZYIAACIAACIAACBUgAOlWAm4olgQAIgAAIgAAImEkAOmUmbYwFAiAAAiAAAiBQgASgUwW4qVgSCIAACIAACICAmQSgU2bSxlggAAIgAAIgAAIFSAA6VYCbiiWBAAiAAAiAAAiYSQA6ZSZtjAUCIAACIAACIFCABKBTBbipWBIIgAAIgAAIgICZBKBTZtLGWCAAAiAAAiAAAgVI4P8BpFUaCDj/X2gAAAAASUVORK5CYII=;" parent="1" vertex="1">
          <mxGeometry x="760" y="360" width="306.46" height="110" as="geometry" />
        </mxCell>
        <mxCell id="M1BKZDBU8KgPT3htymkt-1" value="&lt;div&gt;&lt;font size=&quot;1&quot; face=&quot;Roboto Mono&quot;&gt;&lt;b style=&quot;font-size: 40px;&quot;&gt;Eigenvector centrality&lt;/b&gt;&lt;/font&gt;&lt;/div&gt;" style="text;html=1;align=left;verticalAlign=top;whiteSpace=wrap;rounded=0;spacingLeft=6;spacing=0;" parent="1" vertex="1">
          <mxGeometry x="-40" y="70" width="300" height="140" as="geometry" />
        </mxCell>
        <mxCell id="M1BKZDBU8KgPT3htymkt-2" value="&lt;div&gt;&lt;font face=&quot;Roboto Mono&quot;&gt;[[1],&lt;/font&gt;&lt;/div&gt;&lt;div&gt;&lt;font face=&quot;Roboto Mono&quot;&gt;&amp;nbsp;[1],&lt;/font&gt;&lt;/div&gt;&lt;div&gt;&lt;font face=&quot;Roboto Mono&quot;&gt;&amp;nbsp;[1],&lt;/font&gt;&lt;/div&gt;&lt;div&gt;&lt;font face=&quot;Roboto Mono&quot;&gt;&amp;nbsp;[1],&lt;/font&gt;&lt;/div&gt;&lt;div&gt;&lt;font face=&quot;Roboto Mono&quot;&gt;&amp;nbsp;[1],&lt;/font&gt;&lt;/div&gt;&lt;div&gt;&lt;font face=&quot;Roboto Mono&quot;&gt;&amp;nbsp;[1],&lt;/font&gt;&lt;/div&gt;&lt;div&gt;&lt;font face=&quot;Roboto Mono&quot;&gt;&amp;nbsp;[1],&lt;/font&gt;&lt;/div&gt;&lt;div&gt;&lt;font face=&quot;Roboto Mono&quot;&gt;&amp;nbsp;[1],&lt;/font&gt;&lt;/div&gt;&lt;div&gt;&lt;font face=&quot;Roboto Mono&quot;&gt;&amp;nbsp;[1],&lt;/font&gt;&lt;/div&gt;&lt;div&gt;&lt;font face=&quot;Roboto Mono&quot;&gt;&amp;nbsp;[1]]&lt;/font&gt;&lt;/div&gt;" style="text;html=1;align=left;verticalAlign=top;whiteSpace=wrap;rounded=0;spacingLeft=6;spacing=0;" parent="1" vertex="1">
          <mxGeometry x="330" y="240" width="50" height="170" as="geometry" />
        </mxCell>
        <mxCell id="M1BKZDBU8KgPT3htymkt-3" value="&lt;div&gt;&lt;font face=&quot;Roboto Mono&quot;&gt;[0.38578075078405244,&lt;/font&gt;&lt;/div&gt;&lt;div&gt;&lt;font face=&quot;Roboto Mono&quot;&gt;&amp;nbsp;0.5147895733043953,&lt;/font&gt;&lt;/div&gt;&lt;div&gt;&lt;font face=&quot;Roboto Mono&quot;&gt;&amp;nbsp;0.5147895733043953,&lt;/font&gt;&lt;/div&gt;&lt;div&gt;&lt;font face=&quot;Roboto Mono&quot;&gt;&amp;nbsp;0.4733139596507753,&lt;/font&gt;&lt;/div&gt;&lt;div&gt;&lt;font face=&quot;Roboto Mono&quot;&gt;&amp;nbsp;0.23360769327169156,&lt;/font&gt;&lt;/div&gt;&lt;div&gt;&lt;font face=&quot;Roboto Mono&quot;&gt;&amp;nbsp;0.15014966640695154,&lt;/font&gt;&lt;/div&gt;&lt;div&gt;&lt;font face=&quot;Roboto Mono&quot;&gt;&amp;nbsp;0.08355207633417264,&lt;/font&gt;&lt;/div&gt;&lt;div&gt;&lt;font face=&quot;Roboto Mono&quot;&gt;&amp;nbsp;0.08355207633417264,&lt;/font&gt;&lt;/div&gt;&lt;div&gt;&lt;font face=&quot;Roboto Mono&quot;&gt;&amp;nbsp;0.07284377741303703,&lt;/font&gt;&lt;/div&gt;&lt;div&gt;&lt;font face=&quot;Roboto Mono&quot;&gt;&amp;nbsp;0.02729298175743415]&lt;/font&gt;&lt;/div&gt;" style="text;html=1;align=left;verticalAlign=top;whiteSpace=wrap;rounded=0;spacingLeft=6;spacing=0;" parent="1" vertex="1">
          <mxGeometry x="920" y="160" width="50" height="170" as="geometry" />
        </mxCell>
        <mxCell id="M1BKZDBU8KgPT3htymkt-4" value="&lt;div&gt;&lt;font face=&quot;Roboto Mono&quot;&gt;With random initial guess&lt;/font&gt;&lt;/div&gt;" style="text;html=1;align=left;verticalAlign=top;whiteSpace=wrap;rounded=0;spacingLeft=6;spacing=0;" parent="1" vertex="1">
          <mxGeometry x="920" y="120" width="210" height="30" as="geometry" />
        </mxCell>
        <mxCell id="M1BKZDBU8KgPT3htymkt-5" value="&lt;div&gt;&lt;font face=&quot;Roboto Mono&quot;&gt;[0.3857800661495735,&lt;/font&gt;&lt;/div&gt;&lt;div&gt;&lt;font face=&quot;Roboto Mono&quot;&gt;&amp;nbsp;0.5147902322356226,&lt;/font&gt;&lt;/div&gt;&lt;div&gt;&lt;font face=&quot;Roboto Mono&quot;&gt;&amp;nbsp;0.5147902322356226,&lt;/font&gt;&lt;/div&gt;&lt;div&gt;&lt;font face=&quot;Roboto Mono&quot;&gt;&amp;nbsp;0.4733122039637769,&lt;/font&gt;&lt;/div&gt;&lt;div&gt;&lt;font face=&quot;Roboto Mono&quot;&gt;&amp;nbsp;0.23361029944966005,&lt;/font&gt;&lt;/div&gt;&lt;div&gt;&lt;font face=&quot;Roboto Mono&quot;&gt;&amp;nbsp;0.1501458150031844,&lt;/font&gt;&lt;/div&gt;&lt;div&gt;&lt;font face=&quot;Roboto Mono&quot;&gt;&amp;nbsp;0.08355561051056494,&lt;/font&gt;&lt;/div&gt;&lt;div&gt;&lt;font face=&quot;Roboto Mono&quot;&gt;&amp;nbsp;0.08355561051056494,&lt;/font&gt;&lt;/div&gt;&lt;div&gt;&lt;font face=&quot;Roboto Mono&quot;&gt;&amp;nbsp;0.07284034177922594,&lt;/font&gt;&lt;/div&gt;&lt;div&gt;&lt;font face=&quot;Roboto Mono&quot;&gt;&amp;nbsp;0.02729466013965243]&lt;/font&gt;&lt;/div&gt;" style="text;html=1;align=left;verticalAlign=top;whiteSpace=wrap;rounded=0;spacingLeft=6;spacing=0;" parent="1" vertex="1">
          <mxGeometry x="1150" y="160" width="50" height="170" as="geometry" />
        </mxCell>
        <mxCell id="pzxnhF5qK0eMf12bka1I-1" value="&lt;div&gt;&lt;font face=&quot;Roboto Mono&quot;&gt;With an initial vector where all elements are one&lt;/font&gt;&lt;/div&gt;" style="text;html=1;align=left;verticalAlign=top;whiteSpace=wrap;rounded=0;spacingLeft=6;spacing=0;" parent="1" vertex="1">
          <mxGeometry x="1160" y="120" width="210" height="30" as="geometry" />
        </mxCell>
        <mxCell id="pzxnhF5qK0eMf12bka1I-3" value="&lt;div&gt;&lt;font face=&quot;Roboto Mono&quot;&gt;[[2]&lt;/font&gt;&lt;/div&gt;&lt;div&gt;&lt;font face=&quot;Roboto Mono&quot;&gt;&amp;nbsp;[3]&lt;/font&gt;&lt;/div&gt;&lt;div&gt;&lt;font face=&quot;Roboto Mono&quot;&gt;&amp;nbsp;[3]&lt;/font&gt;&lt;/div&gt;&lt;div&gt;&lt;font face=&quot;Roboto Mono&quot;&gt;&amp;nbsp;[3]&lt;/font&gt;&lt;/div&gt;&lt;div&gt;&lt;font face=&quot;Roboto Mono&quot;&gt;&amp;nbsp;[2]&lt;/font&gt;&lt;/div&gt;&lt;div&gt;&lt;font face=&quot;Roboto Mono&quot;&gt;&amp;nbsp;[3]&lt;/font&gt;&lt;/div&gt;&lt;div&gt;&lt;font face=&quot;Roboto Mono&quot;&gt;&amp;nbsp;[2]&lt;/font&gt;&lt;/div&gt;&lt;div&gt;&lt;font face=&quot;Roboto Mono&quot;&gt;&amp;nbsp;[2]&lt;/font&gt;&lt;/div&gt;&lt;div&gt;&lt;font face=&quot;Roboto Mono&quot;&gt;&amp;nbsp;[3]&lt;/font&gt;&lt;/div&gt;&lt;div&gt;&lt;font face=&quot;Roboto Mono&quot;&gt;&amp;nbsp;[1]]&lt;/font&gt;&lt;/div&gt;" style="text;html=1;align=left;verticalAlign=top;whiteSpace=wrap;rounded=0;spacingLeft=6;spacing=0;" parent="1" vertex="1">
          <mxGeometry x="430" y="240" width="60" height="170" as="geometry" />
        </mxCell>
        <mxCell id="pzxnhF5qK0eMf12bka1I-4" value="&lt;div style=&quot;font-size: 20px;&quot;&gt;&lt;font style=&quot;font-size: 20px;&quot; face=&quot;Roboto Mono&quot;&gt;=&lt;/font&gt;&lt;/div&gt;" style="text;html=1;align=left;verticalAlign=top;whiteSpace=wrap;rounded=0;spacingLeft=6;spacing=0;fontSize=20;" parent="1" vertex="1">
          <mxGeometry x="400" y="310" width="20" height="30" as="geometry" />
        </mxCell>
        <mxCell id="pzxnhF5qK0eMf12bka1I-5" value="&lt;font face=&quot;Roboto Mono&quot;&gt;\(\Vert\mathbf{x}_0 \Vert =\) 7.874&lt;/font&gt;" style="text;html=1;align=left;verticalAlign=top;whiteSpace=wrap;rounded=0;spacingLeft=6;spacing=0;" parent="1" vertex="1">
          <mxGeometry x="320" y="420" width="110" height="30" as="geometry" />
        </mxCell>
        <mxCell id="pzxnhF5qK0eMf12bka1I-6" value="\(\mathbf{x}_0\)" style="text;align=left;verticalAlign=top;rounded=0;spacingLeft=6;spacing=0;html=1;" parent="1" vertex="1">
          <mxGeometry x="340" y="200" width="30" height="30" as="geometry" />
        </mxCell>
        <mxCell id="pzxnhF5qK0eMf12bka1I-7" value="\(\mathbf{x}_1\)" style="text;align=left;verticalAlign=top;rounded=0;spacingLeft=6;spacing=0;html=1;" parent="1" vertex="1">
          <mxGeometry x="440" y="200" width="30" height="30" as="geometry" />
        </mxCell>
        <mxCell id="pzxnhF5qK0eMf12bka1I-8" value="\[\operatorname*{norm} (\mathbf{x})= \Vert \mathbf{x}\Vert = \sqrt{\sum_{i=1}^n x_i^2} \]" style="text;align=left;verticalAlign=top;rounded=0;spacingLeft=6;spacing=0;html=1;" parent="1" vertex="1">
          <mxGeometry x="440" width="180" height="80" as="geometry" />
        </mxCell>
        <mxCell id="pzxnhF5qK0eMf12bka1I-11" value="" style="endArrow=block;html=1;rounded=0;endFill=1;entryX=0.5;entryY=0;entryDx=0;entryDy=0;exitX=0.5;exitY=1;exitDx=0;exitDy=0;" parent="1" source="pzxnhF5qK0eMf12bka1I-12" target="pzxnhF5qK0eMf12bka1I-7" edge="1">
          <mxGeometry width="50" height="50" relative="1" as="geometry">
            <mxPoint x="490" y="220" as="sourcePoint" />
            <mxPoint x="450" y="212.5" as="targetPoint" />
          </mxGeometry>
        </mxCell>
        <mxCell id="pzxnhF5qK0eMf12bka1I-12" value="&lt;div&gt;&lt;font face=&quot;Roboto Mono&quot;&gt;Measuring the number of nodes connected to a node&lt;/font&gt;&lt;/div&gt;" style="text;html=1;align=left;verticalAlign=top;whiteSpace=wrap;rounded=0;spacingLeft=6;spacing=0;" parent="1" vertex="1">
          <mxGeometry x="320" y="100" width="150" height="50" as="geometry" />
        </mxCell>
        <mxCell id="pzxnhF5qK0eMf12bka1I-13" value="\(\mathbf{x}_1&#39;\)" style="text;align=left;verticalAlign=top;rounded=0;spacingLeft=6;spacing=0;html=1;" parent="1" vertex="1">
          <mxGeometry x="600" y="200" width="30" height="30" as="geometry" />
        </mxCell>
        <mxCell id="pzxnhF5qK0eMf12bka1I-14" value="&lt;div&gt;&lt;font face=&quot;Roboto Mono&quot;&gt;[[0.254]&lt;/font&gt;&lt;/div&gt;&lt;div&gt;&lt;font face=&quot;Roboto Mono&quot;&gt;&amp;nbsp;[0.381]&lt;/font&gt;&lt;/div&gt;&lt;div&gt;&lt;font face=&quot;Roboto Mono&quot;&gt;&amp;nbsp;[0.381]&lt;/font&gt;&lt;/div&gt;&lt;div&gt;&lt;font face=&quot;Roboto Mono&quot;&gt;&amp;nbsp;[0.381]&lt;/font&gt;&lt;/div&gt;&lt;div&gt;&lt;font face=&quot;Roboto Mono&quot;&gt;&amp;nbsp;[0.254]&lt;/font&gt;&lt;/div&gt;&lt;div&gt;&lt;font face=&quot;Roboto Mono&quot;&gt;&amp;nbsp;[0.381]&lt;/font&gt;&lt;/div&gt;&lt;div&gt;&lt;font face=&quot;Roboto Mono&quot;&gt;&amp;nbsp;[0.254]&lt;/font&gt;&lt;/div&gt;&lt;div&gt;&lt;font face=&quot;Roboto Mono&quot;&gt;&amp;nbsp;[0.254]&lt;/font&gt;&lt;/div&gt;&lt;div&gt;&lt;font face=&quot;Roboto Mono&quot;&gt;&amp;nbsp;[0.381]&lt;/font&gt;&lt;/div&gt;&lt;div&gt;&lt;font face=&quot;Roboto Mono&quot;&gt;&amp;nbsp;[0.127]]&lt;/font&gt;&lt;/div&gt;" style="text;html=1;align=left;verticalAlign=top;whiteSpace=wrap;rounded=0;spacingLeft=6;spacing=0;" parent="1" vertex="1">
          <mxGeometry x="580" y="240" width="80" height="170" as="geometry" />
        </mxCell>
        <mxCell id="pzxnhF5qK0eMf12bka1I-15" value="&lt;div&gt;&lt;font face=&quot;Roboto Mono&quot;&gt;Each degree in a node is normalized&lt;/font&gt;&lt;/div&gt;" style="text;html=1;align=left;verticalAlign=top;whiteSpace=wrap;rounded=0;spacingLeft=6;spacing=0;" parent="1" vertex="1">
          <mxGeometry x="535" y="100" width="150" height="50" as="geometry" />
        </mxCell>
        <mxCell id="pzxnhF5qK0eMf12bka1I-16" value="" style="endArrow=block;html=1;rounded=0;endFill=1;entryX=0.5;entryY=0;entryDx=0;entryDy=0;exitX=0.25;exitY=1;exitDx=0;exitDy=0;" parent="1" source="pzxnhF5qK0eMf12bka1I-15" target="pzxnhF5qK0eMf12bka1I-13" edge="1">
          <mxGeometry width="50" height="50" relative="1" as="geometry">
            <mxPoint x="405" y="160" as="sourcePoint" />
            <mxPoint x="445" y="210" as="targetPoint" />
          </mxGeometry>
        </mxCell>
        <mxCell id="pzxnhF5qK0eMf12bka1I-17" value="&lt;div&gt;&lt;font face=&quot;Roboto Mono&quot;&gt;[[0, 1, 1, 0, 0, 0, 0, 0, 0, 0],&lt;/font&gt;&lt;/div&gt;&lt;div&gt;&lt;font face=&quot;Roboto Mono&quot;&gt;&amp;nbsp;[1, 0, 1, 1, 0, 0, 0, 0, 0, 0],&lt;/font&gt;&lt;/div&gt;&lt;div&gt;&lt;font face=&quot;Roboto Mono&quot;&gt;&amp;nbsp;[1, 1, 0, 1, 0, 0, 0, 0, 0, 0],&lt;/font&gt;&lt;/div&gt;&lt;div&gt;&lt;font face=&quot;Roboto Mono&quot;&gt;&amp;nbsp;[0, 1, 1, 0, 1, 0, 0, 0, 0, 0],&lt;/font&gt;&lt;/div&gt;&lt;div&gt;&lt;font face=&quot;Roboto Mono&quot;&gt;&amp;nbsp;[0, 0, 0, 1, 0, 1, 0, 0, 0, 0],&lt;/font&gt;&lt;/div&gt;&lt;div&gt;&lt;font face=&quot;Roboto Mono&quot;&gt;&amp;nbsp;[0, 0, 0, 0, 1, 0, 1, 1, 0, 0],&lt;/font&gt;&lt;/div&gt;&lt;div&gt;&lt;font face=&quot;Roboto Mono&quot;&gt;&amp;nbsp;[0, 0, 0, 0, 0, 1, 0, 0, 1, 0],&lt;/font&gt;&lt;/div&gt;&lt;div&gt;&lt;font face=&quot;Roboto Mono&quot;&gt;&amp;nbsp;[0, 0, 0, 0, 0, 1, 0, 0, 1, 0],&lt;/font&gt;&lt;/div&gt;&lt;div&gt;&lt;font face=&quot;Roboto Mono&quot;&gt;&amp;nbsp;[0, 0, 0, 0, 0, 0, 1, 1, 0, 1],&lt;/font&gt;&lt;/div&gt;&lt;div&gt;&lt;font face=&quot;Roboto Mono&quot;&gt;&amp;nbsp;[0, 0, 0, 0, 0, 0, 0, 0, 1, 0]]&lt;/font&gt;&lt;/div&gt;" style="text;html=1;align=left;verticalAlign=top;whiteSpace=wrap;rounded=0;spacingLeft=6;spacing=0;" parent="1" vertex="1">
          <mxGeometry x="80" y="580" width="250" height="170" as="geometry" />
        </mxCell>
        <mxCell id="pzxnhF5qK0eMf12bka1I-18" value="&lt;div&gt;&lt;font face=&quot;Roboto Mono&quot;&gt;[[0.254]&lt;/font&gt;&lt;/div&gt;&lt;div&gt;&lt;font face=&quot;Roboto Mono&quot;&gt;&amp;nbsp;[0.381]&lt;/font&gt;&lt;/div&gt;&lt;div&gt;&lt;font face=&quot;Roboto Mono&quot;&gt;&amp;nbsp;[0.381]&lt;/font&gt;&lt;/div&gt;&lt;div&gt;&lt;font face=&quot;Roboto Mono&quot;&gt;&amp;nbsp;[0.381]&lt;/font&gt;&lt;/div&gt;&lt;div&gt;&lt;font face=&quot;Roboto Mono&quot;&gt;&amp;nbsp;[0.254]&lt;/font&gt;&lt;/div&gt;&lt;div&gt;&lt;font face=&quot;Roboto Mono&quot;&gt;&amp;nbsp;[0.381]&lt;/font&gt;&lt;/div&gt;&lt;div&gt;&lt;font face=&quot;Roboto Mono&quot;&gt;&amp;nbsp;[0.254]&lt;/font&gt;&lt;/div&gt;&lt;div&gt;&lt;font face=&quot;Roboto Mono&quot;&gt;&amp;nbsp;[0.254]&lt;/font&gt;&lt;/div&gt;&lt;div&gt;&lt;font face=&quot;Roboto Mono&quot;&gt;&amp;nbsp;[0.381]&lt;/font&gt;&lt;/div&gt;&lt;div&gt;&lt;font face=&quot;Roboto Mono&quot;&gt;&amp;nbsp;[0.127]]&lt;/font&gt;&lt;/div&gt;" style="text;html=1;align=left;verticalAlign=top;whiteSpace=wrap;rounded=0;spacingLeft=6;spacing=0;" parent="1" vertex="1">
          <mxGeometry x="330" y="580" width="60" height="170" as="geometry" />
        </mxCell>
        <mxCell id="pzxnhF5qK0eMf12bka1I-19" value="&lt;div&gt;&lt;font style=&quot;font-size: 20px;&quot; face=&quot;Roboto Mono&quot;&gt;=&lt;/font&gt;&lt;/div&gt;" style="text;html=1;align=left;verticalAlign=top;whiteSpace=wrap;rounded=0;spacingLeft=6;spacing=0;" parent="1" vertex="1">
          <mxGeometry x="404" y="640" width="20" height="30" as="geometry" />
        </mxCell>
        <mxCell id="pzxnhF5qK0eMf12bka1I-20" value="&lt;div style=&quot;font-size: 20px;&quot;&gt;&lt;font style=&quot;font-size: 20px;&quot; face=&quot;Roboto Mono&quot;&gt;=&lt;/font&gt;&lt;/div&gt;" style="text;html=1;align=left;verticalAlign=top;whiteSpace=wrap;rounded=0;spacingLeft=6;spacing=0;fontSize=20;" parent="1" vertex="1">
          <mxGeometry x="480" y="310" width="20" height="30" as="geometry" />
        </mxCell>
        <mxCell id="pzxnhF5qK0eMf12bka1I-21" value="&lt;font style=&quot;font-size: 12px;&quot; face=&quot;Roboto Mono&quot;&gt;7.874 \(\times\)&lt;/font&gt;" style="text;html=1;align=left;verticalAlign=top;whiteSpace=wrap;rounded=0;spacingLeft=6;spacing=0;fontSize=12;" parent="1" vertex="1">
          <mxGeometry x="505" y="310" width="65" height="30" as="geometry" />
        </mxCell>
        <mxCell id="pzxnhF5qK0eMf12bka1I-22" value="\(\mathbf{x}_1&#39;\)" style="text;align=left;verticalAlign=top;rounded=0;spacingLeft=6;spacing=0;html=1;" parent="1" vertex="1">
          <mxGeometry x="340" y="550" width="30" height="30" as="geometry" />
        </mxCell>
        <mxCell id="pzxnhF5qK0eMf12bka1I-23" value="&lt;div&gt;&lt;font face=&quot;Roboto Mono&quot;&gt;[[0.762]&lt;/font&gt;&lt;/div&gt;&lt;div&gt;&lt;font face=&quot;Roboto Mono&quot;&gt;&amp;nbsp;[1.016]&lt;/font&gt;&lt;/div&gt;&lt;div&gt;&lt;font face=&quot;Roboto Mono&quot;&gt;&amp;nbsp;[1.016]&lt;/font&gt;&lt;/div&gt;&lt;div&gt;&lt;font face=&quot;Roboto Mono&quot;&gt;&amp;nbsp;[1.016]&lt;/font&gt;&lt;/div&gt;&lt;div&gt;&lt;font face=&quot;Roboto Mono&quot;&gt;&amp;nbsp;[0.762]&lt;/font&gt;&lt;/div&gt;&lt;div&gt;&lt;font face=&quot;Roboto Mono&quot;&gt;&amp;nbsp;[0.762]&lt;/font&gt;&lt;/div&gt;&lt;div&gt;&lt;font face=&quot;Roboto Mono&quot;&gt;&amp;nbsp;[0.762]&lt;/font&gt;&lt;/div&gt;&lt;div&gt;&lt;font face=&quot;Roboto Mono&quot;&gt;&amp;nbsp;[0.762]&lt;/font&gt;&lt;/div&gt;&lt;div&gt;&lt;font face=&quot;Roboto Mono&quot;&gt;&amp;nbsp;[0.635]&lt;/font&gt;&lt;/div&gt;&lt;div&gt;&lt;font face=&quot;Roboto Mono&quot;&gt;&amp;nbsp;[0.381]]&lt;/font&gt;&lt;/div&gt;" style="text;html=1;align=left;verticalAlign=top;whiteSpace=wrap;rounded=0;spacingLeft=6;spacing=0;" parent="1" vertex="1">
          <mxGeometry x="440" y="580" width="60" height="170" as="geometry" />
        </mxCell>
        <mxCell id="pzxnhF5qK0eMf12bka1I-24" value="&lt;div&gt;&lt;font style=&quot;font-size: 20px;&quot; face=&quot;Roboto Mono&quot;&gt;=&lt;/font&gt;&lt;/div&gt;" style="text;html=1;align=left;verticalAlign=top;whiteSpace=wrap;rounded=0;spacingLeft=6;spacing=0;" parent="1" vertex="1">
          <mxGeometry x="520" y="640" width="20" height="30" as="geometry" />
        </mxCell>
        <mxCell id="pzxnhF5qK0eMf12bka1I-25" value="\(\mathbf{x}_2\)" style="text;align=left;verticalAlign=top;rounded=0;spacingLeft=6;spacing=0;html=1;" parent="1" vertex="1">
          <mxGeometry x="460" y="550" width="30" height="30" as="geometry" />
        </mxCell>
        <mxCell id="pzxnhF5qK0eMf12bka1I-26" value="&lt;font face=&quot;Roboto Mono&quot;&gt;\(\Vert\mathbf{x}_0 \Vert =\) 2.559&lt;/font&gt;" style="text;html=1;align=left;verticalAlign=top;whiteSpace=wrap;rounded=0;spacingLeft=6;spacing=0;" parent="1" vertex="1">
          <mxGeometry x="320" y="750" width="110" height="30" as="geometry" />
        </mxCell>
        <mxCell id="pzxnhF5qK0eMf12bka1I-27" value="\(\mathbf{x}_2&#39;\)" style="text;align=left;verticalAlign=top;rounded=0;spacingLeft=6;spacing=0;html=1;" parent="1" vertex="1">
          <mxGeometry x="620" y="550" width="30" height="30" as="geometry" />
        </mxCell>
        <mxCell id="pzxnhF5qK0eMf12bka1I-28" value="&lt;font style=&quot;font-size: 12px;&quot; face=&quot;Roboto Mono&quot;&gt;2.559 \(\times\)&lt;/font&gt;" style="text;html=1;align=left;verticalAlign=top;whiteSpace=wrap;rounded=0;spacingLeft=6;spacing=0;fontSize=12;" parent="1" vertex="1">
          <mxGeometry x="550" y="640" width="65" height="30" as="geometry" />
        </mxCell>
        <mxCell id="pzxnhF5qK0eMf12bka1I-29" value="&lt;div&gt;&lt;font face=&quot;Roboto Mono&quot;&gt;This quantity in each element captures &quot;how good&quot; is the connected nodes to the given node.&lt;/font&gt;&lt;/div&gt;" style="text;html=1;align=left;verticalAlign=top;whiteSpace=wrap;rounded=0;spacingLeft=6;spacing=0;" parent="1" vertex="1">
          <mxGeometry x="440" y="470" width="240" height="70" as="geometry" />
        </mxCell>
        <mxCell id="pzxnhF5qK0eMf12bka1I-30" value="" style="endArrow=block;html=1;rounded=0;endFill=1;entryX=0.5;entryY=0;entryDx=0;entryDy=0;exitX=0.75;exitY=1;exitDx=0;exitDy=0;" parent="1" source="pzxnhF5qK0eMf12bka1I-31" edge="1">
          <mxGeometry width="50" height="50" relative="1" as="geometry">
            <mxPoint x="310" y="520" as="sourcePoint" />
            <mxPoint x="340" y="550" as="targetPoint" />
          </mxGeometry>
        </mxCell>
        <mxCell id="pzxnhF5qK0eMf12bka1I-31" value="&lt;div&gt;&lt;font face=&quot;Roboto Mono&quot;&gt;This matrix will be a weight for our calculation of degree centrality. This measures how strong (how many connection that&amp;nbsp; the neighborhood nodes have) is the connected node&amp;nbsp;&lt;/font&gt;&lt;/div&gt;" style="text;html=1;align=left;verticalAlign=top;whiteSpace=wrap;rounded=0;spacingLeft=6;spacing=0;" parent="1" vertex="1">
          <mxGeometry x="40" y="450" width="280" height="90" as="geometry" />
        </mxCell>
        <mxCell id="pzxnhF5qK0eMf12bka1I-32" value="&lt;div&gt;&lt;font face=&quot;Roboto Mono&quot;&gt;[[0.298]&lt;/font&gt;&lt;/div&gt;&lt;div&gt;&lt;font face=&quot;Roboto Mono&quot;&gt;&amp;nbsp;[0.397]&lt;/font&gt;&lt;/div&gt;&lt;div&gt;&lt;font face=&quot;Roboto Mono&quot;&gt;&amp;nbsp;[0.397]&lt;/font&gt;&lt;/div&gt;&lt;div&gt;&lt;font face=&quot;Roboto Mono&quot;&gt;&amp;nbsp;[0.397]&lt;/font&gt;&lt;/div&gt;&lt;div&gt;&lt;font face=&quot;Roboto Mono&quot;&gt;&amp;nbsp;[0.298]&lt;/font&gt;&lt;/div&gt;&lt;div&gt;&lt;font face=&quot;Roboto Mono&quot;&gt;&amp;nbsp;[0.298]&lt;/font&gt;&lt;/div&gt;&lt;div&gt;&lt;font face=&quot;Roboto Mono&quot;&gt;&amp;nbsp;[0.298]&lt;/font&gt;&lt;/div&gt;&lt;div&gt;&lt;font face=&quot;Roboto Mono&quot;&gt;&amp;nbsp;[0.298]&lt;/font&gt;&lt;/div&gt;&lt;div&gt;&lt;font face=&quot;Roboto Mono&quot;&gt;&amp;nbsp;[0.248]&lt;/font&gt;&lt;/div&gt;&lt;div&gt;&lt;font face=&quot;Roboto Mono&quot;&gt;&amp;nbsp;[0.149]]&lt;/font&gt;&lt;/div&gt;" style="text;html=1;align=left;verticalAlign=top;whiteSpace=wrap;rounded=0;spacingLeft=6;spacing=0;" parent="1" vertex="1">
          <mxGeometry x="605" y="580" width="105" height="170" as="geometry" />
        </mxCell>
        <mxCell id="pzxnhF5qK0eMf12bka1I-69" style="edgeStyle=none;rounded=0;orthogonalLoop=1;jettySize=auto;html=1;exitX=1;exitY=0;exitDx=0;exitDy=0;entryX=0;entryY=0.5;entryDx=0;entryDy=0;strokeColor=default;align=center;verticalAlign=middle;fontFamily=Helvetica;fontSize=11;fontColor=default;labelBackgroundColor=default;endArrow=none;endFill=0;" parent="1" source="pzxnhF5qK0eMf12bka1I-34" target="pzxnhF5qK0eMf12bka1I-35" edge="1">
          <mxGeometry relative="1" as="geometry" />
        </mxCell>
        <mxCell id="pzxnhF5qK0eMf12bka1I-70" style="edgeStyle=none;rounded=0;orthogonalLoop=1;jettySize=auto;html=1;exitX=1;exitY=1;exitDx=0;exitDy=0;entryX=0;entryY=0.5;entryDx=0;entryDy=0;strokeColor=default;align=center;verticalAlign=middle;fontFamily=Helvetica;fontSize=11;fontColor=default;labelBackgroundColor=default;endArrow=none;endFill=0;" parent="1" source="pzxnhF5qK0eMf12bka1I-34" target="pzxnhF5qK0eMf12bka1I-40" edge="1">
          <mxGeometry relative="1" as="geometry" />
        </mxCell>
        <mxCell id="pzxnhF5qK0eMf12bka1I-34" value="&lt;b style=&quot;font-size: 12px;&quot;&gt;&lt;font style=&quot;font-size: 12px;&quot;&gt;0&lt;/font&gt;&lt;/b&gt;" style="ellipse;whiteSpace=wrap;html=1;aspect=fixed;fontFamily=Helvetica;fontSize=12;fontColor=default;labelBackgroundColor=default;" parent="1" vertex="1">
          <mxGeometry x="800" y="580" width="20" height="20" as="geometry" />
        </mxCell>
        <mxCell id="pzxnhF5qK0eMf12bka1I-63" style="edgeStyle=none;rounded=0;orthogonalLoop=1;jettySize=auto;html=1;exitX=1;exitY=0;exitDx=0;exitDy=0;entryX=0;entryY=0.5;entryDx=0;entryDy=0;strokeColor=default;align=center;verticalAlign=middle;fontFamily=Helvetica;fontSize=11;fontColor=default;labelBackgroundColor=default;endArrow=none;endFill=0;" parent="1" source="pzxnhF5qK0eMf12bka1I-35" target="pzxnhF5qK0eMf12bka1I-36" edge="1">
          <mxGeometry relative="1" as="geometry" />
        </mxCell>
        <mxCell id="pzxnhF5qK0eMf12bka1I-64" style="edgeStyle=none;rounded=0;orthogonalLoop=1;jettySize=auto;html=1;exitX=1;exitY=0.5;exitDx=0;exitDy=0;entryX=0;entryY=0.5;entryDx=0;entryDy=0;strokeColor=default;align=center;verticalAlign=middle;fontFamily=Helvetica;fontSize=11;fontColor=default;labelBackgroundColor=default;endArrow=none;endFill=0;" parent="1" source="pzxnhF5qK0eMf12bka1I-35" target="pzxnhF5qK0eMf12bka1I-37" edge="1">
          <mxGeometry relative="1" as="geometry" />
        </mxCell>
        <mxCell id="pzxnhF5qK0eMf12bka1I-65" style="edgeStyle=none;rounded=0;orthogonalLoop=1;jettySize=auto;html=1;exitX=1;exitY=1;exitDx=0;exitDy=0;entryX=0;entryY=0.5;entryDx=0;entryDy=0;strokeColor=default;align=center;verticalAlign=middle;fontFamily=Helvetica;fontSize=11;fontColor=default;labelBackgroundColor=default;endArrow=none;endFill=0;" parent="1" source="pzxnhF5qK0eMf12bka1I-35" target="pzxnhF5qK0eMf12bka1I-38" edge="1">
          <mxGeometry relative="1" as="geometry" />
        </mxCell>
        <mxCell id="pzxnhF5qK0eMf12bka1I-35" value="&lt;b style=&quot;font-size: 12px;&quot;&gt;&lt;font style=&quot;font-size: 12px;&quot;&gt;2&lt;/font&gt;&lt;/b&gt;" style="ellipse;whiteSpace=wrap;html=1;aspect=fixed;fontFamily=Helvetica;fontSize=12;fontColor=default;labelBackgroundColor=default;" parent="1" vertex="1">
          <mxGeometry x="860" y="530" width="20" height="20" as="geometry" />
        </mxCell>
        <mxCell id="pzxnhF5qK0eMf12bka1I-36" value="&lt;b style=&quot;font-size: 12px;&quot;&gt;&lt;font style=&quot;font-size: 12px;&quot;&gt;0&lt;/font&gt;&lt;/b&gt;" style="ellipse;whiteSpace=wrap;html=1;aspect=fixed;fontFamily=Helvetica;fontSize=12;fontColor=default;labelBackgroundColor=default;" parent="1" vertex="1">
          <mxGeometry x="920" y="500" width="20" height="20" as="geometry" />
        </mxCell>
        <mxCell id="pzxnhF5qK0eMf12bka1I-37" value="&lt;b style=&quot;font-size: 12px;&quot;&gt;&lt;font style=&quot;font-size: 12px;&quot;&gt;1&lt;/font&gt;&lt;/b&gt;" style="ellipse;whiteSpace=wrap;html=1;aspect=fixed;fontFamily=Helvetica;fontSize=12;fontColor=default;labelBackgroundColor=default;" parent="1" vertex="1">
          <mxGeometry x="920" y="530" width="20" height="20" as="geometry" />
        </mxCell>
        <mxCell id="pzxnhF5qK0eMf12bka1I-38" value="&lt;b style=&quot;font-size: 12px;&quot;&gt;&lt;font style=&quot;font-size: 12px;&quot;&gt;3&lt;/font&gt;&lt;/b&gt;" style="ellipse;whiteSpace=wrap;html=1;aspect=fixed;fontFamily=Helvetica;fontSize=12;fontColor=default;labelBackgroundColor=default;" parent="1" vertex="1">
          <mxGeometry x="920" y="560" width="20" height="20" as="geometry" />
        </mxCell>
        <mxCell id="pzxnhF5qK0eMf12bka1I-66" style="edgeStyle=none;rounded=0;orthogonalLoop=1;jettySize=auto;html=1;exitX=1;exitY=0;exitDx=0;exitDy=0;entryX=0;entryY=0.5;entryDx=0;entryDy=0;strokeColor=default;align=center;verticalAlign=middle;fontFamily=Helvetica;fontSize=11;fontColor=default;labelBackgroundColor=default;endArrow=none;endFill=0;" parent="1" source="pzxnhF5qK0eMf12bka1I-40" target="pzxnhF5qK0eMf12bka1I-41" edge="1">
          <mxGeometry relative="1" as="geometry" />
        </mxCell>
        <mxCell id="pzxnhF5qK0eMf12bka1I-67" style="edgeStyle=none;rounded=0;orthogonalLoop=1;jettySize=auto;html=1;exitX=1;exitY=0.5;exitDx=0;exitDy=0;entryX=0;entryY=0.5;entryDx=0;entryDy=0;strokeColor=default;align=center;verticalAlign=middle;fontFamily=Helvetica;fontSize=11;fontColor=default;labelBackgroundColor=default;endArrow=none;endFill=0;startArrow=none;startFill=0;" parent="1" source="pzxnhF5qK0eMf12bka1I-40" target="pzxnhF5qK0eMf12bka1I-42" edge="1">
          <mxGeometry relative="1" as="geometry" />
        </mxCell>
        <mxCell id="pzxnhF5qK0eMf12bka1I-68" style="edgeStyle=none;rounded=0;orthogonalLoop=1;jettySize=auto;html=1;exitX=1;exitY=1;exitDx=0;exitDy=0;entryX=0;entryY=0.5;entryDx=0;entryDy=0;strokeColor=default;align=center;verticalAlign=middle;fontFamily=Helvetica;fontSize=11;fontColor=default;labelBackgroundColor=default;endArrow=none;endFill=0;" parent="1" source="pzxnhF5qK0eMf12bka1I-40" target="pzxnhF5qK0eMf12bka1I-43" edge="1">
          <mxGeometry relative="1" as="geometry" />
        </mxCell>
        <mxCell id="pzxnhF5qK0eMf12bka1I-40" value="&lt;b style=&quot;font-size: 12px;&quot;&gt;&lt;font style=&quot;font-size: 12px;&quot;&gt;1&lt;/font&gt;&lt;/b&gt;" style="ellipse;whiteSpace=wrap;html=1;aspect=fixed;fontFamily=Helvetica;fontSize=12;fontColor=default;labelBackgroundColor=default;" parent="1" vertex="1">
          <mxGeometry x="860" y="630" width="20" height="20" as="geometry" />
        </mxCell>
        <mxCell id="pzxnhF5qK0eMf12bka1I-41" value="&lt;b style=&quot;font-size: 12px;&quot;&gt;&lt;font style=&quot;font-size: 12px;&quot;&gt;0&lt;/font&gt;&lt;/b&gt;" style="ellipse;whiteSpace=wrap;html=1;aspect=fixed;fontFamily=Helvetica;fontSize=12;fontColor=default;labelBackgroundColor=default;" parent="1" vertex="1">
          <mxGeometry x="920" y="600" width="20" height="20" as="geometry" />
        </mxCell>
        <mxCell id="pzxnhF5qK0eMf12bka1I-42" value="&lt;b style=&quot;font-size: 12px;&quot;&gt;&lt;font style=&quot;font-size: 12px;&quot;&gt;2&lt;/font&gt;&lt;/b&gt;" style="ellipse;whiteSpace=wrap;html=1;aspect=fixed;fontFamily=Helvetica;fontSize=12;fontColor=default;labelBackgroundColor=default;" parent="1" vertex="1">
          <mxGeometry x="920" y="630" width="20" height="20" as="geometry" />
        </mxCell>
        <mxCell id="pzxnhF5qK0eMf12bka1I-43" value="&lt;b style=&quot;font-size: 12px;&quot;&gt;&lt;font style=&quot;font-size: 12px;&quot;&gt;3&lt;/font&gt;&lt;/b&gt;" style="ellipse;whiteSpace=wrap;html=1;aspect=fixed;fontFamily=Helvetica;fontSize=12;fontColor=default;labelBackgroundColor=default;" parent="1" vertex="1">
          <mxGeometry x="920" y="660" width="20" height="20" as="geometry" />
        </mxCell>
        <mxCell id="pzxnhF5qK0eMf12bka1I-44" value="&lt;font style=&quot;font-size: 8px;&quot; face=&quot;Roboto Mono&quot;&gt;3 (0.381)&lt;/font&gt;" style="text;html=1;align=left;verticalAlign=top;whiteSpace=wrap;rounded=0;spacingLeft=6;spacing=0;spacingTop=-6;" parent="1" vertex="1">
          <mxGeometry x="845" y="510" width="50" height="20" as="geometry" />
        </mxCell>
        <mxCell id="pzxnhF5qK0eMf12bka1I-46" value="&lt;font style=&quot;font-size: 8px;&quot; face=&quot;Roboto Mono&quot;&gt;3 (0.381)&lt;/font&gt;" style="text;html=1;align=left;verticalAlign=top;whiteSpace=wrap;rounded=0;spacingLeft=6;spacing=0;spacingTop=-6;" parent="1" vertex="1">
          <mxGeometry x="845" y="610" width="50" height="20" as="geometry" />
        </mxCell>
        <mxCell id="pzxnhF5qK0eMf12bka1I-58" value="&lt;b style=&quot;font-size: 12px;&quot;&gt;&lt;font style=&quot;font-size: 12px;&quot;&gt;2&lt;/font&gt;&lt;/b&gt;" style="ellipse;whiteSpace=wrap;html=1;aspect=fixed;fontFamily=Helvetica;fontSize=12;fontColor=default;labelBackgroundColor=default;" parent="1" vertex="1">
          <mxGeometry x="990" y="730" width="20" height="20" as="geometry" />
        </mxCell>
        <mxCell id="pzxnhF5qK0eMf12bka1I-59" value="&lt;b style=&quot;font-size: 12px;&quot;&gt;&lt;font style=&quot;font-size: 12px;&quot;&gt;1&lt;/font&gt;&lt;/b&gt;" style="ellipse;whiteSpace=wrap;html=1;aspect=fixed;fontFamily=Helvetica;fontSize=12;fontColor=default;labelBackgroundColor=default;" parent="1" vertex="1">
          <mxGeometry x="990" y="770" width="20" height="20" as="geometry" />
        </mxCell>
        <mxCell id="pzxnhF5qK0eMf12bka1I-60" value="&lt;b style=&quot;font-size: 12px;&quot;&gt;&lt;font style=&quot;font-size: 12px;&quot;&gt;0&lt;/font&gt;&lt;/b&gt;" style="ellipse;whiteSpace=wrap;html=1;aspect=fixed;fontFamily=Helvetica;fontSize=12;fontColor=default;labelBackgroundColor=default;" parent="1" vertex="1">
          <mxGeometry x="990" y="820" width="20" height="20" as="geometry" />
        </mxCell>
        <mxCell id="pzxnhF5qK0eMf12bka1I-61" value="&lt;b style=&quot;font-size: 12px;&quot;&gt;&lt;font style=&quot;font-size: 12px;&quot;&gt;2&lt;/font&gt;&lt;/b&gt;" style="ellipse;whiteSpace=wrap;html=1;aspect=fixed;fontFamily=Helvetica;fontSize=12;fontColor=default;labelBackgroundColor=default;" parent="1" vertex="1">
          <mxGeometry x="990" y="850" width="20" height="20" as="geometry" />
        </mxCell>
        <mxCell id="pzxnhF5qK0eMf12bka1I-62" value="&lt;b style=&quot;font-size: 12px;&quot;&gt;&lt;font style=&quot;font-size: 12px;&quot;&gt;3&lt;/font&gt;&lt;/b&gt;" style="ellipse;whiteSpace=wrap;html=1;aspect=fixed;fontFamily=Helvetica;fontSize=12;fontColor=default;labelBackgroundColor=default;" parent="1" vertex="1">
          <mxGeometry x="990" y="880" width="20" height="20" as="geometry" />
        </mxCell>
        <mxCell id="pzxnhF5qK0eMf12bka1I-72" style="edgeStyle=none;rounded=0;orthogonalLoop=1;jettySize=auto;html=1;exitX=1;exitY=0;exitDx=0;exitDy=0;entryX=0;entryY=0.5;entryDx=0;entryDy=0;strokeColor=default;align=center;verticalAlign=middle;fontFamily=Helvetica;fontSize=11;fontColor=default;labelBackgroundColor=default;endArrow=none;endFill=0;" parent="1" source="pzxnhF5qK0eMf12bka1I-74" target="pzxnhF5qK0eMf12bka1I-78" edge="1">
          <mxGeometry relative="1" as="geometry" />
        </mxCell>
        <mxCell id="pzxnhF5qK0eMf12bka1I-73" style="edgeStyle=none;rounded=0;orthogonalLoop=1;jettySize=auto;html=1;exitX=1;exitY=1;exitDx=0;exitDy=0;entryX=0;entryY=0.5;entryDx=0;entryDy=0;strokeColor=default;align=center;verticalAlign=middle;fontFamily=Helvetica;fontSize=11;fontColor=default;labelBackgroundColor=default;endArrow=none;endFill=0;" parent="1" source="pzxnhF5qK0eMf12bka1I-74" target="pzxnhF5qK0eMf12bka1I-85" edge="1">
          <mxGeometry relative="1" as="geometry" />
        </mxCell>
        <mxCell id="pzxnhF5qK0eMf12bka1I-74" value="&lt;b style=&quot;font-size: 12px;&quot;&gt;&lt;font style=&quot;font-size: 12px;&quot;&gt;0&lt;/font&gt;&lt;/b&gt;" style="ellipse;whiteSpace=wrap;html=1;aspect=fixed;fontFamily=Helvetica;fontSize=12;fontColor=default;labelBackgroundColor=default;" parent="1" vertex="1">
          <mxGeometry x="800" y="1030" width="20" height="20" as="geometry" />
        </mxCell>
        <mxCell id="pzxnhF5qK0eMf12bka1I-75" style="edgeStyle=none;rounded=0;orthogonalLoop=1;jettySize=auto;html=1;exitX=1;exitY=0;exitDx=0;exitDy=0;entryX=0;entryY=0.5;entryDx=0;entryDy=0;strokeColor=default;align=center;verticalAlign=middle;fontFamily=Helvetica;fontSize=11;fontColor=default;labelBackgroundColor=default;endArrow=none;endFill=0;" parent="1" source="pzxnhF5qK0eMf12bka1I-78" target="pzxnhF5qK0eMf12bka1I-79" edge="1">
          <mxGeometry relative="1" as="geometry" />
        </mxCell>
        <mxCell id="pzxnhF5qK0eMf12bka1I-76" style="edgeStyle=none;rounded=0;orthogonalLoop=1;jettySize=auto;html=1;exitX=1;exitY=0.5;exitDx=0;exitDy=0;entryX=0;entryY=0.5;entryDx=0;entryDy=0;strokeColor=default;align=center;verticalAlign=middle;fontFamily=Helvetica;fontSize=11;fontColor=default;labelBackgroundColor=default;endArrow=none;endFill=0;" parent="1" source="pzxnhF5qK0eMf12bka1I-78" target="pzxnhF5qK0eMf12bka1I-80" edge="1">
          <mxGeometry relative="1" as="geometry" />
        </mxCell>
        <mxCell id="pzxnhF5qK0eMf12bka1I-77" style="edgeStyle=none;rounded=0;orthogonalLoop=1;jettySize=auto;html=1;exitX=1;exitY=1;exitDx=0;exitDy=0;entryX=0;entryY=0.5;entryDx=0;entryDy=0;strokeColor=default;align=center;verticalAlign=middle;fontFamily=Helvetica;fontSize=11;fontColor=default;labelBackgroundColor=default;endArrow=none;endFill=0;" parent="1" source="pzxnhF5qK0eMf12bka1I-78" target="pzxnhF5qK0eMf12bka1I-81" edge="1">
          <mxGeometry relative="1" as="geometry" />
        </mxCell>
        <mxCell id="pzxnhF5qK0eMf12bka1I-78" value="&lt;b style=&quot;font-size: 12px;&quot;&gt;&lt;font style=&quot;font-size: 12px;&quot;&gt;2&lt;/font&gt;&lt;/b&gt;" style="ellipse;whiteSpace=wrap;html=1;aspect=fixed;fontFamily=Helvetica;fontSize=12;fontColor=default;labelBackgroundColor=default;" parent="1" vertex="1">
          <mxGeometry x="860" y="850" width="20" height="20" as="geometry" />
        </mxCell>
        <mxCell id="pzxnhF5qK0eMf12bka1I-94" style="edgeStyle=none;rounded=0;orthogonalLoop=1;jettySize=auto;html=1;exitX=1;exitY=0;exitDx=0;exitDy=0;entryX=0;entryY=0.5;entryDx=0;entryDy=0;strokeColor=default;align=center;verticalAlign=middle;fontFamily=Helvetica;fontSize=11;fontColor=default;labelBackgroundColor=default;endArrow=none;endFill=0;" parent="1" source="pzxnhF5qK0eMf12bka1I-79" target="pzxnhF5qK0eMf12bka1I-58" edge="1">
          <mxGeometry relative="1" as="geometry" />
        </mxCell>
        <mxCell id="pzxnhF5qK0eMf12bka1I-95" style="edgeStyle=none;rounded=0;orthogonalLoop=1;jettySize=auto;html=1;exitX=1;exitY=1;exitDx=0;exitDy=0;entryX=0;entryY=0.5;entryDx=0;entryDy=0;strokeColor=default;align=center;verticalAlign=middle;fontFamily=Helvetica;fontSize=11;fontColor=default;labelBackgroundColor=default;endArrow=none;endFill=0;" parent="1" source="pzxnhF5qK0eMf12bka1I-79" target="pzxnhF5qK0eMf12bka1I-59" edge="1">
          <mxGeometry relative="1" as="geometry" />
        </mxCell>
        <mxCell id="pzxnhF5qK0eMf12bka1I-79" value="&lt;b style=&quot;font-size: 12px;&quot;&gt;&lt;font style=&quot;font-size: 12px;&quot;&gt;0&lt;/font&gt;&lt;/b&gt;" style="ellipse;whiteSpace=wrap;html=1;aspect=fixed;fontFamily=Helvetica;fontSize=12;fontColor=default;labelBackgroundColor=default;" parent="1" vertex="1">
          <mxGeometry x="920" y="750" width="20" height="20" as="geometry" />
        </mxCell>
        <mxCell id="pzxnhF5qK0eMf12bka1I-91" style="edgeStyle=none;rounded=0;orthogonalLoop=1;jettySize=auto;html=1;exitX=1;exitY=0;exitDx=0;exitDy=0;entryX=0;entryY=0.5;entryDx=0;entryDy=0;strokeColor=default;align=center;verticalAlign=middle;fontFamily=Helvetica;fontSize=11;fontColor=default;labelBackgroundColor=default;endArrow=none;endFill=0;" parent="1" source="pzxnhF5qK0eMf12bka1I-80" target="pzxnhF5qK0eMf12bka1I-60" edge="1">
          <mxGeometry relative="1" as="geometry" />
        </mxCell>
        <mxCell id="pzxnhF5qK0eMf12bka1I-92" style="edgeStyle=none;rounded=0;orthogonalLoop=1;jettySize=auto;html=1;exitX=1;exitY=0.5;exitDx=0;exitDy=0;entryX=0;entryY=0.5;entryDx=0;entryDy=0;strokeColor=default;align=center;verticalAlign=middle;fontFamily=Helvetica;fontSize=11;fontColor=default;labelBackgroundColor=default;endArrow=none;endFill=0;" parent="1" source="pzxnhF5qK0eMf12bka1I-80" target="pzxnhF5qK0eMf12bka1I-61" edge="1">
          <mxGeometry relative="1" as="geometry" />
        </mxCell>
        <mxCell id="pzxnhF5qK0eMf12bka1I-93" style="edgeStyle=none;rounded=0;orthogonalLoop=1;jettySize=auto;html=1;exitX=1;exitY=1;exitDx=0;exitDy=0;entryX=0;entryY=0.5;entryDx=0;entryDy=0;strokeColor=default;align=center;verticalAlign=middle;fontFamily=Helvetica;fontSize=11;fontColor=default;labelBackgroundColor=default;endArrow=none;endFill=0;" parent="1" source="pzxnhF5qK0eMf12bka1I-80" target="pzxnhF5qK0eMf12bka1I-62" edge="1">
          <mxGeometry relative="1" as="geometry" />
        </mxCell>
        <mxCell id="pzxnhF5qK0eMf12bka1I-80" value="&lt;b style=&quot;font-size: 12px;&quot;&gt;&lt;font style=&quot;font-size: 12px;&quot;&gt;1&lt;/font&gt;&lt;/b&gt;" style="ellipse;whiteSpace=wrap;html=1;aspect=fixed;fontFamily=Helvetica;fontSize=12;fontColor=default;labelBackgroundColor=default;" parent="1" vertex="1">
          <mxGeometry x="920" y="850" width="20" height="20" as="geometry" />
        </mxCell>
        <mxCell id="pzxnhF5qK0eMf12bka1I-99" style="edgeStyle=none;rounded=0;orthogonalLoop=1;jettySize=auto;html=1;exitX=1;exitY=0;exitDx=0;exitDy=0;entryX=0;entryY=0.5;entryDx=0;entryDy=0;strokeColor=default;align=center;verticalAlign=middle;fontFamily=Helvetica;fontSize=11;fontColor=default;labelBackgroundColor=default;endArrow=none;endFill=0;" parent="1" source="pzxnhF5qK0eMf12bka1I-81" target="pzxnhF5qK0eMf12bka1I-96" edge="1">
          <mxGeometry relative="1" as="geometry" />
        </mxCell>
        <mxCell id="pzxnhF5qK0eMf12bka1I-100" style="edgeStyle=none;rounded=0;orthogonalLoop=1;jettySize=auto;html=1;exitX=1;exitY=0.5;exitDx=0;exitDy=0;entryX=0;entryY=0.5;entryDx=0;entryDy=0;strokeColor=default;align=center;verticalAlign=middle;fontFamily=Helvetica;fontSize=11;fontColor=default;labelBackgroundColor=default;endArrow=none;endFill=0;" parent="1" source="pzxnhF5qK0eMf12bka1I-81" target="pzxnhF5qK0eMf12bka1I-97" edge="1">
          <mxGeometry relative="1" as="geometry" />
        </mxCell>
        <mxCell id="pzxnhF5qK0eMf12bka1I-101" style="edgeStyle=none;rounded=0;orthogonalLoop=1;jettySize=auto;html=1;exitX=1;exitY=1;exitDx=0;exitDy=0;entryX=0;entryY=0.5;entryDx=0;entryDy=0;strokeColor=default;align=center;verticalAlign=middle;fontFamily=Helvetica;fontSize=11;fontColor=default;labelBackgroundColor=default;endArrow=none;endFill=0;" parent="1" source="pzxnhF5qK0eMf12bka1I-81" target="pzxnhF5qK0eMf12bka1I-98" edge="1">
          <mxGeometry relative="1" as="geometry" />
        </mxCell>
        <mxCell id="pzxnhF5qK0eMf12bka1I-81" value="&lt;b style=&quot;font-size: 12px;&quot;&gt;&lt;font style=&quot;font-size: 12px;&quot;&gt;3&lt;/font&gt;&lt;/b&gt;" style="ellipse;whiteSpace=wrap;html=1;aspect=fixed;fontFamily=Helvetica;fontSize=12;fontColor=default;labelBackgroundColor=default;" parent="1" vertex="1">
          <mxGeometry x="920" y="960" width="20" height="20" as="geometry" />
        </mxCell>
        <mxCell id="pzxnhF5qK0eMf12bka1I-82" style="edgeStyle=none;rounded=0;orthogonalLoop=1;jettySize=auto;html=1;exitX=1;exitY=0;exitDx=0;exitDy=0;entryX=0;entryY=0.5;entryDx=0;entryDy=0;strokeColor=default;align=center;verticalAlign=middle;fontFamily=Helvetica;fontSize=11;fontColor=default;labelBackgroundColor=default;endArrow=none;endFill=0;" parent="1" source="pzxnhF5qK0eMf12bka1I-85" target="pzxnhF5qK0eMf12bka1I-86" edge="1">
          <mxGeometry relative="1" as="geometry" />
        </mxCell>
        <mxCell id="pzxnhF5qK0eMf12bka1I-83" style="edgeStyle=none;rounded=0;orthogonalLoop=1;jettySize=auto;html=1;exitX=1;exitY=0.5;exitDx=0;exitDy=0;entryX=0;entryY=0.5;entryDx=0;entryDy=0;strokeColor=default;align=center;verticalAlign=middle;fontFamily=Helvetica;fontSize=11;fontColor=default;labelBackgroundColor=default;endArrow=none;endFill=0;startArrow=none;startFill=0;" parent="1" source="pzxnhF5qK0eMf12bka1I-85" target="pzxnhF5qK0eMf12bka1I-87" edge="1">
          <mxGeometry relative="1" as="geometry" />
        </mxCell>
        <mxCell id="pzxnhF5qK0eMf12bka1I-84" style="edgeStyle=none;rounded=0;orthogonalLoop=1;jettySize=auto;html=1;exitX=1;exitY=1;exitDx=0;exitDy=0;entryX=0;entryY=0.5;entryDx=0;entryDy=0;strokeColor=default;align=center;verticalAlign=middle;fontFamily=Helvetica;fontSize=11;fontColor=default;labelBackgroundColor=default;endArrow=none;endFill=0;" parent="1" source="pzxnhF5qK0eMf12bka1I-85" target="pzxnhF5qK0eMf12bka1I-88" edge="1">
          <mxGeometry relative="1" as="geometry" />
        </mxCell>
        <mxCell id="pzxnhF5qK0eMf12bka1I-85" value="&lt;b style=&quot;font-size: 12px;&quot;&gt;&lt;font style=&quot;font-size: 12px;&quot;&gt;1&lt;/font&gt;&lt;/b&gt;" style="ellipse;whiteSpace=wrap;html=1;aspect=fixed;fontFamily=Helvetica;fontSize=12;fontColor=default;labelBackgroundColor=default;" parent="1" vertex="1">
          <mxGeometry x="860" y="1180" width="20" height="20" as="geometry" />
        </mxCell>
        <mxCell id="pzxnhF5qK0eMf12bka1I-104" style="edgeStyle=none;rounded=0;orthogonalLoop=1;jettySize=auto;html=1;exitX=1;exitY=0;exitDx=0;exitDy=0;entryX=0;entryY=0.5;entryDx=0;entryDy=0;strokeColor=default;align=center;verticalAlign=middle;fontFamily=Helvetica;fontSize=11;fontColor=default;labelBackgroundColor=default;endArrow=none;endFill=0;" parent="1" source="pzxnhF5qK0eMf12bka1I-86" target="pzxnhF5qK0eMf12bka1I-102" edge="1">
          <mxGeometry relative="1" as="geometry" />
        </mxCell>
        <mxCell id="pzxnhF5qK0eMf12bka1I-105" style="edgeStyle=none;rounded=0;orthogonalLoop=1;jettySize=auto;html=1;exitX=1;exitY=1;exitDx=0;exitDy=0;entryX=0;entryY=0.5;entryDx=0;entryDy=0;strokeColor=default;align=center;verticalAlign=middle;fontFamily=Helvetica;fontSize=11;fontColor=default;labelBackgroundColor=default;endArrow=none;endFill=0;" parent="1" source="pzxnhF5qK0eMf12bka1I-86" target="pzxnhF5qK0eMf12bka1I-103" edge="1">
          <mxGeometry relative="1" as="geometry" />
        </mxCell>
        <mxCell id="pzxnhF5qK0eMf12bka1I-86" value="&lt;b style=&quot;font-size: 12px;&quot;&gt;&lt;font style=&quot;font-size: 12px;&quot;&gt;0&lt;/font&gt;&lt;/b&gt;" style="ellipse;whiteSpace=wrap;html=1;aspect=fixed;fontFamily=Helvetica;fontSize=12;fontColor=default;labelBackgroundColor=default;" parent="1" vertex="1">
          <mxGeometry x="920" y="1080" width="20" height="20" as="geometry" />
        </mxCell>
        <mxCell id="pzxnhF5qK0eMf12bka1I-109" style="edgeStyle=none;rounded=0;orthogonalLoop=1;jettySize=auto;html=1;exitX=1;exitY=0.5;exitDx=0;exitDy=0;entryX=0;entryY=0.5;entryDx=0;entryDy=0;strokeColor=default;align=center;verticalAlign=middle;fontFamily=Helvetica;fontSize=11;fontColor=default;labelBackgroundColor=default;endArrow=none;endFill=0;" parent="1" source="pzxnhF5qK0eMf12bka1I-87" target="pzxnhF5qK0eMf12bka1I-107" edge="1">
          <mxGeometry relative="1" as="geometry" />
        </mxCell>
        <mxCell id="pzxnhF5qK0eMf12bka1I-110" style="edgeStyle=none;rounded=0;orthogonalLoop=1;jettySize=auto;html=1;exitX=1;exitY=1;exitDx=0;exitDy=0;entryX=0;entryY=0.5;entryDx=0;entryDy=0;strokeColor=default;align=center;verticalAlign=middle;fontFamily=Helvetica;fontSize=11;fontColor=default;labelBackgroundColor=default;endArrow=none;endFill=0;" parent="1" source="pzxnhF5qK0eMf12bka1I-87" target="pzxnhF5qK0eMf12bka1I-108" edge="1">
          <mxGeometry relative="1" as="geometry" />
        </mxCell>
        <mxCell id="pzxnhF5qK0eMf12bka1I-111" style="edgeStyle=none;rounded=0;orthogonalLoop=1;jettySize=auto;html=1;exitX=1;exitY=0;exitDx=0;exitDy=0;entryX=0;entryY=0.5;entryDx=0;entryDy=0;strokeColor=default;align=center;verticalAlign=middle;fontFamily=Helvetica;fontSize=11;fontColor=default;labelBackgroundColor=default;endArrow=none;endFill=0;" parent="1" source="pzxnhF5qK0eMf12bka1I-87" target="pzxnhF5qK0eMf12bka1I-106" edge="1">
          <mxGeometry relative="1" as="geometry" />
        </mxCell>
        <mxCell id="pzxnhF5qK0eMf12bka1I-87" value="&lt;b style=&quot;font-size: 12px;&quot;&gt;&lt;font style=&quot;font-size: 12px;&quot;&gt;2&lt;/font&gt;&lt;/b&gt;" style="ellipse;whiteSpace=wrap;html=1;aspect=fixed;fontFamily=Helvetica;fontSize=12;fontColor=default;labelBackgroundColor=default;" parent="1" vertex="1">
          <mxGeometry x="920" y="1180" width="20" height="20" as="geometry" />
        </mxCell>
        <mxCell id="pzxnhF5qK0eMf12bka1I-115" style="edgeStyle=none;rounded=0;orthogonalLoop=1;jettySize=auto;html=1;exitX=1;exitY=0;exitDx=0;exitDy=0;entryX=0;entryY=0.5;entryDx=0;entryDy=0;strokeColor=default;align=center;verticalAlign=middle;fontFamily=Helvetica;fontSize=11;fontColor=default;labelBackgroundColor=default;endArrow=none;endFill=0;" parent="1" source="pzxnhF5qK0eMf12bka1I-88" target="pzxnhF5qK0eMf12bka1I-112" edge="1">
          <mxGeometry relative="1" as="geometry" />
        </mxCell>
        <mxCell id="pzxnhF5qK0eMf12bka1I-116" style="edgeStyle=none;rounded=0;orthogonalLoop=1;jettySize=auto;html=1;exitX=1;exitY=0.5;exitDx=0;exitDy=0;entryX=0;entryY=0.5;entryDx=0;entryDy=0;strokeColor=default;align=center;verticalAlign=middle;fontFamily=Helvetica;fontSize=11;fontColor=default;labelBackgroundColor=default;endArrow=none;endFill=0;" parent="1" source="pzxnhF5qK0eMf12bka1I-88" target="pzxnhF5qK0eMf12bka1I-113" edge="1">
          <mxGeometry relative="1" as="geometry" />
        </mxCell>
        <mxCell id="pzxnhF5qK0eMf12bka1I-117" style="edgeStyle=none;rounded=0;orthogonalLoop=1;jettySize=auto;html=1;exitX=1;exitY=1;exitDx=0;exitDy=0;entryX=0;entryY=0.5;entryDx=0;entryDy=0;strokeColor=default;align=center;verticalAlign=middle;fontFamily=Helvetica;fontSize=11;fontColor=default;labelBackgroundColor=default;endArrow=none;endFill=0;" parent="1" source="pzxnhF5qK0eMf12bka1I-88" target="pzxnhF5qK0eMf12bka1I-114" edge="1">
          <mxGeometry relative="1" as="geometry" />
        </mxCell>
        <mxCell id="pzxnhF5qK0eMf12bka1I-88" value="&lt;b style=&quot;font-size: 12px;&quot;&gt;&lt;font style=&quot;font-size: 12px;&quot;&gt;3&lt;/font&gt;&lt;/b&gt;" style="ellipse;whiteSpace=wrap;html=1;aspect=fixed;fontFamily=Helvetica;fontSize=12;fontColor=default;labelBackgroundColor=default;" parent="1" vertex="1">
          <mxGeometry x="920" y="1290" width="20" height="20" as="geometry" />
        </mxCell>
        <mxCell id="pzxnhF5qK0eMf12bka1I-89" value="&lt;font style=&quot;font-size: 8px;&quot; face=&quot;Roboto Mono&quot;&gt;&lt;span style=&quot;background-color: rgb(153, 255, 153);&quot;&gt;1.016&lt;/span&gt; (&lt;span style=&quot;background-color: rgb(51, 255, 255);&quot;&gt;0.397&lt;/span&gt;)&lt;/font&gt;" style="text;html=1;align=left;verticalAlign=top;whiteSpace=wrap;rounded=0;spacingLeft=6;spacing=0;spacingTop=-6;" parent="1" vertex="1">
          <mxGeometry x="800" y="830" width="77" height="20" as="geometry" />
        </mxCell>
        <mxCell id="pzxnhF5qK0eMf12bka1I-90" value="&lt;font style=&quot;font-size: 8px;&quot; face=&quot;Roboto Mono&quot;&gt;1.016 (&lt;span style=&quot;background-color: rgb(51, 255, 255);&quot;&gt;0.397&lt;/span&gt;)&lt;/font&gt;" style="text;html=1;align=left;verticalAlign=top;whiteSpace=wrap;rounded=0;spacingLeft=6;spacing=0;spacingTop=-6;" parent="1" vertex="1">
          <mxGeometry x="790" y="1200" width="73.5" height="20" as="geometry" />
        </mxCell>
        <mxCell id="pzxnhF5qK0eMf12bka1I-96" value="&lt;b style=&quot;font-size: 12px;&quot;&gt;&lt;font style=&quot;font-size: 12px;&quot;&gt;1&lt;/font&gt;&lt;/b&gt;" style="ellipse;whiteSpace=wrap;html=1;aspect=fixed;fontFamily=Helvetica;fontSize=12;fontColor=default;labelBackgroundColor=default;" parent="1" vertex="1">
          <mxGeometry x="990" y="930" width="20" height="20" as="geometry" />
        </mxCell>
        <mxCell id="pzxnhF5qK0eMf12bka1I-97" value="&lt;b style=&quot;font-size: 12px;&quot;&gt;&lt;font style=&quot;font-size: 12px;&quot;&gt;2&lt;/font&gt;&lt;/b&gt;" style="ellipse;whiteSpace=wrap;html=1;aspect=fixed;fontFamily=Helvetica;fontSize=12;fontColor=default;labelBackgroundColor=default;" parent="1" vertex="1">
          <mxGeometry x="990" y="960" width="20" height="20" as="geometry" />
        </mxCell>
        <mxCell id="pzxnhF5qK0eMf12bka1I-98" value="&lt;b style=&quot;font-size: 12px;&quot;&gt;&lt;font style=&quot;font-size: 12px;&quot;&gt;4&lt;/font&gt;&lt;/b&gt;" style="ellipse;whiteSpace=wrap;html=1;aspect=fixed;fontFamily=Helvetica;fontSize=12;fontColor=default;labelBackgroundColor=default;" parent="1" vertex="1">
          <mxGeometry x="990" y="990" width="20" height="20" as="geometry" />
        </mxCell>
        <mxCell id="pzxnhF5qK0eMf12bka1I-102" value="&lt;b style=&quot;font-size: 12px;&quot;&gt;&lt;font style=&quot;font-size: 12px;&quot;&gt;2&lt;/font&gt;&lt;/b&gt;" style="ellipse;whiteSpace=wrap;html=1;aspect=fixed;fontFamily=Helvetica;fontSize=12;fontColor=default;labelBackgroundColor=default;" parent="1" vertex="1">
          <mxGeometry x="990" y="1060" width="20" height="20" as="geometry" />
        </mxCell>
        <mxCell id="pzxnhF5qK0eMf12bka1I-103" value="&lt;b style=&quot;font-size: 12px;&quot;&gt;&lt;font style=&quot;font-size: 12px;&quot;&gt;1&lt;/font&gt;&lt;/b&gt;" style="ellipse;whiteSpace=wrap;html=1;aspect=fixed;fontFamily=Helvetica;fontSize=12;fontColor=default;labelBackgroundColor=default;" parent="1" vertex="1">
          <mxGeometry x="990" y="1100" width="20" height="20" as="geometry" />
        </mxCell>
        <mxCell id="pzxnhF5qK0eMf12bka1I-106" value="&lt;b style=&quot;font-size: 12px;&quot;&gt;&lt;font style=&quot;font-size: 12px;&quot;&gt;0&lt;/font&gt;&lt;/b&gt;" style="ellipse;whiteSpace=wrap;html=1;aspect=fixed;fontFamily=Helvetica;fontSize=12;fontColor=default;labelBackgroundColor=default;" parent="1" vertex="1">
          <mxGeometry x="990" y="1149" width="20" height="20" as="geometry" />
        </mxCell>
        <mxCell id="pzxnhF5qK0eMf12bka1I-107" value="&lt;b style=&quot;font-size: 12px;&quot;&gt;&lt;font style=&quot;font-size: 12px;&quot;&gt;1&lt;/font&gt;&lt;/b&gt;" style="ellipse;whiteSpace=wrap;html=1;aspect=fixed;fontFamily=Helvetica;fontSize=12;fontColor=default;labelBackgroundColor=default;" parent="1" vertex="1">
          <mxGeometry x="990" y="1180" width="20" height="20" as="geometry" />
        </mxCell>
        <mxCell id="pzxnhF5qK0eMf12bka1I-108" value="&lt;b style=&quot;font-size: 12px;&quot;&gt;&lt;font style=&quot;font-size: 12px;&quot;&gt;3&lt;/font&gt;&lt;/b&gt;" style="ellipse;whiteSpace=wrap;html=1;aspect=fixed;fontFamily=Helvetica;fontSize=12;fontColor=default;labelBackgroundColor=default;" parent="1" vertex="1">
          <mxGeometry x="990" y="1210" width="20" height="20" as="geometry" />
        </mxCell>
        <mxCell id="pzxnhF5qK0eMf12bka1I-112" value="&lt;b style=&quot;font-size: 12px;&quot;&gt;&lt;font style=&quot;font-size: 12px;&quot;&gt;1&lt;/font&gt;&lt;/b&gt;" style="ellipse;whiteSpace=wrap;html=1;aspect=fixed;fontFamily=Helvetica;fontSize=12;fontColor=default;labelBackgroundColor=default;" parent="1" vertex="1">
          <mxGeometry x="990" y="1260" width="20" height="20" as="geometry" />
        </mxCell>
        <mxCell id="pzxnhF5qK0eMf12bka1I-113" value="&lt;b style=&quot;font-size: 12px;&quot;&gt;&lt;font style=&quot;font-size: 12px;&quot;&gt;2&lt;/font&gt;&lt;/b&gt;" style="ellipse;whiteSpace=wrap;html=1;aspect=fixed;fontFamily=Helvetica;fontSize=12;fontColor=default;labelBackgroundColor=default;" parent="1" vertex="1">
          <mxGeometry x="990" y="1290" width="20" height="20" as="geometry" />
        </mxCell>
        <mxCell id="pzxnhF5qK0eMf12bka1I-114" value="&lt;b style=&quot;font-size: 12px;&quot;&gt;&lt;font style=&quot;font-size: 12px;&quot;&gt;4&lt;/font&gt;&lt;/b&gt;" style="ellipse;whiteSpace=wrap;html=1;aspect=fixed;fontFamily=Helvetica;fontSize=12;fontColor=default;labelBackgroundColor=default;" parent="1" vertex="1">
          <mxGeometry x="990" y="1320" width="20" height="20" as="geometry" />
        </mxCell>
        <mxCell id="pzxnhF5qK0eMf12bka1I-118" value="&lt;div&gt;&lt;font face=&quot;Roboto Mono&quot;&gt;[[0, 1, 1, 0, 0, 0, 0, 0, 0, 0],&lt;/font&gt;&lt;/div&gt;&lt;div&gt;&lt;font face=&quot;Roboto Mono&quot;&gt;&amp;nbsp;[1, 0, 1, 1, 0, 0, 0, 0, 0, 0],&lt;/font&gt;&lt;/div&gt;&lt;div&gt;&lt;font face=&quot;Roboto Mono&quot;&gt;&amp;nbsp;[1, 1, 0, 1, 0, 0, 0, 0, 0, 0],&lt;/font&gt;&lt;/div&gt;&lt;div&gt;&lt;font face=&quot;Roboto Mono&quot;&gt;&amp;nbsp;[0, 1, 1, 0, 1, 0, 0, 0, 0, 0],&lt;/font&gt;&lt;/div&gt;&lt;div&gt;&lt;font face=&quot;Roboto Mono&quot;&gt;&amp;nbsp;[0, 0, 0, 1, 0, 1, 0, 0, 0, 0],&lt;/font&gt;&lt;/div&gt;&lt;div&gt;&lt;font face=&quot;Roboto Mono&quot;&gt;&amp;nbsp;[0, 0, 0, 0, 1, 0, 1, 1, 0, 0],&lt;/font&gt;&lt;/div&gt;&lt;div&gt;&lt;font face=&quot;Roboto Mono&quot;&gt;&amp;nbsp;[0, 0, 0, 0, 0, 1, 0, 0, 1, 0],&lt;/font&gt;&lt;/div&gt;&lt;div&gt;&lt;font face=&quot;Roboto Mono&quot;&gt;&amp;nbsp;[0, 0, 0, 0, 0, 1, 0, 0, 1, 0],&lt;/font&gt;&lt;/div&gt;&lt;div&gt;&lt;font face=&quot;Roboto Mono&quot;&gt;&amp;nbsp;[0, 0, 0, 0, 0, 0, 1, 1, 0, 1],&lt;/font&gt;&lt;/div&gt;&lt;div&gt;&lt;font face=&quot;Roboto Mono&quot;&gt;&amp;nbsp;[0, 0, 0, 0, 0, 0, 0, 0, 1, 0]]&lt;/font&gt;&lt;/div&gt;" style="text;html=1;align=left;verticalAlign=top;whiteSpace=wrap;rounded=0;spacingLeft=6;spacing=0;" parent="1" vertex="1">
          <mxGeometry x="80" y="885" width="250" height="170" as="geometry" />
        </mxCell>
        <mxCell id="pzxnhF5qK0eMf12bka1I-120" value="&lt;div&gt;&lt;font style=&quot;font-size: 20px;&quot; face=&quot;Roboto Mono&quot;&gt;=&lt;/font&gt;&lt;/div&gt;" style="text;html=1;align=left;verticalAlign=top;whiteSpace=wrap;rounded=0;spacingLeft=6;spacing=0;" parent="1" vertex="1">
          <mxGeometry x="404" y="940" width="20" height="30" as="geometry" />
        </mxCell>
        <mxCell id="pzxnhF5qK0eMf12bka1I-121" value="\(\mathbf{x}_2&#39;\)" style="text;align=left;verticalAlign=top;rounded=0;spacingLeft=6;spacing=0;html=1;" parent="1" vertex="1">
          <mxGeometry x="340" y="850" width="30" height="30" as="geometry" />
        </mxCell>
        <mxCell id="pzxnhF5qK0eMf12bka1I-122" value="&lt;div&gt;&lt;font face=&quot;Roboto Mono&quot;&gt;[[0.794]&lt;/font&gt;&lt;/div&gt;&lt;div&gt;&lt;font face=&quot;Roboto Mono&quot;&gt;&amp;nbsp;[1.092]&lt;/font&gt;&lt;/div&gt;&lt;div&gt;&lt;font face=&quot;Roboto Mono&quot;&gt;&amp;nbsp;[1.092]&lt;/font&gt;&lt;/div&gt;&lt;div&gt;&lt;font face=&quot;Roboto Mono&quot;&gt;&amp;nbsp;[1.092]&lt;/font&gt;&lt;/div&gt;&lt;div&gt;&lt;font face=&quot;Roboto Mono&quot;&gt;&amp;nbsp;[0.695]&lt;/font&gt;&lt;/div&gt;&lt;div&gt;&lt;font face=&quot;Roboto Mono&quot;&gt;&amp;nbsp;[0.893]&lt;/font&gt;&lt;/div&gt;&lt;div&gt;&lt;font face=&quot;Roboto Mono&quot;&gt;&amp;nbsp;[0.546]&lt;/font&gt;&lt;/div&gt;&lt;div&gt;&lt;font face=&quot;Roboto Mono&quot;&gt;&amp;nbsp;[0.546]&lt;/font&gt;&lt;/div&gt;&lt;div&gt;&lt;font face=&quot;Roboto Mono&quot;&gt;&amp;nbsp;[0.744]&lt;/font&gt;&lt;/div&gt;&lt;div&gt;&lt;font face=&quot;Roboto Mono&quot;&gt;&amp;nbsp;[0.248]]&lt;/font&gt;&lt;/div&gt;" style="text;html=1;align=left;verticalAlign=top;whiteSpace=wrap;rounded=0;spacingLeft=6;spacing=0;" parent="1" vertex="1">
          <mxGeometry x="440" y="880" width="60" height="170" as="geometry" />
        </mxCell>
        <mxCell id="pzxnhF5qK0eMf12bka1I-123" value="&lt;div&gt;&lt;font style=&quot;font-size: 20px;&quot; face=&quot;Roboto Mono&quot;&gt;=&lt;/font&gt;&lt;/div&gt;" style="text;html=1;align=left;verticalAlign=top;whiteSpace=wrap;rounded=0;spacingLeft=6;spacing=0;" parent="1" vertex="1">
          <mxGeometry x="520" y="940" width="20" height="30" as="geometry" />
        </mxCell>
        <mxCell id="pzxnhF5qK0eMf12bka1I-124" value="\(\mathbf{x}_3\)" style="text;align=left;verticalAlign=top;rounded=0;spacingLeft=6;spacing=0;html=1;" parent="1" vertex="1">
          <mxGeometry x="460" y="850" width="30" height="30" as="geometry" />
        </mxCell>
        <mxCell id="pzxnhF5qK0eMf12bka1I-125" value="&lt;font face=&quot;Roboto Mono&quot;&gt;\(\Vert\mathbf{x}_0 \Vert =\) 2.588&lt;/font&gt;" style="text;html=1;align=left;verticalAlign=top;whiteSpace=wrap;rounded=0;spacingLeft=6;spacing=0;" parent="1" vertex="1">
          <mxGeometry x="320" y="1050" width="110" height="30" as="geometry" />
        </mxCell>
        <mxCell id="pzxnhF5qK0eMf12bka1I-126" value="\(\mathbf{x}_3&#39;\)" style="text;align=left;verticalAlign=top;rounded=0;spacingLeft=6;spacing=0;html=1;" parent="1" vertex="1">
          <mxGeometry x="620" y="850" width="30" height="30" as="geometry" />
        </mxCell>
        <mxCell id="pzxnhF5qK0eMf12bka1I-127" value="&lt;font style=&quot;font-size: 12px;&quot; face=&quot;Roboto Mono&quot;&gt;2.588 \(\times\)&lt;/font&gt;" style="text;html=1;align=left;verticalAlign=top;whiteSpace=wrap;rounded=0;spacingLeft=6;spacing=0;fontSize=12;" parent="1" vertex="1">
          <mxGeometry x="550" y="940" width="65" height="30" as="geometry" />
        </mxCell>
        <mxCell id="pzxnhF5qK0eMf12bka1I-128" value="&lt;div&gt;&lt;font face=&quot;Roboto Mono&quot;&gt;[[0.307]&lt;/font&gt;&lt;/div&gt;&lt;div&gt;&lt;font face=&quot;Roboto Mono&quot;&gt;&amp;nbsp;[0.422]&lt;/font&gt;&lt;/div&gt;&lt;div&gt;&lt;font face=&quot;Roboto Mono&quot;&gt;&amp;nbsp;[0.422]&lt;/font&gt;&lt;/div&gt;&lt;div&gt;&lt;font face=&quot;Roboto Mono&quot;&gt;&amp;nbsp;[0.422]&lt;/font&gt;&lt;/div&gt;&lt;div&gt;&lt;font face=&quot;Roboto Mono&quot;&gt;&amp;nbsp;[0.268]&lt;/font&gt;&lt;/div&gt;&lt;div&gt;&lt;font face=&quot;Roboto Mono&quot;&gt;&amp;nbsp;[0.345]&lt;/font&gt;&lt;/div&gt;&lt;div&gt;&lt;font face=&quot;Roboto Mono&quot;&gt;&amp;nbsp;[0.211]&lt;/font&gt;&lt;/div&gt;&lt;div&gt;&lt;font face=&quot;Roboto Mono&quot;&gt;&amp;nbsp;[0.211]&lt;/font&gt;&lt;/div&gt;&lt;div&gt;&lt;font face=&quot;Roboto Mono&quot;&gt;&amp;nbsp;[0.288]&lt;/font&gt;&lt;/div&gt;&lt;div&gt;&lt;font face=&quot;Roboto Mono&quot;&gt;&amp;nbsp;[0.096]]&lt;/font&gt;&lt;/div&gt;" style="text;html=1;align=left;verticalAlign=top;whiteSpace=wrap;rounded=0;spacingLeft=6;spacing=0;" parent="1" vertex="1">
          <mxGeometry x="605" y="880" width="105" height="170" as="geometry" />
        </mxCell>
        <mxCell id="pzxnhF5qK0eMf12bka1I-130" value="&lt;div&gt;&lt;font size=&quot;1&quot; face=&quot;Roboto Mono&quot;&gt;&lt;b style=&quot;font-size: 20px;&quot;&gt;Iteration 0&lt;/b&gt;&lt;/font&gt;&lt;/div&gt;" style="text;html=1;align=left;verticalAlign=top;whiteSpace=wrap;rounded=0;spacingLeft=6;spacing=0;" parent="1" vertex="1">
          <mxGeometry x="-130" y="280" width="180" height="30" as="geometry" />
        </mxCell>
        <mxCell id="pzxnhF5qK0eMf12bka1I-131" value="&lt;div&gt;&lt;font size=&quot;1&quot; face=&quot;Roboto Mono&quot;&gt;&lt;b style=&quot;font-size: 20px;&quot;&gt;Iteration 1&lt;/b&gt;&lt;/font&gt;&lt;/div&gt;" style="text;html=1;align=left;verticalAlign=top;whiteSpace=wrap;rounded=0;spacingLeft=6;spacing=0;" parent="1" vertex="1">
          <mxGeometry x="-120" y="620" width="180" height="30" as="geometry" />
        </mxCell>
        <mxCell id="pzxnhF5qK0eMf12bka1I-132" value="&lt;div&gt;&lt;font size=&quot;1&quot; face=&quot;Roboto Mono&quot;&gt;&lt;b style=&quot;font-size: 20px;&quot;&gt;Iteration 2&lt;/b&gt;&lt;/font&gt;&lt;/div&gt;" style="text;html=1;align=left;verticalAlign=top;whiteSpace=wrap;rounded=0;spacingLeft=6;spacing=0;" parent="1" vertex="1">
          <mxGeometry x="-120" y="940" width="180" height="30" as="geometry" />
        </mxCell>
        <mxCell id="pzxnhF5qK0eMf12bka1I-133" value="&lt;div&gt;&lt;font face=&quot;Roboto Mono&quot;&gt;[[0.298]&lt;/font&gt;&lt;/div&gt;&lt;div&gt;&lt;font face=&quot;Roboto Mono&quot;&gt;&amp;nbsp;[0.397]&lt;/font&gt;&lt;/div&gt;&lt;div&gt;&lt;font face=&quot;Roboto Mono&quot;&gt;&amp;nbsp;[0.397]&lt;/font&gt;&lt;/div&gt;&lt;div&gt;&lt;font face=&quot;Roboto Mono&quot;&gt;&amp;nbsp;[0.397]&lt;/font&gt;&lt;/div&gt;&lt;div&gt;&lt;font face=&quot;Roboto Mono&quot;&gt;&amp;nbsp;[0.298]&lt;/font&gt;&lt;/div&gt;&lt;div&gt;&lt;font face=&quot;Roboto Mono&quot;&gt;&amp;nbsp;[0.298]&lt;/font&gt;&lt;/div&gt;&lt;div&gt;&lt;font face=&quot;Roboto Mono&quot;&gt;&amp;nbsp;[0.298]&lt;/font&gt;&lt;/div&gt;&lt;div&gt;&lt;font face=&quot;Roboto Mono&quot;&gt;&amp;nbsp;[0.298]&lt;/font&gt;&lt;/div&gt;&lt;div&gt;&lt;font face=&quot;Roboto Mono&quot;&gt;&amp;nbsp;[0.248]&lt;/font&gt;&lt;/div&gt;&lt;div&gt;&lt;font face=&quot;Roboto Mono&quot;&gt;&amp;nbsp;[0.149]]&lt;/font&gt;&lt;/div&gt;" style="text;html=1;align=left;verticalAlign=top;whiteSpace=wrap;rounded=0;spacingLeft=6;spacing=0;" parent="1" vertex="1">
          <mxGeometry x="330" y="880" width="105" height="170" as="geometry" />
        </mxCell>
        <mxCell id="pzxnhF5qK0eMf12bka1I-150" value="&lt;div&gt;&lt;font face=&quot;Roboto Mono&quot;&gt;dot([&lt;/font&gt;&lt;span style=&quot;font-family: &amp;quot;Roboto Mono&amp;quot;; background-color: initial;&quot;&gt;0, 1, 1, 0, 0, 0, 0, 0, 0, 0&lt;/span&gt;&lt;span style=&quot;font-family: &amp;quot;Roboto Mono&amp;quot;; background-color: initial;&quot;&gt;]) = 2&lt;/span&gt;&lt;/div&gt;&lt;font face=&quot;Roboto Mono&quot;&gt;&amp;nbsp; &amp;nbsp; [&amp;nbsp; &amp;nbsp; &amp;nbsp; &amp;nbsp; &amp;nbsp; &amp;nbsp; &amp;nbsp; &amp;nbsp; &amp;nbsp; &amp;nbsp; &amp;nbsp; &amp;nbsp; &amp;nbsp; &amp;nbsp; ]&lt;br&gt;&lt;/font&gt;&lt;span style=&quot;font-family: &amp;quot;Roboto Mono&amp;quot;;&quot;&gt;&amp;nbsp; &amp;nbsp; [&amp;nbsp; &amp;nbsp; &amp;nbsp; &amp;nbsp; &amp;nbsp; &amp;nbsp; &amp;nbsp; &amp;nbsp; &amp;nbsp; &amp;nbsp; &amp;nbsp; &amp;nbsp; &amp;nbsp; &amp;nbsp; ]&lt;/span&gt;&lt;font face=&quot;Roboto Mono&quot;&gt;&lt;br&gt;&lt;/font&gt;&lt;div&gt;&lt;span style=&quot;font-family: &amp;quot;Roboto Mono&amp;quot;;&quot;&gt;&amp;nbsp; &amp;nbsp; [&amp;nbsp; &amp;nbsp; &amp;nbsp; &amp;nbsp; &amp;nbsp; &amp;nbsp; &amp;nbsp; &amp;nbsp; &amp;nbsp; &amp;nbsp; &amp;nbsp; &amp;nbsp; &amp;nbsp; &amp;nbsp; ]&lt;/span&gt;&lt;span style=&quot;font-family: &amp;quot;Roboto Mono&amp;quot;;&quot;&gt;&lt;br&gt;&lt;/span&gt;&lt;/div&gt;&lt;div&gt;&lt;span style=&quot;font-family: &amp;quot;Roboto Mono&amp;quot;;&quot;&gt;&amp;nbsp; &amp;nbsp; [&amp;nbsp; &amp;nbsp; &amp;nbsp; &amp;nbsp; &amp;nbsp; &amp;nbsp; &amp;nbsp; &amp;nbsp; &amp;nbsp; &amp;nbsp; &amp;nbsp; &amp;nbsp; &amp;nbsp; &amp;nbsp; ]&lt;/span&gt;&lt;span style=&quot;font-family: &amp;quot;Roboto Mono&amp;quot;;&quot;&gt;&lt;br&gt;&lt;/span&gt;&lt;/div&gt;&lt;div&gt;&lt;span style=&quot;font-family: &amp;quot;Roboto Mono&amp;quot;;&quot;&gt;&amp;nbsp; &amp;nbsp; [&amp;nbsp; &amp;nbsp; &amp;nbsp; &amp;nbsp; &amp;nbsp; &amp;nbsp; &amp;nbsp; &amp;nbsp; &amp;nbsp; &amp;nbsp; &amp;nbsp; &amp;nbsp; &amp;nbsp; &amp;nbsp; ]&lt;/span&gt;&lt;span style=&quot;font-family: &amp;quot;Roboto Mono&amp;quot;;&quot;&gt;&lt;br&gt;&lt;/span&gt;&lt;/div&gt;&lt;div&gt;&lt;span style=&quot;font-family: &amp;quot;Roboto Mono&amp;quot;;&quot;&gt;&amp;nbsp; &amp;nbsp; [&amp;nbsp; &amp;nbsp; &amp;nbsp; &amp;nbsp; &amp;nbsp; &amp;nbsp; &amp;nbsp; &amp;nbsp; &amp;nbsp; &amp;nbsp; &amp;nbsp; &amp;nbsp; &amp;nbsp; &amp;nbsp; ]&lt;/span&gt;&lt;span style=&quot;font-family: &amp;quot;Roboto Mono&amp;quot;;&quot;&gt;&lt;br&gt;&lt;/span&gt;&lt;/div&gt;&lt;div&gt;&lt;span style=&quot;font-family: &amp;quot;Roboto Mono&amp;quot;;&quot;&gt;&amp;nbsp; &amp;nbsp; [&amp;nbsp; &amp;nbsp; &amp;nbsp; &amp;nbsp; &amp;nbsp; &amp;nbsp; &amp;nbsp; &amp;nbsp; &amp;nbsp; &amp;nbsp; &amp;nbsp; &amp;nbsp; &amp;nbsp; &amp;nbsp; ]&lt;/span&gt;&lt;span style=&quot;font-family: &amp;quot;Roboto Mono&amp;quot;;&quot;&gt;&lt;br&gt;&lt;/span&gt;&lt;/div&gt;&lt;div&gt;&lt;span style=&quot;font-family: &amp;quot;Roboto Mono&amp;quot;;&quot;&gt;&amp;nbsp; &amp;nbsp; [&amp;nbsp; &amp;nbsp; &amp;nbsp; &amp;nbsp; &amp;nbsp; &amp;nbsp; &amp;nbsp; &amp;nbsp; &amp;nbsp; &amp;nbsp; &amp;nbsp; &amp;nbsp; &amp;nbsp; &amp;nbsp; ]&lt;/span&gt;&lt;span style=&quot;font-family: &amp;quot;Roboto Mono&amp;quot;;&quot;&gt;&lt;br&gt;&lt;/span&gt;&lt;/div&gt;&lt;div&gt;&lt;span style=&quot;font-family: &amp;quot;Roboto Mono&amp;quot;;&quot;&gt;&amp;nbsp; &amp;nbsp; [&amp;nbsp; &amp;nbsp; &amp;nbsp; &amp;nbsp; &amp;nbsp; &amp;nbsp; &amp;nbsp; &amp;nbsp; &amp;nbsp; &amp;nbsp; &amp;nbsp; &amp;nbsp; &amp;nbsp; &amp;nbsp; ]&lt;/span&gt;&lt;span style=&quot;font-family: &amp;quot;Roboto Mono&amp;quot;;&quot;&gt;&lt;br&gt;&lt;/span&gt;&lt;/div&gt;" style="text;html=1;align=left;verticalAlign=top;whiteSpace=wrap;rounded=0;spacingLeft=6;spacing=0;" parent="1" vertex="1">
          <mxGeometry x="80" y="1240" width="300" height="170" as="geometry" />
        </mxCell>
        <mxCell id="pzxnhF5qK0eMf12bka1I-151" value="&lt;div style=&quot;forced-color-adjust: none; color: rgb(0, 0, 0); font-family: Helvetica; font-size: 12px; font-style: normal; font-variant-ligatures: normal; font-variant-caps: normal; font-weight: 400; letter-spacing: normal; orphans: 2; text-align: left; text-indent: 0px; text-transform: none; widows: 2; word-spacing: 0px; -webkit-text-stroke-width: 0px; white-space: normal; background-color: rgb(251, 251, 251); text-decoration-thickness: initial; text-decoration-style: initial; text-decoration-color: initial;&quot;&gt;&lt;font face=&quot;Roboto Mono&quot; style=&quot;forced-color-adjust: none;&quot;&gt;[[&amp;nbsp; &amp;nbsp; &amp;nbsp;]&lt;/font&gt;&lt;/div&gt;&lt;div style=&quot;forced-color-adjust: none; color: rgb(0, 0, 0); font-family: Helvetica; font-size: 12px; font-style: normal; font-variant-ligatures: normal; font-variant-caps: normal; font-weight: 400; letter-spacing: normal; orphans: 2; text-align: left; text-indent: 0px; text-transform: none; widows: 2; word-spacing: 0px; -webkit-text-stroke-width: 0px; white-space: normal; background-color: rgb(251, 251, 251); text-decoration-thickness: initial; text-decoration-style: initial; text-decoration-color: initial;&quot;&gt;&lt;font face=&quot;Roboto Mono&quot; style=&quot;forced-color-adjust: none;&quot;&gt;&amp;nbsp;[0.381]&lt;/font&gt;&lt;/div&gt;&lt;div style=&quot;forced-color-adjust: none; color: rgb(0, 0, 0); font-family: Helvetica; font-size: 12px; font-style: normal; font-variant-ligatures: normal; font-variant-caps: normal; font-weight: 400; letter-spacing: normal; orphans: 2; text-align: left; text-indent: 0px; text-transform: none; widows: 2; word-spacing: 0px; -webkit-text-stroke-width: 0px; white-space: normal; background-color: rgb(251, 251, 251); text-decoration-thickness: initial; text-decoration-style: initial; text-decoration-color: initial;&quot;&gt;&lt;font face=&quot;Roboto Mono&quot; style=&quot;forced-color-adjust: none;&quot;&gt;&amp;nbsp;[0.381]&lt;/font&gt;&lt;/div&gt;&lt;div style=&quot;forced-color-adjust: none; color: rgb(0, 0, 0); font-family: Helvetica; font-size: 12px; font-style: normal; font-variant-ligatures: normal; font-variant-caps: normal; font-weight: 400; letter-spacing: normal; orphans: 2; text-align: left; text-indent: 0px; text-transform: none; widows: 2; word-spacing: 0px; -webkit-text-stroke-width: 0px; white-space: normal; background-color: rgb(251, 251, 251); text-decoration-thickness: initial; text-decoration-style: initial; text-decoration-color: initial;&quot;&gt;&lt;font face=&quot;Roboto Mono&quot; style=&quot;forced-color-adjust: none;&quot;&gt;&amp;nbsp;[&amp;nbsp; &amp;nbsp; &amp;nbsp;]&lt;/font&gt;&lt;/div&gt;&lt;div style=&quot;forced-color-adjust: none; color: rgb(0, 0, 0); font-family: Helvetica; font-size: 12px; font-style: normal; font-variant-ligatures: normal; font-variant-caps: normal; font-weight: 400; letter-spacing: normal; orphans: 2; text-align: left; text-indent: 0px; text-transform: none; widows: 2; word-spacing: 0px; -webkit-text-stroke-width: 0px; white-space: normal; background-color: rgb(251, 251, 251); text-decoration-thickness: initial; text-decoration-style: initial; text-decoration-color: initial;&quot;&gt;&lt;font face=&quot;Roboto Mono&quot; style=&quot;forced-color-adjust: none;&quot;&gt;&amp;nbsp;[&amp;nbsp; &amp;nbsp; &amp;nbsp;]&lt;/font&gt;&lt;/div&gt;&lt;div style=&quot;forced-color-adjust: none; color: rgb(0, 0, 0); font-family: Helvetica; font-size: 12px; font-style: normal; font-variant-ligatures: normal; font-variant-caps: normal; font-weight: 400; letter-spacing: normal; orphans: 2; text-align: left; text-indent: 0px; text-transform: none; widows: 2; word-spacing: 0px; -webkit-text-stroke-width: 0px; white-space: normal; background-color: rgb(251, 251, 251); text-decoration-thickness: initial; text-decoration-style: initial; text-decoration-color: initial;&quot;&gt;&lt;font face=&quot;Roboto Mono&quot; style=&quot;forced-color-adjust: none;&quot;&gt;&amp;nbsp;[&amp;nbsp; &amp;nbsp; &amp;nbsp;]&lt;/font&gt;&lt;/div&gt;&lt;div style=&quot;forced-color-adjust: none; color: rgb(0, 0, 0); font-family: Helvetica; font-size: 12px; font-style: normal; font-variant-ligatures: normal; font-variant-caps: normal; font-weight: 400; letter-spacing: normal; orphans: 2; text-align: left; text-indent: 0px; text-transform: none; widows: 2; word-spacing: 0px; -webkit-text-stroke-width: 0px; white-space: normal; background-color: rgb(251, 251, 251); text-decoration-thickness: initial; text-decoration-style: initial; text-decoration-color: initial;&quot;&gt;&lt;font face=&quot;Roboto Mono&quot; style=&quot;forced-color-adjust: none;&quot;&gt;&amp;nbsp;[&amp;nbsp; &amp;nbsp; &amp;nbsp;]&lt;/font&gt;&lt;/div&gt;&lt;div style=&quot;forced-color-adjust: none; color: rgb(0, 0, 0); font-family: Helvetica; font-size: 12px; font-style: normal; font-variant-ligatures: normal; font-variant-caps: normal; font-weight: 400; letter-spacing: normal; orphans: 2; text-align: left; text-indent: 0px; text-transform: none; widows: 2; word-spacing: 0px; -webkit-text-stroke-width: 0px; white-space: normal; background-color: rgb(251, 251, 251); text-decoration-thickness: initial; text-decoration-style: initial; text-decoration-color: initial;&quot;&gt;&lt;font face=&quot;Roboto Mono&quot; style=&quot;forced-color-adjust: none;&quot;&gt;&amp;nbsp;[&amp;nbsp; &amp;nbsp; &amp;nbsp;]&lt;/font&gt;&lt;/div&gt;&lt;div style=&quot;forced-color-adjust: none; color: rgb(0, 0, 0); font-family: Helvetica; font-size: 12px; font-style: normal; font-variant-ligatures: normal; font-variant-caps: normal; font-weight: 400; letter-spacing: normal; orphans: 2; text-align: left; text-indent: 0px; text-transform: none; widows: 2; word-spacing: 0px; -webkit-text-stroke-width: 0px; white-space: normal; background-color: rgb(251, 251, 251); text-decoration-thickness: initial; text-decoration-style: initial; text-decoration-color: initial;&quot;&gt;&lt;font face=&quot;Roboto Mono&quot; style=&quot;forced-color-adjust: none;&quot;&gt;&amp;nbsp;[&amp;nbsp; &amp;nbsp; &amp;nbsp;]&lt;/font&gt;&lt;/div&gt;&lt;div style=&quot;forced-color-adjust: none; color: rgb(0, 0, 0); font-family: Helvetica; font-size: 12px; font-style: normal; font-variant-ligatures: normal; font-variant-caps: normal; font-weight: 400; letter-spacing: normal; orphans: 2; text-align: left; text-indent: 0px; text-transform: none; widows: 2; word-spacing: 0px; -webkit-text-stroke-width: 0px; white-space: normal; background-color: rgb(251, 251, 251); text-decoration-thickness: initial; text-decoration-style: initial; text-decoration-color: initial;&quot;&gt;&lt;font face=&quot;Roboto Mono&quot; style=&quot;forced-color-adjust: none;&quot;&gt;&amp;nbsp;[&amp;nbsp; &amp;nbsp; &amp;nbsp;]]&lt;/font&gt;&lt;/div&gt;" style="text;whiteSpace=wrap;html=1;fontFamily=Helvetica;fontSize=11;fontColor=default;labelBackgroundColor=default;" parent="1" vertex="1">
          <mxGeometry y="1440" width="70" height="170" as="geometry" />
        </mxCell>
        <mxCell id="mFFu5V0ILwPEUMLw151d-1" value="&lt;div style=&quot;forced-color-adjust: none; color: rgb(0, 0, 0); font-family: Helvetica; font-size: 12px; font-style: normal; font-variant-ligatures: normal; font-variant-caps: normal; font-weight: 400; letter-spacing: normal; orphans: 2; text-align: left; text-indent: 0px; text-transform: none; widows: 2; word-spacing: 0px; -webkit-text-stroke-width: 0px; white-space: normal; background-color: rgb(251, 251, 251); text-decoration-thickness: initial; text-decoration-style: initial; text-decoration-color: initial;&quot;&gt;&lt;font face=&quot;Roboto Mono&quot; style=&quot;forced-color-adjust: none;&quot;&gt;[[0.254]&lt;/font&gt;&lt;/div&gt;&lt;div style=&quot;forced-color-adjust: none; color: rgb(0, 0, 0); font-family: Helvetica; font-size: 12px; font-style: normal; font-variant-ligatures: normal; font-variant-caps: normal; font-weight: 400; letter-spacing: normal; orphans: 2; text-align: left; text-indent: 0px; text-transform: none; widows: 2; word-spacing: 0px; -webkit-text-stroke-width: 0px; white-space: normal; background-color: rgb(251, 251, 251); text-decoration-thickness: initial; text-decoration-style: initial; text-decoration-color: initial;&quot;&gt;&lt;font face=&quot;Roboto Mono&quot; style=&quot;forced-color-adjust: none;&quot;&gt;&amp;nbsp;[&amp;nbsp; &amp;nbsp; &amp;nbsp;]&lt;/font&gt;&lt;/div&gt;&lt;div style=&quot;forced-color-adjust: none; color: rgb(0, 0, 0); font-family: Helvetica; font-size: 12px; font-style: normal; font-variant-ligatures: normal; font-variant-caps: normal; font-weight: 400; letter-spacing: normal; orphans: 2; text-align: left; text-indent: 0px; text-transform: none; widows: 2; word-spacing: 0px; -webkit-text-stroke-width: 0px; white-space: normal; background-color: rgb(251, 251, 251); text-decoration-thickness: initial; text-decoration-style: initial; text-decoration-color: initial;&quot;&gt;&lt;font face=&quot;Roboto Mono&quot; style=&quot;forced-color-adjust: none;&quot;&gt;&amp;nbsp;[&amp;nbsp; &amp;nbsp; &amp;nbsp;]&lt;/font&gt;&lt;/div&gt;&lt;div style=&quot;forced-color-adjust: none; color: rgb(0, 0, 0); font-family: Helvetica; font-size: 12px; font-style: normal; font-variant-ligatures: normal; font-variant-caps: normal; font-weight: 400; letter-spacing: normal; orphans: 2; text-align: left; text-indent: 0px; text-transform: none; widows: 2; word-spacing: 0px; -webkit-text-stroke-width: 0px; white-space: normal; background-color: rgb(251, 251, 251); text-decoration-thickness: initial; text-decoration-style: initial; text-decoration-color: initial;&quot;&gt;&lt;font face=&quot;Roboto Mono&quot; style=&quot;forced-color-adjust: none;&quot;&gt;&amp;nbsp;[&amp;nbsp; &amp;nbsp; &amp;nbsp;]&lt;/font&gt;&lt;/div&gt;&lt;div style=&quot;forced-color-adjust: none; color: rgb(0, 0, 0); font-family: Helvetica; font-size: 12px; font-style: normal; font-variant-ligatures: normal; font-variant-caps: normal; font-weight: 400; letter-spacing: normal; orphans: 2; text-align: left; text-indent: 0px; text-transform: none; widows: 2; word-spacing: 0px; -webkit-text-stroke-width: 0px; white-space: normal; background-color: rgb(251, 251, 251); text-decoration-thickness: initial; text-decoration-style: initial; text-decoration-color: initial;&quot;&gt;&lt;font face=&quot;Roboto Mono&quot; style=&quot;forced-color-adjust: none;&quot;&gt;&amp;nbsp;[&amp;nbsp; &amp;nbsp; &amp;nbsp;]&lt;/font&gt;&lt;/div&gt;&lt;div style=&quot;forced-color-adjust: none; color: rgb(0, 0, 0); font-family: Helvetica; font-size: 12px; font-style: normal; font-variant-ligatures: normal; font-variant-caps: normal; font-weight: 400; letter-spacing: normal; orphans: 2; text-align: left; text-indent: 0px; text-transform: none; widows: 2; word-spacing: 0px; -webkit-text-stroke-width: 0px; white-space: normal; background-color: rgb(251, 251, 251); text-decoration-thickness: initial; text-decoration-style: initial; text-decoration-color: initial;&quot;&gt;&lt;font face=&quot;Roboto Mono&quot; style=&quot;forced-color-adjust: none;&quot;&gt;&amp;nbsp;[&amp;nbsp; &amp;nbsp; &amp;nbsp;]&lt;/font&gt;&lt;/div&gt;&lt;div style=&quot;forced-color-adjust: none; color: rgb(0, 0, 0); font-family: Helvetica; font-size: 12px; font-style: normal; font-variant-ligatures: normal; font-variant-caps: normal; font-weight: 400; letter-spacing: normal; orphans: 2; text-align: left; text-indent: 0px; text-transform: none; widows: 2; word-spacing: 0px; -webkit-text-stroke-width: 0px; white-space: normal; background-color: rgb(251, 251, 251); text-decoration-thickness: initial; text-decoration-style: initial; text-decoration-color: initial;&quot;&gt;&lt;font face=&quot;Roboto Mono&quot; style=&quot;forced-color-adjust: none;&quot;&gt;&amp;nbsp;[&amp;nbsp; &amp;nbsp; &amp;nbsp;]&lt;/font&gt;&lt;/div&gt;&lt;div style=&quot;forced-color-adjust: none; color: rgb(0, 0, 0); font-family: Helvetica; font-size: 12px; font-style: normal; font-variant-ligatures: normal; font-variant-caps: normal; font-weight: 400; letter-spacing: normal; orphans: 2; text-align: left; text-indent: 0px; text-transform: none; widows: 2; word-spacing: 0px; -webkit-text-stroke-width: 0px; white-space: normal; background-color: rgb(251, 251, 251); text-decoration-thickness: initial; text-decoration-style: initial; text-decoration-color: initial;&quot;&gt;&lt;font face=&quot;Roboto Mono&quot; style=&quot;forced-color-adjust: none;&quot;&gt;&amp;nbsp;[&amp;nbsp; &amp;nbsp; &amp;nbsp;]&lt;/font&gt;&lt;/div&gt;&lt;div style=&quot;forced-color-adjust: none; color: rgb(0, 0, 0); font-family: Helvetica; font-size: 12px; font-style: normal; font-variant-ligatures: normal; font-variant-caps: normal; font-weight: 400; letter-spacing: normal; orphans: 2; text-align: left; text-indent: 0px; text-transform: none; widows: 2; word-spacing: 0px; -webkit-text-stroke-width: 0px; white-space: normal; background-color: rgb(251, 251, 251); text-decoration-thickness: initial; text-decoration-style: initial; text-decoration-color: initial;&quot;&gt;&lt;font face=&quot;Roboto Mono&quot; style=&quot;forced-color-adjust: none;&quot;&gt;&amp;nbsp;[&amp;nbsp; &amp;nbsp; &amp;nbsp;]&lt;/font&gt;&lt;/div&gt;&lt;div style=&quot;forced-color-adjust: none; color: rgb(0, 0, 0); font-family: Helvetica; font-size: 12px; font-style: normal; font-variant-ligatures: normal; font-variant-caps: normal; font-weight: 400; letter-spacing: normal; orphans: 2; text-align: left; text-indent: 0px; text-transform: none; widows: 2; word-spacing: 0px; -webkit-text-stroke-width: 0px; white-space: normal; background-color: rgb(251, 251, 251); text-decoration-thickness: initial; text-decoration-style: initial; text-decoration-color: initial;&quot;&gt;&lt;font face=&quot;Roboto Mono&quot; style=&quot;forced-color-adjust: none;&quot;&gt;&amp;nbsp;[&amp;nbsp; &amp;nbsp; &amp;nbsp;]]&lt;/font&gt;&lt;/div&gt;" style="text;whiteSpace=wrap;html=1;fontFamily=Helvetica;fontSize=11;fontColor=default;labelBackgroundColor=default;" vertex="1" parent="1">
          <mxGeometry x="440" y="1240" width="70" height="170" as="geometry" />
        </mxCell>
        <mxCell id="mFFu5V0ILwPEUMLw151d-2" value="&lt;div&gt;&lt;font face=&quot;Roboto Mono&quot;&gt;dot([&lt;/font&gt;&lt;span style=&quot;font-family: &amp;quot;Roboto Mono&amp;quot;; background-color: initial;&quot;&gt;0, 1, 1, 0, 0, 0, 0, 0, 0, 0&lt;/span&gt;&lt;span style=&quot;font-family: &amp;quot;Roboto Mono&amp;quot;; background-color: initial;&quot;&gt;]) = 0.762&lt;/span&gt;&lt;/div&gt;&lt;font face=&quot;Roboto Mono&quot;&gt;&amp;nbsp; &amp;nbsp; [&amp;nbsp; &amp;nbsp; &amp;nbsp; &amp;nbsp; &amp;nbsp; &amp;nbsp; &amp;nbsp; &amp;nbsp; &amp;nbsp; &amp;nbsp; &amp;nbsp; &amp;nbsp; &amp;nbsp; &amp;nbsp; ]&lt;br&gt;&lt;/font&gt;&lt;span style=&quot;font-family: &amp;quot;Roboto Mono&amp;quot;;&quot;&gt;&amp;nbsp; &amp;nbsp; [&amp;nbsp; &amp;nbsp; &amp;nbsp; &amp;nbsp; &amp;nbsp; &amp;nbsp; &amp;nbsp; &amp;nbsp; &amp;nbsp; &amp;nbsp; &amp;nbsp; &amp;nbsp; &amp;nbsp; &amp;nbsp; ]&lt;/span&gt;&lt;font face=&quot;Roboto Mono&quot;&gt;&lt;br&gt;&lt;/font&gt;&lt;div&gt;&lt;span style=&quot;font-family: &amp;quot;Roboto Mono&amp;quot;;&quot;&gt;&amp;nbsp; &amp;nbsp; [&amp;nbsp; &amp;nbsp; &amp;nbsp; &amp;nbsp; &amp;nbsp; &amp;nbsp; &amp;nbsp; &amp;nbsp; &amp;nbsp; &amp;nbsp; &amp;nbsp; &amp;nbsp; &amp;nbsp; &amp;nbsp; ]&lt;/span&gt;&lt;span style=&quot;font-family: &amp;quot;Roboto Mono&amp;quot;;&quot;&gt;&lt;br&gt;&lt;/span&gt;&lt;/div&gt;&lt;div&gt;&lt;span style=&quot;font-family: &amp;quot;Roboto Mono&amp;quot;;&quot;&gt;&amp;nbsp; &amp;nbsp; [&amp;nbsp; &amp;nbsp; &amp;nbsp; &amp;nbsp; &amp;nbsp; &amp;nbsp; &amp;nbsp; &amp;nbsp; &amp;nbsp; &amp;nbsp; &amp;nbsp; &amp;nbsp; &amp;nbsp; &amp;nbsp; ]&lt;/span&gt;&lt;span style=&quot;font-family: &amp;quot;Roboto Mono&amp;quot;;&quot;&gt;&lt;br&gt;&lt;/span&gt;&lt;/div&gt;&lt;div&gt;&lt;span style=&quot;font-family: &amp;quot;Roboto Mono&amp;quot;;&quot;&gt;&amp;nbsp; &amp;nbsp; [&amp;nbsp; &amp;nbsp; &amp;nbsp; &amp;nbsp; &amp;nbsp; &amp;nbsp; &amp;nbsp; &amp;nbsp; &amp;nbsp; &amp;nbsp; &amp;nbsp; &amp;nbsp; &amp;nbsp; &amp;nbsp; ]&lt;/span&gt;&lt;span style=&quot;font-family: &amp;quot;Roboto Mono&amp;quot;;&quot;&gt;&lt;br&gt;&lt;/span&gt;&lt;/div&gt;&lt;div&gt;&lt;span style=&quot;font-family: &amp;quot;Roboto Mono&amp;quot;;&quot;&gt;&amp;nbsp; &amp;nbsp; [&amp;nbsp; &amp;nbsp; &amp;nbsp; &amp;nbsp; &amp;nbsp; &amp;nbsp; &amp;nbsp; &amp;nbsp; &amp;nbsp; &amp;nbsp; &amp;nbsp; &amp;nbsp; &amp;nbsp; &amp;nbsp; ]&lt;/span&gt;&lt;span style=&quot;font-family: &amp;quot;Roboto Mono&amp;quot;;&quot;&gt;&lt;br&gt;&lt;/span&gt;&lt;/div&gt;&lt;div&gt;&lt;span style=&quot;font-family: &amp;quot;Roboto Mono&amp;quot;;&quot;&gt;&amp;nbsp; &amp;nbsp; [&amp;nbsp; &amp;nbsp; &amp;nbsp; &amp;nbsp; &amp;nbsp; &amp;nbsp; &amp;nbsp; &amp;nbsp; &amp;nbsp; &amp;nbsp; &amp;nbsp; &amp;nbsp; &amp;nbsp; &amp;nbsp; ]&lt;/span&gt;&lt;span style=&quot;font-family: &amp;quot;Roboto Mono&amp;quot;;&quot;&gt;&lt;br&gt;&lt;/span&gt;&lt;/div&gt;&lt;div&gt;&lt;span style=&quot;font-family: &amp;quot;Roboto Mono&amp;quot;;&quot;&gt;&amp;nbsp; &amp;nbsp; [&amp;nbsp; &amp;nbsp; &amp;nbsp; &amp;nbsp; &amp;nbsp; &amp;nbsp; &amp;nbsp; &amp;nbsp; &amp;nbsp; &amp;nbsp; &amp;nbsp; &amp;nbsp; &amp;nbsp; &amp;nbsp; ]&lt;/span&gt;&lt;span style=&quot;font-family: &amp;quot;Roboto Mono&amp;quot;;&quot;&gt;&lt;br&gt;&lt;/span&gt;&lt;/div&gt;&lt;div&gt;&lt;span style=&quot;font-family: &amp;quot;Roboto Mono&amp;quot;;&quot;&gt;&amp;nbsp; &amp;nbsp; [&amp;nbsp; &amp;nbsp; &amp;nbsp; &amp;nbsp; &amp;nbsp; &amp;nbsp; &amp;nbsp; &amp;nbsp; &amp;nbsp; &amp;nbsp; &amp;nbsp; &amp;nbsp; &amp;nbsp; &amp;nbsp; ]&lt;/span&gt;&lt;span style=&quot;font-family: &amp;quot;Roboto Mono&amp;quot;;&quot;&gt;&lt;br&gt;&lt;/span&gt;&lt;/div&gt;" style="text;html=1;align=left;verticalAlign=top;whiteSpace=wrap;rounded=0;spacingLeft=6;spacing=0;" vertex="1" parent="1">
          <mxGeometry x="80" y="1440" width="330" height="170" as="geometry" />
        </mxCell>
        <mxCell id="mFFu5V0ILwPEUMLw151d-3" value="" style="endArrow=block;html=1;rounded=0;strokeWidth=4;endFill=1;" edge="1" parent="1">
          <mxGeometry width="50" height="50" relative="1" as="geometry">
            <mxPoint x="380" y="1320" as="sourcePoint" />
            <mxPoint x="420" y="1320" as="targetPoint" />
          </mxGeometry>
        </mxCell>
        <mxCell id="mFFu5V0ILwPEUMLw151d-4" value="" style="endArrow=block;html=1;rounded=0;strokeWidth=4;endFill=1;" edge="1" parent="1">
          <mxGeometry width="50" height="50" relative="1" as="geometry">
            <mxPoint x="440" y="1210" as="sourcePoint" />
            <mxPoint x="480" y="1210" as="targetPoint" />
          </mxGeometry>
        </mxCell>
        <mxCell id="mFFu5V0ILwPEUMLw151d-5" value="&lt;font style=&quot;font-size: 12px;&quot; face=&quot;Roboto Mono&quot;&gt;normalize to its norm&lt;/font&gt;" style="text;html=1;align=left;verticalAlign=top;whiteSpace=wrap;rounded=0;spacingLeft=6;spacing=0;fontSize=12;" vertex="1" parent="1">
          <mxGeometry x="490" y="1200" width="170" height="30" as="geometry" />
        </mxCell>
        <mxCell id="mFFu5V0ILwPEUMLw151d-6" value="&lt;div style=&quot;forced-color-adjust: none; color: rgb(0, 0, 0); font-family: Helvetica; font-size: 12px; font-style: normal; font-variant-ligatures: normal; font-variant-caps: normal; font-weight: 400; letter-spacing: normal; orphans: 2; text-align: left; text-indent: 0px; text-transform: none; widows: 2; word-spacing: 0px; -webkit-text-stroke-width: 0px; white-space: normal; background-color: rgb(251, 251, 251); text-decoration-thickness: initial; text-decoration-style: initial; text-decoration-color: initial;&quot;&gt;&lt;font face=&quot;Roboto Mono&quot; style=&quot;forced-color-adjust: none;&quot;&gt;[[0.298]&lt;/font&gt;&lt;/div&gt;&lt;div style=&quot;forced-color-adjust: none; color: rgb(0, 0, 0); font-family: Helvetica; font-size: 12px; font-style: normal; font-variant-ligatures: normal; font-variant-caps: normal; font-weight: 400; letter-spacing: normal; orphans: 2; text-align: left; text-indent: 0px; text-transform: none; widows: 2; word-spacing: 0px; -webkit-text-stroke-width: 0px; white-space: normal; background-color: rgb(251, 251, 251); text-decoration-thickness: initial; text-decoration-style: initial; text-decoration-color: initial;&quot;&gt;&lt;font face=&quot;Roboto Mono&quot; style=&quot;forced-color-adjust: none;&quot;&gt;&amp;nbsp;[&amp;nbsp; &amp;nbsp; &amp;nbsp;]&lt;/font&gt;&lt;/div&gt;&lt;div style=&quot;forced-color-adjust: none; color: rgb(0, 0, 0); font-family: Helvetica; font-size: 12px; font-style: normal; font-variant-ligatures: normal; font-variant-caps: normal; font-weight: 400; letter-spacing: normal; orphans: 2; text-align: left; text-indent: 0px; text-transform: none; widows: 2; word-spacing: 0px; -webkit-text-stroke-width: 0px; white-space: normal; background-color: rgb(251, 251, 251); text-decoration-thickness: initial; text-decoration-style: initial; text-decoration-color: initial;&quot;&gt;&lt;font face=&quot;Roboto Mono&quot; style=&quot;forced-color-adjust: none;&quot;&gt;&amp;nbsp;[&amp;nbsp; &amp;nbsp; &amp;nbsp;]&lt;/font&gt;&lt;/div&gt;&lt;div style=&quot;forced-color-adjust: none; color: rgb(0, 0, 0); font-family: Helvetica; font-size: 12px; font-style: normal; font-variant-ligatures: normal; font-variant-caps: normal; font-weight: 400; letter-spacing: normal; orphans: 2; text-align: left; text-indent: 0px; text-transform: none; widows: 2; word-spacing: 0px; -webkit-text-stroke-width: 0px; white-space: normal; background-color: rgb(251, 251, 251); text-decoration-thickness: initial; text-decoration-style: initial; text-decoration-color: initial;&quot;&gt;&lt;font face=&quot;Roboto Mono&quot; style=&quot;forced-color-adjust: none;&quot;&gt;&amp;nbsp;[&amp;nbsp; &amp;nbsp; &amp;nbsp;]&lt;/font&gt;&lt;/div&gt;&lt;div style=&quot;forced-color-adjust: none; color: rgb(0, 0, 0); font-family: Helvetica; font-size: 12px; font-style: normal; font-variant-ligatures: normal; font-variant-caps: normal; font-weight: 400; letter-spacing: normal; orphans: 2; text-align: left; text-indent: 0px; text-transform: none; widows: 2; word-spacing: 0px; -webkit-text-stroke-width: 0px; white-space: normal; background-color: rgb(251, 251, 251); text-decoration-thickness: initial; text-decoration-style: initial; text-decoration-color: initial;&quot;&gt;&lt;font face=&quot;Roboto Mono&quot; style=&quot;forced-color-adjust: none;&quot;&gt;&amp;nbsp;[&amp;nbsp; &amp;nbsp; &amp;nbsp;]&lt;/font&gt;&lt;/div&gt;&lt;div style=&quot;forced-color-adjust: none; color: rgb(0, 0, 0); font-family: Helvetica; font-size: 12px; font-style: normal; font-variant-ligatures: normal; font-variant-caps: normal; font-weight: 400; letter-spacing: normal; orphans: 2; text-align: left; text-indent: 0px; text-transform: none; widows: 2; word-spacing: 0px; -webkit-text-stroke-width: 0px; white-space: normal; background-color: rgb(251, 251, 251); text-decoration-thickness: initial; text-decoration-style: initial; text-decoration-color: initial;&quot;&gt;&lt;font face=&quot;Roboto Mono&quot; style=&quot;forced-color-adjust: none;&quot;&gt;&amp;nbsp;[&amp;nbsp; &amp;nbsp; &amp;nbsp;]&lt;/font&gt;&lt;/div&gt;&lt;div style=&quot;forced-color-adjust: none; color: rgb(0, 0, 0); font-family: Helvetica; font-size: 12px; font-style: normal; font-variant-ligatures: normal; font-variant-caps: normal; font-weight: 400; letter-spacing: normal; orphans: 2; text-align: left; text-indent: 0px; text-transform: none; widows: 2; word-spacing: 0px; -webkit-text-stroke-width: 0px; white-space: normal; background-color: rgb(251, 251, 251); text-decoration-thickness: initial; text-decoration-style: initial; text-decoration-color: initial;&quot;&gt;&lt;font face=&quot;Roboto Mono&quot; style=&quot;forced-color-adjust: none;&quot;&gt;&amp;nbsp;[&amp;nbsp; &amp;nbsp; &amp;nbsp;]&lt;/font&gt;&lt;/div&gt;&lt;div style=&quot;forced-color-adjust: none; color: rgb(0, 0, 0); font-family: Helvetica; font-size: 12px; font-style: normal; font-variant-ligatures: normal; font-variant-caps: normal; font-weight: 400; letter-spacing: normal; orphans: 2; text-align: left; text-indent: 0px; text-transform: none; widows: 2; word-spacing: 0px; -webkit-text-stroke-width: 0px; white-space: normal; background-color: rgb(251, 251, 251); text-decoration-thickness: initial; text-decoration-style: initial; text-decoration-color: initial;&quot;&gt;&lt;font face=&quot;Roboto Mono&quot; style=&quot;forced-color-adjust: none;&quot;&gt;&amp;nbsp;[&amp;nbsp; &amp;nbsp; &amp;nbsp;]&lt;/font&gt;&lt;/div&gt;&lt;div style=&quot;forced-color-adjust: none; color: rgb(0, 0, 0); font-family: Helvetica; font-size: 12px; font-style: normal; font-variant-ligatures: normal; font-variant-caps: normal; font-weight: 400; letter-spacing: normal; orphans: 2; text-align: left; text-indent: 0px; text-transform: none; widows: 2; word-spacing: 0px; -webkit-text-stroke-width: 0px; white-space: normal; background-color: rgb(251, 251, 251); text-decoration-thickness: initial; text-decoration-style: initial; text-decoration-color: initial;&quot;&gt;&lt;font face=&quot;Roboto Mono&quot; style=&quot;forced-color-adjust: none;&quot;&gt;&amp;nbsp;[&amp;nbsp; &amp;nbsp; &amp;nbsp;]&lt;/font&gt;&lt;/div&gt;&lt;div style=&quot;forced-color-adjust: none; color: rgb(0, 0, 0); font-family: Helvetica; font-size: 12px; font-style: normal; font-variant-ligatures: normal; font-variant-caps: normal; font-weight: 400; letter-spacing: normal; orphans: 2; text-align: left; text-indent: 0px; text-transform: none; widows: 2; word-spacing: 0px; -webkit-text-stroke-width: 0px; white-space: normal; background-color: rgb(251, 251, 251); text-decoration-thickness: initial; text-decoration-style: initial; text-decoration-color: initial;&quot;&gt;&lt;font face=&quot;Roboto Mono&quot; style=&quot;forced-color-adjust: none;&quot;&gt;&amp;nbsp;[&amp;nbsp; &amp;nbsp; &amp;nbsp;]]&lt;/font&gt;&lt;/div&gt;" style="text;whiteSpace=wrap;html=1;fontFamily=Helvetica;fontSize=11;fontColor=default;labelBackgroundColor=default;" vertex="1" parent="1">
          <mxGeometry x="440" y="1440" width="70" height="170" as="geometry" />
        </mxCell>
        <mxCell id="mFFu5V0ILwPEUMLw151d-7" value="" style="endArrow=block;html=1;rounded=0;strokeWidth=4;endFill=1;" edge="1" parent="1">
          <mxGeometry width="50" height="50" relative="1" as="geometry">
            <mxPoint x="374" y="1520" as="sourcePoint" />
            <mxPoint x="414" y="1520" as="targetPoint" />
          </mxGeometry>
        </mxCell>
        <mxCell id="mFFu5V0ILwPEUMLw151d-8" value="&lt;div style=&quot;forced-color-adjust: none; color: rgb(0, 0, 0); font-family: Helvetica; font-size: 12px; font-style: normal; font-variant-ligatures: normal; font-variant-caps: normal; font-weight: 400; letter-spacing: normal; orphans: 2; text-align: left; text-indent: 0px; text-transform: none; widows: 2; word-spacing: 0px; -webkit-text-stroke-width: 0px; white-space: normal; background-color: rgb(251, 251, 251); text-decoration-thickness: initial; text-decoration-style: initial; text-decoration-color: initial;&quot;&gt;&lt;font face=&quot;Roboto Mono&quot; style=&quot;forced-color-adjust: none;&quot;&gt;[[&amp;nbsp; &amp;nbsp; &amp;nbsp;]&lt;/font&gt;&lt;/div&gt;&lt;div style=&quot;forced-color-adjust: none; color: rgb(0, 0, 0); font-family: Helvetica; font-size: 12px; font-style: normal; font-variant-ligatures: normal; font-variant-caps: normal; font-weight: 400; letter-spacing: normal; orphans: 2; text-align: left; text-indent: 0px; text-transform: none; widows: 2; word-spacing: 0px; -webkit-text-stroke-width: 0px; white-space: normal; background-color: rgb(251, 251, 251); text-decoration-thickness: initial; text-decoration-style: initial; text-decoration-color: initial;&quot;&gt;&lt;font face=&quot;Roboto Mono&quot; style=&quot;forced-color-adjust: none;&quot;&gt;&amp;nbsp;[0.397]&lt;/font&gt;&lt;/div&gt;&lt;div style=&quot;forced-color-adjust: none; color: rgb(0, 0, 0); font-family: Helvetica; font-size: 12px; font-style: normal; font-variant-ligatures: normal; font-variant-caps: normal; font-weight: 400; letter-spacing: normal; orphans: 2; text-align: left; text-indent: 0px; text-transform: none; widows: 2; word-spacing: 0px; -webkit-text-stroke-width: 0px; white-space: normal; background-color: rgb(251, 251, 251); text-decoration-thickness: initial; text-decoration-style: initial; text-decoration-color: initial;&quot;&gt;&lt;font face=&quot;Roboto Mono&quot; style=&quot;forced-color-adjust: none;&quot;&gt;&amp;nbsp;[0.397]&lt;/font&gt;&lt;/div&gt;&lt;div style=&quot;forced-color-adjust: none; color: rgb(0, 0, 0); font-family: Helvetica; font-size: 12px; font-style: normal; font-variant-ligatures: normal; font-variant-caps: normal; font-weight: 400; letter-spacing: normal; orphans: 2; text-align: left; text-indent: 0px; text-transform: none; widows: 2; word-spacing: 0px; -webkit-text-stroke-width: 0px; white-space: normal; background-color: rgb(251, 251, 251); text-decoration-thickness: initial; text-decoration-style: initial; text-decoration-color: initial;&quot;&gt;&lt;font face=&quot;Roboto Mono&quot; style=&quot;forced-color-adjust: none;&quot;&gt;&amp;nbsp;[&amp;nbsp; &amp;nbsp; &amp;nbsp;]&lt;/font&gt;&lt;/div&gt;&lt;div style=&quot;forced-color-adjust: none; color: rgb(0, 0, 0); font-family: Helvetica; font-size: 12px; font-style: normal; font-variant-ligatures: normal; font-variant-caps: normal; font-weight: 400; letter-spacing: normal; orphans: 2; text-align: left; text-indent: 0px; text-transform: none; widows: 2; word-spacing: 0px; -webkit-text-stroke-width: 0px; white-space: normal; background-color: rgb(251, 251, 251); text-decoration-thickness: initial; text-decoration-style: initial; text-decoration-color: initial;&quot;&gt;&lt;font face=&quot;Roboto Mono&quot; style=&quot;forced-color-adjust: none;&quot;&gt;&amp;nbsp;[&amp;nbsp; &amp;nbsp; &amp;nbsp;]&lt;/font&gt;&lt;/div&gt;&lt;div style=&quot;forced-color-adjust: none; color: rgb(0, 0, 0); font-family: Helvetica; font-size: 12px; font-style: normal; font-variant-ligatures: normal; font-variant-caps: normal; font-weight: 400; letter-spacing: normal; orphans: 2; text-align: left; text-indent: 0px; text-transform: none; widows: 2; word-spacing: 0px; -webkit-text-stroke-width: 0px; white-space: normal; background-color: rgb(251, 251, 251); text-decoration-thickness: initial; text-decoration-style: initial; text-decoration-color: initial;&quot;&gt;&lt;font face=&quot;Roboto Mono&quot; style=&quot;forced-color-adjust: none;&quot;&gt;&amp;nbsp;[&amp;nbsp; &amp;nbsp; &amp;nbsp;]&lt;/font&gt;&lt;/div&gt;&lt;div style=&quot;forced-color-adjust: none; color: rgb(0, 0, 0); font-family: Helvetica; font-size: 12px; font-style: normal; font-variant-ligatures: normal; font-variant-caps: normal; font-weight: 400; letter-spacing: normal; orphans: 2; text-align: left; text-indent: 0px; text-transform: none; widows: 2; word-spacing: 0px; -webkit-text-stroke-width: 0px; white-space: normal; background-color: rgb(251, 251, 251); text-decoration-thickness: initial; text-decoration-style: initial; text-decoration-color: initial;&quot;&gt;&lt;font face=&quot;Roboto Mono&quot; style=&quot;forced-color-adjust: none;&quot;&gt;&amp;nbsp;[&amp;nbsp; &amp;nbsp; &amp;nbsp;]&lt;/font&gt;&lt;/div&gt;&lt;div style=&quot;forced-color-adjust: none; color: rgb(0, 0, 0); font-family: Helvetica; font-size: 12px; font-style: normal; font-variant-ligatures: normal; font-variant-caps: normal; font-weight: 400; letter-spacing: normal; orphans: 2; text-align: left; text-indent: 0px; text-transform: none; widows: 2; word-spacing: 0px; -webkit-text-stroke-width: 0px; white-space: normal; background-color: rgb(251, 251, 251); text-decoration-thickness: initial; text-decoration-style: initial; text-decoration-color: initial;&quot;&gt;&lt;font face=&quot;Roboto Mono&quot; style=&quot;forced-color-adjust: none;&quot;&gt;&amp;nbsp;[&amp;nbsp; &amp;nbsp; &amp;nbsp;]&lt;/font&gt;&lt;/div&gt;&lt;div style=&quot;forced-color-adjust: none; color: rgb(0, 0, 0); font-family: Helvetica; font-size: 12px; font-style: normal; font-variant-ligatures: normal; font-variant-caps: normal; font-weight: 400; letter-spacing: normal; orphans: 2; text-align: left; text-indent: 0px; text-transform: none; widows: 2; word-spacing: 0px; -webkit-text-stroke-width: 0px; white-space: normal; background-color: rgb(251, 251, 251); text-decoration-thickness: initial; text-decoration-style: initial; text-decoration-color: initial;&quot;&gt;&lt;font face=&quot;Roboto Mono&quot; style=&quot;forced-color-adjust: none;&quot;&gt;&amp;nbsp;[&amp;nbsp; &amp;nbsp; &amp;nbsp;]&lt;/font&gt;&lt;/div&gt;&lt;div style=&quot;forced-color-adjust: none; color: rgb(0, 0, 0); font-family: Helvetica; font-size: 12px; font-style: normal; font-variant-ligatures: normal; font-variant-caps: normal; font-weight: 400; letter-spacing: normal; orphans: 2; text-align: left; text-indent: 0px; text-transform: none; widows: 2; word-spacing: 0px; -webkit-text-stroke-width: 0px; white-space: normal; background-color: rgb(251, 251, 251); text-decoration-thickness: initial; text-decoration-style: initial; text-decoration-color: initial;&quot;&gt;&lt;font face=&quot;Roboto Mono&quot; style=&quot;forced-color-adjust: none;&quot;&gt;&amp;nbsp;[&amp;nbsp; &amp;nbsp; &amp;nbsp;]]&lt;/font&gt;&lt;/div&gt;" style="text;whiteSpace=wrap;html=1;fontFamily=Helvetica;fontSize=11;fontColor=default;labelBackgroundColor=default;" vertex="1" parent="1">
          <mxGeometry y="1640" width="70" height="170" as="geometry" />
        </mxCell>
        <mxCell id="mFFu5V0ILwPEUMLw151d-10" value="&lt;div style=&quot;forced-color-adjust: none; color: rgb(0, 0, 0); font-family: Helvetica; font-size: 12px; font-style: normal; font-variant-ligatures: normal; font-variant-caps: normal; font-weight: 400; letter-spacing: normal; orphans: 2; text-align: left; text-indent: 0px; text-transform: none; widows: 2; word-spacing: 0px; -webkit-text-stroke-width: 0px; white-space: normal; background-color: rgb(251, 251, 251); text-decoration-thickness: initial; text-decoration-style: initial; text-decoration-color: initial;&quot;&gt;&lt;font face=&quot;Roboto Mono&quot; style=&quot;forced-color-adjust: none;&quot;&gt;[[ ]&lt;/font&gt;&lt;/div&gt;&lt;div style=&quot;forced-color-adjust: none; color: rgb(0, 0, 0); font-family: Helvetica; font-size: 12px; font-style: normal; font-variant-ligatures: normal; font-variant-caps: normal; font-weight: 400; letter-spacing: normal; orphans: 2; text-align: left; text-indent: 0px; text-transform: none; widows: 2; word-spacing: 0px; -webkit-text-stroke-width: 0px; white-space: normal; background-color: rgb(251, 251, 251); text-decoration-thickness: initial; text-decoration-style: initial; text-decoration-color: initial;&quot;&gt;&lt;font face=&quot;Roboto Mono&quot; style=&quot;forced-color-adjust: none;&quot;&gt;&amp;nbsp;[1]&lt;/font&gt;&lt;/div&gt;&lt;div style=&quot;forced-color-adjust: none; color: rgb(0, 0, 0); font-family: Helvetica; font-size: 12px; font-style: normal; font-variant-ligatures: normal; font-variant-caps: normal; font-weight: 400; letter-spacing: normal; orphans: 2; text-align: left; text-indent: 0px; text-transform: none; widows: 2; word-spacing: 0px; -webkit-text-stroke-width: 0px; white-space: normal; background-color: rgb(251, 251, 251); text-decoration-thickness: initial; text-decoration-style: initial; text-decoration-color: initial;&quot;&gt;&lt;font face=&quot;Roboto Mono&quot; style=&quot;forced-color-adjust: none;&quot;&gt;&amp;nbsp;[1]&lt;/font&gt;&lt;/div&gt;&lt;div style=&quot;forced-color-adjust: none; color: rgb(0, 0, 0); font-family: Helvetica; font-size: 12px; font-style: normal; font-variant-ligatures: normal; font-variant-caps: normal; font-weight: 400; letter-spacing: normal; orphans: 2; text-align: left; text-indent: 0px; text-transform: none; widows: 2; word-spacing: 0px; -webkit-text-stroke-width: 0px; white-space: normal; background-color: rgb(251, 251, 251); text-decoration-thickness: initial; text-decoration-style: initial; text-decoration-color: initial;&quot;&gt;&lt;font face=&quot;Roboto Mono&quot; style=&quot;forced-color-adjust: none;&quot;&gt;&amp;nbsp;[ ]&lt;/font&gt;&lt;/div&gt;&lt;div style=&quot;forced-color-adjust: none; color: rgb(0, 0, 0); font-family: Helvetica; font-size: 12px; font-style: normal; font-variant-ligatures: normal; font-variant-caps: normal; font-weight: 400; letter-spacing: normal; orphans: 2; text-align: left; text-indent: 0px; text-transform: none; widows: 2; word-spacing: 0px; -webkit-text-stroke-width: 0px; white-space: normal; background-color: rgb(251, 251, 251); text-decoration-thickness: initial; text-decoration-style: initial; text-decoration-color: initial;&quot;&gt;&lt;font face=&quot;Roboto Mono&quot; style=&quot;forced-color-adjust: none;&quot;&gt;&amp;nbsp;[ ]&lt;/font&gt;&lt;/div&gt;&lt;div style=&quot;forced-color-adjust: none; color: rgb(0, 0, 0); font-family: Helvetica; font-size: 12px; font-style: normal; font-variant-ligatures: normal; font-variant-caps: normal; font-weight: 400; letter-spacing: normal; orphans: 2; text-align: left; text-indent: 0px; text-transform: none; widows: 2; word-spacing: 0px; -webkit-text-stroke-width: 0px; white-space: normal; background-color: rgb(251, 251, 251); text-decoration-thickness: initial; text-decoration-style: initial; text-decoration-color: initial;&quot;&gt;&lt;font face=&quot;Roboto Mono&quot; style=&quot;forced-color-adjust: none;&quot;&gt;&amp;nbsp;[ ]&lt;/font&gt;&lt;/div&gt;&lt;div style=&quot;forced-color-adjust: none; color: rgb(0, 0, 0); font-family: Helvetica; font-size: 12px; font-style: normal; font-variant-ligatures: normal; font-variant-caps: normal; font-weight: 400; letter-spacing: normal; orphans: 2; text-align: left; text-indent: 0px; text-transform: none; widows: 2; word-spacing: 0px; -webkit-text-stroke-width: 0px; white-space: normal; background-color: rgb(251, 251, 251); text-decoration-thickness: initial; text-decoration-style: initial; text-decoration-color: initial;&quot;&gt;&lt;font face=&quot;Roboto Mono&quot; style=&quot;forced-color-adjust: none;&quot;&gt;&amp;nbsp;[ ]&lt;/font&gt;&lt;/div&gt;&lt;div style=&quot;forced-color-adjust: none; color: rgb(0, 0, 0); font-family: Helvetica; font-size: 12px; font-style: normal; font-variant-ligatures: normal; font-variant-caps: normal; font-weight: 400; letter-spacing: normal; orphans: 2; text-align: left; text-indent: 0px; text-transform: none; widows: 2; word-spacing: 0px; -webkit-text-stroke-width: 0px; white-space: normal; background-color: rgb(251, 251, 251); text-decoration-thickness: initial; text-decoration-style: initial; text-decoration-color: initial;&quot;&gt;&lt;font face=&quot;Roboto Mono&quot; style=&quot;forced-color-adjust: none;&quot;&gt;&amp;nbsp;[ ]&lt;/font&gt;&lt;/div&gt;&lt;div style=&quot;forced-color-adjust: none; color: rgb(0, 0, 0); font-family: Helvetica; font-size: 12px; font-style: normal; font-variant-ligatures: normal; font-variant-caps: normal; font-weight: 400; letter-spacing: normal; orphans: 2; text-align: left; text-indent: 0px; text-transform: none; widows: 2; word-spacing: 0px; -webkit-text-stroke-width: 0px; white-space: normal; background-color: rgb(251, 251, 251); text-decoration-thickness: initial; text-decoration-style: initial; text-decoration-color: initial;&quot;&gt;&lt;font face=&quot;Roboto Mono&quot; style=&quot;forced-color-adjust: none;&quot;&gt;&amp;nbsp;[ ]&lt;/font&gt;&lt;/div&gt;&lt;div style=&quot;forced-color-adjust: none; color: rgb(0, 0, 0); font-family: Helvetica; font-size: 12px; font-style: normal; font-variant-ligatures: normal; font-variant-caps: normal; font-weight: 400; letter-spacing: normal; orphans: 2; text-align: left; text-indent: 0px; text-transform: none; widows: 2; word-spacing: 0px; -webkit-text-stroke-width: 0px; white-space: normal; background-color: rgb(251, 251, 251); text-decoration-thickness: initial; text-decoration-style: initial; text-decoration-color: initial;&quot;&gt;&lt;font face=&quot;Roboto Mono&quot; style=&quot;forced-color-adjust: none;&quot;&gt;&amp;nbsp;[ ]]&lt;/font&gt;&lt;/div&gt;" style="text;whiteSpace=wrap;html=1;fontFamily=Helvetica;fontSize=11;fontColor=default;labelBackgroundColor=default;" vertex="1" parent="1">
          <mxGeometry y="1240" width="70" height="170" as="geometry" />
        </mxCell>
        <mxCell id="mFFu5V0ILwPEUMLw151d-11" value="&lt;div&gt;&lt;font face=&quot;Roboto Mono&quot;&gt;&amp;nbsp; &amp;nbsp; [&amp;nbsp; &amp;nbsp; &amp;nbsp; &amp;nbsp; &amp;nbsp; &amp;nbsp; &amp;nbsp; &amp;nbsp; &amp;nbsp; &amp;nbsp; &amp;nbsp; &amp;nbsp; &amp;nbsp; &amp;nbsp;&amp;nbsp;&lt;/font&gt;&lt;span style=&quot;font-family: &amp;quot;Roboto Mono&amp;quot;; background-color: initial;&quot;&gt;]&amp;nbsp;&lt;/span&gt;&lt;/div&gt;&lt;font face=&quot;Roboto Mono&quot;&gt;dot([&lt;/font&gt;&lt;span style=&quot;font-family: &amp;quot;Roboto Mono&amp;quot;;&quot;&gt;1, 0, 1, 1, 0, 0, 0, 0, 0, 0&lt;/span&gt;&lt;font face=&quot;Roboto Mono&quot;&gt;]) = 3&lt;br&gt;&lt;/font&gt;&lt;span style=&quot;font-family: &amp;quot;Roboto Mono&amp;quot;;&quot;&gt;dot([&lt;/span&gt;&lt;span style=&quot;font-family: &amp;quot;Roboto Mono&amp;quot;;&quot;&gt;1, 1, 0, 1, 0, 0, 0, 0, 0, 0&lt;/span&gt;&lt;span style=&quot;font-family: &amp;quot;Roboto Mono&amp;quot;;&quot;&gt;]) = 3&lt;/span&gt;&lt;font face=&quot;Roboto Mono&quot;&gt;&lt;br&gt;&lt;/font&gt;&lt;div&gt;&lt;span style=&quot;font-family: &amp;quot;Roboto Mono&amp;quot;;&quot;&gt;&amp;nbsp; &amp;nbsp; [&amp;nbsp; &amp;nbsp; &amp;nbsp; &amp;nbsp; &amp;nbsp; &amp;nbsp; &amp;nbsp; &amp;nbsp; &amp;nbsp; &amp;nbsp; &amp;nbsp; &amp;nbsp; &amp;nbsp; &amp;nbsp; ]&lt;/span&gt;&lt;span style=&quot;font-family: &amp;quot;Roboto Mono&amp;quot;;&quot;&gt;&lt;br&gt;&lt;/span&gt;&lt;/div&gt;&lt;div&gt;&lt;span style=&quot;font-family: &amp;quot;Roboto Mono&amp;quot;;&quot;&gt;&amp;nbsp; &amp;nbsp; [&amp;nbsp; &amp;nbsp; &amp;nbsp; &amp;nbsp; &amp;nbsp; &amp;nbsp; &amp;nbsp; &amp;nbsp; &amp;nbsp; &amp;nbsp; &amp;nbsp; &amp;nbsp; &amp;nbsp; &amp;nbsp; ]&lt;/span&gt;&lt;span style=&quot;font-family: &amp;quot;Roboto Mono&amp;quot;;&quot;&gt;&lt;br&gt;&lt;/span&gt;&lt;/div&gt;&lt;div&gt;&lt;span style=&quot;font-family: &amp;quot;Roboto Mono&amp;quot;;&quot;&gt;&amp;nbsp; &amp;nbsp; [&amp;nbsp; &amp;nbsp; &amp;nbsp; &amp;nbsp; &amp;nbsp; &amp;nbsp; &amp;nbsp; &amp;nbsp; &amp;nbsp; &amp;nbsp; &amp;nbsp; &amp;nbsp; &amp;nbsp; &amp;nbsp; ]&lt;/span&gt;&lt;span style=&quot;font-family: &amp;quot;Roboto Mono&amp;quot;;&quot;&gt;&lt;br&gt;&lt;/span&gt;&lt;/div&gt;&lt;div&gt;&lt;span style=&quot;font-family: &amp;quot;Roboto Mono&amp;quot;;&quot;&gt;&amp;nbsp; &amp;nbsp; [&amp;nbsp; &amp;nbsp; &amp;nbsp; &amp;nbsp; &amp;nbsp; &amp;nbsp; &amp;nbsp; &amp;nbsp; &amp;nbsp; &amp;nbsp; &amp;nbsp; &amp;nbsp; &amp;nbsp; &amp;nbsp; ]&lt;/span&gt;&lt;span style=&quot;font-family: &amp;quot;Roboto Mono&amp;quot;;&quot;&gt;&lt;br&gt;&lt;/span&gt;&lt;/div&gt;&lt;div&gt;&lt;span style=&quot;font-family: &amp;quot;Roboto Mono&amp;quot;;&quot;&gt;&amp;nbsp; &amp;nbsp; [&amp;nbsp; &amp;nbsp; &amp;nbsp; &amp;nbsp; &amp;nbsp; &amp;nbsp; &amp;nbsp; &amp;nbsp; &amp;nbsp; &amp;nbsp; &amp;nbsp; &amp;nbsp; &amp;nbsp; &amp;nbsp; ]&lt;/span&gt;&lt;span style=&quot;font-family: &amp;quot;Roboto Mono&amp;quot;;&quot;&gt;&lt;br&gt;&lt;/span&gt;&lt;/div&gt;&lt;div&gt;&lt;span style=&quot;font-family: &amp;quot;Roboto Mono&amp;quot;;&quot;&gt;&amp;nbsp; &amp;nbsp; [&amp;nbsp; &amp;nbsp; &amp;nbsp; &amp;nbsp; &amp;nbsp; &amp;nbsp; &amp;nbsp; &amp;nbsp; &amp;nbsp; &amp;nbsp; &amp;nbsp; &amp;nbsp; &amp;nbsp; &amp;nbsp; ]&lt;/span&gt;&lt;span style=&quot;font-family: &amp;quot;Roboto Mono&amp;quot;;&quot;&gt;&lt;br&gt;&lt;/span&gt;&lt;/div&gt;&lt;div&gt;&lt;span style=&quot;font-family: &amp;quot;Roboto Mono&amp;quot;;&quot;&gt;&amp;nbsp; &amp;nbsp; [&amp;nbsp; &amp;nbsp; &amp;nbsp; &amp;nbsp; &amp;nbsp; &amp;nbsp; &amp;nbsp; &amp;nbsp; &amp;nbsp; &amp;nbsp; &amp;nbsp; &amp;nbsp; &amp;nbsp; &amp;nbsp; ]&lt;/span&gt;&lt;span style=&quot;font-family: &amp;quot;Roboto Mono&amp;quot;;&quot;&gt;&lt;br&gt;&lt;/span&gt;&lt;/div&gt;" style="text;html=1;align=left;verticalAlign=top;whiteSpace=wrap;rounded=0;spacingLeft=6;spacing=0;" vertex="1" parent="1">
          <mxGeometry x="-380" y="1440" width="300" height="170" as="geometry" />
        </mxCell>
        <mxCell id="mFFu5V0ILwPEUMLw151d-13" value="" style="endArrow=block;html=1;rounded=0;strokeWidth=4;endFill=1;" edge="1" parent="1">
          <mxGeometry width="50" height="50" relative="1" as="geometry">
            <mxPoint x="-70" y="1520" as="sourcePoint" />
            <mxPoint x="-30" y="1520" as="targetPoint" />
          </mxGeometry>
        </mxCell>
        <mxCell id="mFFu5V0ILwPEUMLw151d-14" value="&lt;div style=&quot;forced-color-adjust: none; color: rgb(0, 0, 0); font-family: Helvetica; font-size: 12px; font-style: normal; font-variant-ligatures: normal; font-variant-caps: normal; font-weight: 400; letter-spacing: normal; orphans: 2; text-align: left; text-indent: 0px; text-transform: none; widows: 2; word-spacing: 0px; -webkit-text-stroke-width: 0px; white-space: normal; background-color: rgb(251, 251, 251); text-decoration-thickness: initial; text-decoration-style: initial; text-decoration-color: initial;&quot;&gt;&lt;font face=&quot;Roboto Mono&quot; style=&quot;forced-color-adjust: none;&quot;&gt;[[1]&lt;/font&gt;&lt;/div&gt;&lt;div style=&quot;forced-color-adjust: none; color: rgb(0, 0, 0); font-family: Helvetica; font-size: 12px; font-style: normal; font-variant-ligatures: normal; font-variant-caps: normal; font-weight: 400; letter-spacing: normal; orphans: 2; text-align: left; text-indent: 0px; text-transform: none; widows: 2; word-spacing: 0px; -webkit-text-stroke-width: 0px; white-space: normal; background-color: rgb(251, 251, 251); text-decoration-thickness: initial; text-decoration-style: initial; text-decoration-color: initial;&quot;&gt;&lt;font face=&quot;Roboto Mono&quot; style=&quot;forced-color-adjust: none;&quot;&gt;&amp;nbsp;[1]&lt;/font&gt;&lt;/div&gt;&lt;div style=&quot;forced-color-adjust: none; color: rgb(0, 0, 0); font-family: Helvetica; font-size: 12px; font-style: normal; font-variant-ligatures: normal; font-variant-caps: normal; font-weight: 400; letter-spacing: normal; orphans: 2; text-align: left; text-indent: 0px; text-transform: none; widows: 2; word-spacing: 0px; -webkit-text-stroke-width: 0px; white-space: normal; background-color: rgb(251, 251, 251); text-decoration-thickness: initial; text-decoration-style: initial; text-decoration-color: initial;&quot;&gt;&lt;font face=&quot;Roboto Mono&quot; style=&quot;forced-color-adjust: none;&quot;&gt;&amp;nbsp;[1]&lt;/font&gt;&lt;/div&gt;&lt;div style=&quot;forced-color-adjust: none; color: rgb(0, 0, 0); font-family: Helvetica; font-size: 12px; font-style: normal; font-variant-ligatures: normal; font-variant-caps: normal; font-weight: 400; letter-spacing: normal; orphans: 2; text-align: left; text-indent: 0px; text-transform: none; widows: 2; word-spacing: 0px; -webkit-text-stroke-width: 0px; white-space: normal; background-color: rgb(251, 251, 251); text-decoration-thickness: initial; text-decoration-style: initial; text-decoration-color: initial;&quot;&gt;&lt;font face=&quot;Roboto Mono&quot; style=&quot;forced-color-adjust: none;&quot;&gt;&amp;nbsp;[1]&lt;/font&gt;&lt;/div&gt;&lt;div style=&quot;forced-color-adjust: none; color: rgb(0, 0, 0); font-family: Helvetica; font-size: 12px; font-style: normal; font-variant-ligatures: normal; font-variant-caps: normal; font-weight: 400; letter-spacing: normal; orphans: 2; text-align: left; text-indent: 0px; text-transform: none; widows: 2; word-spacing: 0px; -webkit-text-stroke-width: 0px; white-space: normal; background-color: rgb(251, 251, 251); text-decoration-thickness: initial; text-decoration-style: initial; text-decoration-color: initial;&quot;&gt;&lt;font face=&quot;Roboto Mono&quot; style=&quot;forced-color-adjust: none;&quot;&gt;&amp;nbsp;[ ]&lt;/font&gt;&lt;/div&gt;&lt;div style=&quot;forced-color-adjust: none; color: rgb(0, 0, 0); font-family: Helvetica; font-size: 12px; font-style: normal; font-variant-ligatures: normal; font-variant-caps: normal; font-weight: 400; letter-spacing: normal; orphans: 2; text-align: left; text-indent: 0px; text-transform: none; widows: 2; word-spacing: 0px; -webkit-text-stroke-width: 0px; white-space: normal; background-color: rgb(251, 251, 251); text-decoration-thickness: initial; text-decoration-style: initial; text-decoration-color: initial;&quot;&gt;&lt;font face=&quot;Roboto Mono&quot; style=&quot;forced-color-adjust: none;&quot;&gt;&amp;nbsp;[ ]&lt;/font&gt;&lt;/div&gt;&lt;div style=&quot;forced-color-adjust: none; color: rgb(0, 0, 0); font-family: Helvetica; font-size: 12px; font-style: normal; font-variant-ligatures: normal; font-variant-caps: normal; font-weight: 400; letter-spacing: normal; orphans: 2; text-align: left; text-indent: 0px; text-transform: none; widows: 2; word-spacing: 0px; -webkit-text-stroke-width: 0px; white-space: normal; background-color: rgb(251, 251, 251); text-decoration-thickness: initial; text-decoration-style: initial; text-decoration-color: initial;&quot;&gt;&lt;font face=&quot;Roboto Mono&quot; style=&quot;forced-color-adjust: none;&quot;&gt;&amp;nbsp;[ ]&lt;/font&gt;&lt;/div&gt;&lt;div style=&quot;forced-color-adjust: none; color: rgb(0, 0, 0); font-family: Helvetica; font-size: 12px; font-style: normal; font-variant-ligatures: normal; font-variant-caps: normal; font-weight: 400; letter-spacing: normal; orphans: 2; text-align: left; text-indent: 0px; text-transform: none; widows: 2; word-spacing: 0px; -webkit-text-stroke-width: 0px; white-space: normal; background-color: rgb(251, 251, 251); text-decoration-thickness: initial; text-decoration-style: initial; text-decoration-color: initial;&quot;&gt;&lt;font face=&quot;Roboto Mono&quot; style=&quot;forced-color-adjust: none;&quot;&gt;&amp;nbsp;[ ]&lt;/font&gt;&lt;/div&gt;&lt;div style=&quot;forced-color-adjust: none; color: rgb(0, 0, 0); font-family: Helvetica; font-size: 12px; font-style: normal; font-variant-ligatures: normal; font-variant-caps: normal; font-weight: 400; letter-spacing: normal; orphans: 2; text-align: left; text-indent: 0px; text-transform: none; widows: 2; word-spacing: 0px; -webkit-text-stroke-width: 0px; white-space: normal; background-color: rgb(251, 251, 251); text-decoration-thickness: initial; text-decoration-style: initial; text-decoration-color: initial;&quot;&gt;&lt;font face=&quot;Roboto Mono&quot; style=&quot;forced-color-adjust: none;&quot;&gt;&amp;nbsp;[ ]&lt;/font&gt;&lt;/div&gt;&lt;div style=&quot;forced-color-adjust: none; color: rgb(0, 0, 0); font-family: Helvetica; font-size: 12px; font-style: normal; font-variant-ligatures: normal; font-variant-caps: normal; font-weight: 400; letter-spacing: normal; orphans: 2; text-align: left; text-indent: 0px; text-transform: none; widows: 2; word-spacing: 0px; -webkit-text-stroke-width: 0px; white-space: normal; background-color: rgb(251, 251, 251); text-decoration-thickness: initial; text-decoration-style: initial; text-decoration-color: initial;&quot;&gt;&lt;font face=&quot;Roboto Mono&quot; style=&quot;forced-color-adjust: none;&quot;&gt;&amp;nbsp;[ ]]&lt;/font&gt;&lt;/div&gt;" style="text;whiteSpace=wrap;html=1;fontFamily=Helvetica;fontSize=11;fontColor=default;labelBackgroundColor=default;" vertex="1" parent="1">
          <mxGeometry x="-450" y="1440" width="70" height="170" as="geometry" />
        </mxCell>
        <mxCell id="mFFu5V0ILwPEUMLw151d-15" value="&lt;div&gt;&lt;font face=&quot;Roboto Mono&quot;&gt;dot([&lt;/font&gt;&lt;span style=&quot;font-family: &amp;quot;Roboto Mono&amp;quot;; background-color: initial;&quot;&gt;0, 1, 1, 0, 0, 0, 0, 0, 0, 0&lt;/span&gt;&lt;span style=&quot;font-family: &amp;quot;Roboto Mono&amp;quot;; background-color: initial;&quot;&gt;]) = 0.794&lt;/span&gt;&lt;/div&gt;&lt;font face=&quot;Roboto Mono&quot;&gt;&amp;nbsp; &amp;nbsp; [&amp;nbsp; &amp;nbsp; &amp;nbsp; &amp;nbsp; &amp;nbsp; &amp;nbsp; &amp;nbsp; &amp;nbsp; &amp;nbsp; &amp;nbsp; &amp;nbsp; &amp;nbsp; &amp;nbsp; &amp;nbsp; ]&lt;br&gt;&lt;/font&gt;&lt;span style=&quot;font-family: &amp;quot;Roboto Mono&amp;quot;;&quot;&gt;&amp;nbsp; &amp;nbsp; [&amp;nbsp; &amp;nbsp; &amp;nbsp; &amp;nbsp; &amp;nbsp; &amp;nbsp; &amp;nbsp; &amp;nbsp; &amp;nbsp; &amp;nbsp; &amp;nbsp; &amp;nbsp; &amp;nbsp; &amp;nbsp; ]&lt;/span&gt;&lt;font face=&quot;Roboto Mono&quot;&gt;&lt;br&gt;&lt;/font&gt;&lt;div&gt;&lt;span style=&quot;font-family: &amp;quot;Roboto Mono&amp;quot;;&quot;&gt;&amp;nbsp; &amp;nbsp; [&amp;nbsp; &amp;nbsp; &amp;nbsp; &amp;nbsp; &amp;nbsp; &amp;nbsp; &amp;nbsp; &amp;nbsp; &amp;nbsp; &amp;nbsp; &amp;nbsp; &amp;nbsp; &amp;nbsp; &amp;nbsp; ]&lt;/span&gt;&lt;span style=&quot;font-family: &amp;quot;Roboto Mono&amp;quot;;&quot;&gt;&lt;br&gt;&lt;/span&gt;&lt;/div&gt;&lt;div&gt;&lt;span style=&quot;font-family: &amp;quot;Roboto Mono&amp;quot;;&quot;&gt;&amp;nbsp; &amp;nbsp; [&amp;nbsp; &amp;nbsp; &amp;nbsp; &amp;nbsp; &amp;nbsp; &amp;nbsp; &amp;nbsp; &amp;nbsp; &amp;nbsp; &amp;nbsp; &amp;nbsp; &amp;nbsp; &amp;nbsp; &amp;nbsp; ]&lt;/span&gt;&lt;span style=&quot;font-family: &amp;quot;Roboto Mono&amp;quot;;&quot;&gt;&lt;br&gt;&lt;/span&gt;&lt;/div&gt;&lt;div&gt;&lt;span style=&quot;font-family: &amp;quot;Roboto Mono&amp;quot;;&quot;&gt;&amp;nbsp; &amp;nbsp; [&amp;nbsp; &amp;nbsp; &amp;nbsp; &amp;nbsp; &amp;nbsp; &amp;nbsp; &amp;nbsp; &amp;nbsp; &amp;nbsp; &amp;nbsp; &amp;nbsp; &amp;nbsp; &amp;nbsp; &amp;nbsp; ]&lt;/span&gt;&lt;span style=&quot;font-family: &amp;quot;Roboto Mono&amp;quot;;&quot;&gt;&lt;br&gt;&lt;/span&gt;&lt;/div&gt;&lt;div&gt;&lt;span style=&quot;font-family: &amp;quot;Roboto Mono&amp;quot;;&quot;&gt;&amp;nbsp; &amp;nbsp; [&amp;nbsp; &amp;nbsp; &amp;nbsp; &amp;nbsp; &amp;nbsp; &amp;nbsp; &amp;nbsp; &amp;nbsp; &amp;nbsp; &amp;nbsp; &amp;nbsp; &amp;nbsp; &amp;nbsp; &amp;nbsp; ]&lt;/span&gt;&lt;span style=&quot;font-family: &amp;quot;Roboto Mono&amp;quot;;&quot;&gt;&lt;br&gt;&lt;/span&gt;&lt;/div&gt;&lt;div&gt;&lt;span style=&quot;font-family: &amp;quot;Roboto Mono&amp;quot;;&quot;&gt;&amp;nbsp; &amp;nbsp; [&amp;nbsp; &amp;nbsp; &amp;nbsp; &amp;nbsp; &amp;nbsp; &amp;nbsp; &amp;nbsp; &amp;nbsp; &amp;nbsp; &amp;nbsp; &amp;nbsp; &amp;nbsp; &amp;nbsp; &amp;nbsp; ]&lt;/span&gt;&lt;span style=&quot;font-family: &amp;quot;Roboto Mono&amp;quot;;&quot;&gt;&lt;br&gt;&lt;/span&gt;&lt;/div&gt;&lt;div&gt;&lt;span style=&quot;font-family: &amp;quot;Roboto Mono&amp;quot;;&quot;&gt;&amp;nbsp; &amp;nbsp; [&amp;nbsp; &amp;nbsp; &amp;nbsp; &amp;nbsp; &amp;nbsp; &amp;nbsp; &amp;nbsp; &amp;nbsp; &amp;nbsp; &amp;nbsp; &amp;nbsp; &amp;nbsp; &amp;nbsp; &amp;nbsp; ]&lt;/span&gt;&lt;span style=&quot;font-family: &amp;quot;Roboto Mono&amp;quot;;&quot;&gt;&lt;br&gt;&lt;/span&gt;&lt;/div&gt;&lt;div&gt;&lt;span style=&quot;font-family: &amp;quot;Roboto Mono&amp;quot;;&quot;&gt;&amp;nbsp; &amp;nbsp; [&amp;nbsp; &amp;nbsp; &amp;nbsp; &amp;nbsp; &amp;nbsp; &amp;nbsp; &amp;nbsp; &amp;nbsp; &amp;nbsp; &amp;nbsp; &amp;nbsp; &amp;nbsp; &amp;nbsp; &amp;nbsp; ]&lt;/span&gt;&lt;span style=&quot;font-family: &amp;quot;Roboto Mono&amp;quot;;&quot;&gt;&lt;br&gt;&lt;/span&gt;&lt;/div&gt;" style="text;html=1;align=left;verticalAlign=top;whiteSpace=wrap;rounded=0;spacingLeft=6;spacing=0;" vertex="1" parent="1">
          <mxGeometry x="80" y="1640" width="330" height="170" as="geometry" />
        </mxCell>
        <mxCell id="mFFu5V0ILwPEUMLw151d-16" value="&lt;div&gt;&lt;font face=&quot;Roboto Mono&quot;&gt;This matrix visualization how to compute the iterative matrix mulitplication to achieve eigenvector is strikingly similar to the tree diagram in the right&lt;/font&gt;&lt;/div&gt;" style="text;html=1;align=left;verticalAlign=top;whiteSpace=wrap;rounded=0;spacingLeft=6;spacing=0;" vertex="1" parent="1">
          <mxGeometry x="-200" y="1124" width="580" height="70" as="geometry" />
        </mxCell>
        <mxCell id="mFFu5V0ILwPEUMLw151d-17" value="" style="endArrow=block;html=1;rounded=0;strokeWidth=4;endFill=1;" edge="1" parent="1">
          <mxGeometry width="50" height="50" relative="1" as="geometry">
            <mxPoint x="375" y="1720" as="sourcePoint" />
            <mxPoint x="415" y="1720" as="targetPoint" />
          </mxGeometry>
        </mxCell>
        <mxCell id="mFFu5V0ILwPEUMLw151d-18" value="&lt;div&gt;&lt;font face=&quot;Roboto Mono&quot;&gt;[[0.254]&lt;/font&gt;&lt;/div&gt;&lt;div&gt;&lt;font face=&quot;Roboto Mono&quot;&gt;&amp;nbsp;[0.381]&lt;/font&gt;&lt;/div&gt;&lt;div&gt;&lt;font face=&quot;Roboto Mono&quot;&gt;&amp;nbsp;[0.381]&lt;/font&gt;&lt;/div&gt;&lt;div&gt;&lt;font face=&quot;Roboto Mono&quot;&gt;&amp;nbsp;[0.381]&lt;/font&gt;&lt;/div&gt;&lt;div&gt;&lt;font face=&quot;Roboto Mono&quot;&gt;&amp;nbsp;[&amp;nbsp; &amp;nbsp; &amp;nbsp;]&lt;/font&gt;&lt;/div&gt;&lt;div&gt;&lt;font face=&quot;Roboto Mono&quot;&gt;&amp;nbsp;[&amp;nbsp; &amp;nbsp; &amp;nbsp;]&lt;/font&gt;&lt;/div&gt;&lt;div&gt;&lt;font face=&quot;Roboto Mono&quot;&gt;&amp;nbsp;[&amp;nbsp; &amp;nbsp; &amp;nbsp;]&lt;/font&gt;&lt;/div&gt;&lt;div&gt;&lt;font face=&quot;Roboto Mono&quot;&gt;&amp;nbsp;[&amp;nbsp; &amp;nbsp; &amp;nbsp;]&lt;/font&gt;&lt;/div&gt;&lt;div&gt;&lt;font face=&quot;Roboto Mono&quot;&gt;&amp;nbsp;[&amp;nbsp; &amp;nbsp; &amp;nbsp;]&lt;/font&gt;&lt;/div&gt;&lt;div&gt;&lt;font face=&quot;Roboto Mono&quot;&gt;&amp;nbsp;[&amp;nbsp; &amp;nbsp; &amp;nbsp;]]&lt;/font&gt;&lt;/div&gt;" style="text;html=1;align=left;verticalAlign=top;whiteSpace=wrap;rounded=0;spacingLeft=6;spacing=0;" vertex="1" parent="1">
          <mxGeometry x="-460" y="1640" width="80" height="170" as="geometry" />
        </mxCell>
        <mxCell id="mFFu5V0ILwPEUMLw151d-19" value="&lt;div&gt;&lt;font face=&quot;Roboto Mono&quot;&gt;&amp;nbsp; &amp;nbsp; [&amp;nbsp; &amp;nbsp; &amp;nbsp; &amp;nbsp; &amp;nbsp; &amp;nbsp; &amp;nbsp; &amp;nbsp; &amp;nbsp; &amp;nbsp; &amp;nbsp; &amp;nbsp; &amp;nbsp; &amp;nbsp;&amp;nbsp;&lt;/font&gt;&lt;span style=&quot;font-family: &amp;quot;Roboto Mono&amp;quot;; background-color: initial;&quot;&gt;]&amp;nbsp;&lt;/span&gt;&lt;/div&gt;&lt;font face=&quot;Roboto Mono&quot;&gt;dot([&lt;/font&gt;&lt;span style=&quot;font-family: &amp;quot;Roboto Mono&amp;quot;;&quot;&gt;1, 0, 1, 1, 0, 0, 0, 0, 0, 0&lt;/span&gt;&lt;font face=&quot;Roboto Mono&quot;&gt;]) = 1.016&lt;br&gt;&lt;/font&gt;&lt;span style=&quot;font-family: &amp;quot;Roboto Mono&amp;quot;;&quot;&gt;dot([&lt;/span&gt;&lt;span style=&quot;font-family: &amp;quot;Roboto Mono&amp;quot;;&quot;&gt;1, 1, 0, 1, 0, 0, 0, 0, 0, 0&lt;/span&gt;&lt;span style=&quot;font-family: &amp;quot;Roboto Mono&amp;quot;;&quot;&gt;]) = 1.016&lt;/span&gt;&lt;font face=&quot;Roboto Mono&quot;&gt;&lt;br&gt;&lt;/font&gt;&lt;div&gt;&lt;span style=&quot;font-family: &amp;quot;Roboto Mono&amp;quot;;&quot;&gt;&amp;nbsp; &amp;nbsp; [&amp;nbsp; &amp;nbsp; &amp;nbsp; &amp;nbsp; &amp;nbsp; &amp;nbsp; &amp;nbsp; &amp;nbsp; &amp;nbsp; &amp;nbsp; &amp;nbsp; &amp;nbsp; &amp;nbsp; &amp;nbsp; ]&lt;/span&gt;&lt;span style=&quot;font-family: &amp;quot;Roboto Mono&amp;quot;;&quot;&gt;&lt;br&gt;&lt;/span&gt;&lt;/div&gt;&lt;div&gt;&lt;span style=&quot;font-family: &amp;quot;Roboto Mono&amp;quot;;&quot;&gt;&amp;nbsp; &amp;nbsp; [&amp;nbsp; &amp;nbsp; &amp;nbsp; &amp;nbsp; &amp;nbsp; &amp;nbsp; &amp;nbsp; &amp;nbsp; &amp;nbsp; &amp;nbsp; &amp;nbsp; &amp;nbsp; &amp;nbsp; &amp;nbsp; ]&lt;/span&gt;&lt;span style=&quot;font-family: &amp;quot;Roboto Mono&amp;quot;;&quot;&gt;&lt;br&gt;&lt;/span&gt;&lt;/div&gt;&lt;div&gt;&lt;span style=&quot;font-family: &amp;quot;Roboto Mono&amp;quot;;&quot;&gt;&amp;nbsp; &amp;nbsp; [&amp;nbsp; &amp;nbsp; &amp;nbsp; &amp;nbsp; &amp;nbsp; &amp;nbsp; &amp;nbsp; &amp;nbsp; &amp;nbsp; &amp;nbsp; &amp;nbsp; &amp;nbsp; &amp;nbsp; &amp;nbsp; ]&lt;/span&gt;&lt;span style=&quot;font-family: &amp;quot;Roboto Mono&amp;quot;;&quot;&gt;&lt;br&gt;&lt;/span&gt;&lt;/div&gt;&lt;div&gt;&lt;span style=&quot;font-family: &amp;quot;Roboto Mono&amp;quot;;&quot;&gt;&amp;nbsp; &amp;nbsp; [&amp;nbsp; &amp;nbsp; &amp;nbsp; &amp;nbsp; &amp;nbsp; &amp;nbsp; &amp;nbsp; &amp;nbsp; &amp;nbsp; &amp;nbsp; &amp;nbsp; &amp;nbsp; &amp;nbsp; &amp;nbsp; ]&lt;/span&gt;&lt;span style=&quot;font-family: &amp;quot;Roboto Mono&amp;quot;;&quot;&gt;&lt;br&gt;&lt;/span&gt;&lt;/div&gt;&lt;div&gt;&lt;span style=&quot;font-family: &amp;quot;Roboto Mono&amp;quot;;&quot;&gt;&amp;nbsp; &amp;nbsp; [&amp;nbsp; &amp;nbsp; &amp;nbsp; &amp;nbsp; &amp;nbsp; &amp;nbsp; &amp;nbsp; &amp;nbsp; &amp;nbsp; &amp;nbsp; &amp;nbsp; &amp;nbsp; &amp;nbsp; &amp;nbsp; ]&lt;/span&gt;&lt;span style=&quot;font-family: &amp;quot;Roboto Mono&amp;quot;;&quot;&gt;&lt;br&gt;&lt;/span&gt;&lt;/div&gt;&lt;div&gt;&lt;span style=&quot;font-family: &amp;quot;Roboto Mono&amp;quot;;&quot;&gt;&amp;nbsp; &amp;nbsp; [&amp;nbsp; &amp;nbsp; &amp;nbsp; &amp;nbsp; &amp;nbsp; &amp;nbsp; &amp;nbsp; &amp;nbsp; &amp;nbsp; &amp;nbsp; &amp;nbsp; &amp;nbsp; &amp;nbsp; &amp;nbsp; ]&lt;/span&gt;&lt;span style=&quot;font-family: &amp;quot;Roboto Mono&amp;quot;;&quot;&gt;&lt;br&gt;&lt;/span&gt;&lt;/div&gt;&lt;div&gt;&lt;span style=&quot;font-family: &amp;quot;Roboto Mono&amp;quot;;&quot;&gt;&amp;nbsp; &amp;nbsp; [&amp;nbsp; &amp;nbsp; &amp;nbsp; &amp;nbsp; &amp;nbsp; &amp;nbsp; &amp;nbsp; &amp;nbsp; &amp;nbsp; &amp;nbsp; &amp;nbsp; &amp;nbsp; &amp;nbsp; &amp;nbsp; ]&lt;/span&gt;&lt;span style=&quot;font-family: &amp;quot;Roboto Mono&amp;quot;;&quot;&gt;&lt;br&gt;&lt;/span&gt;&lt;/div&gt;" style="text;html=1;align=left;verticalAlign=top;whiteSpace=wrap;rounded=0;spacingLeft=6;spacing=0;" vertex="1" parent="1">
          <mxGeometry x="-380" y="1640" width="320" height="170" as="geometry" />
        </mxCell>
        <mxCell id="mFFu5V0ILwPEUMLw151d-21" value="" style="endArrow=block;html=1;rounded=0;strokeWidth=4;endFill=1;" edge="1" parent="1">
          <mxGeometry width="50" height="50" relative="1" as="geometry">
            <mxPoint x="-80" y="1720" as="sourcePoint" />
            <mxPoint x="-40" y="1720" as="targetPoint" />
          </mxGeometry>
        </mxCell>
        <mxCell id="mFFu5V0ILwPEUMLw151d-22" value="" style="endArrow=block;html=1;rounded=0;strokeWidth=4;endFill=1;" edge="1" parent="1">
          <mxGeometry width="50" height="50" relative="1" as="geometry">
            <mxPoint x="-520" y="1720" as="sourcePoint" />
            <mxPoint x="-480" y="1720" as="targetPoint" />
          </mxGeometry>
        </mxCell>
        <mxCell id="mFFu5V0ILwPEUMLw151d-23" value="&lt;div style=&quot;forced-color-adjust: none; color: rgb(0, 0, 0); font-family: Helvetica; font-size: 12px; font-style: normal; font-variant-ligatures: normal; font-variant-caps: normal; font-weight: 400; letter-spacing: normal; orphans: 2; text-align: left; text-indent: 0px; text-transform: none; widows: 2; word-spacing: 0px; -webkit-text-stroke-width: 0px; white-space: normal; background-color: rgb(251, 251, 251); text-decoration-thickness: initial; text-decoration-style: initial; text-decoration-color: initial;&quot;&gt;&lt;font face=&quot;Roboto Mono&quot; style=&quot;forced-color-adjust: none;&quot;&gt;[[1]&lt;/font&gt;&lt;/div&gt;&lt;div style=&quot;forced-color-adjust: none; color: rgb(0, 0, 0); font-family: Helvetica; font-size: 12px; font-style: normal; font-variant-ligatures: normal; font-variant-caps: normal; font-weight: 400; letter-spacing: normal; orphans: 2; text-align: left; text-indent: 0px; text-transform: none; widows: 2; word-spacing: 0px; -webkit-text-stroke-width: 0px; white-space: normal; background-color: rgb(251, 251, 251); text-decoration-thickness: initial; text-decoration-style: initial; text-decoration-color: initial;&quot;&gt;&lt;font face=&quot;Roboto Mono&quot; style=&quot;forced-color-adjust: none;&quot;&gt;&amp;nbsp;[1]&lt;/font&gt;&lt;/div&gt;&lt;div style=&quot;forced-color-adjust: none; color: rgb(0, 0, 0); font-family: Helvetica; font-size: 12px; font-style: normal; font-variant-ligatures: normal; font-variant-caps: normal; font-weight: 400; letter-spacing: normal; orphans: 2; text-align: left; text-indent: 0px; text-transform: none; widows: 2; word-spacing: 0px; -webkit-text-stroke-width: 0px; white-space: normal; background-color: rgb(251, 251, 251); text-decoration-thickness: initial; text-decoration-style: initial; text-decoration-color: initial;&quot;&gt;&lt;font face=&quot;Roboto Mono&quot; style=&quot;forced-color-adjust: none;&quot;&gt;&amp;nbsp;[1]&lt;/font&gt;&lt;/div&gt;&lt;div style=&quot;forced-color-adjust: none; color: rgb(0, 0, 0); font-family: Helvetica; font-size: 12px; font-style: normal; font-variant-ligatures: normal; font-variant-caps: normal; font-weight: 400; letter-spacing: normal; orphans: 2; text-align: left; text-indent: 0px; text-transform: none; widows: 2; word-spacing: 0px; -webkit-text-stroke-width: 0px; white-space: normal; background-color: rgb(251, 251, 251); text-decoration-thickness: initial; text-decoration-style: initial; text-decoration-color: initial;&quot;&gt;&lt;font face=&quot;Roboto Mono&quot; style=&quot;forced-color-adjust: none;&quot;&gt;&amp;nbsp;[1]&lt;/font&gt;&lt;/div&gt;&lt;div style=&quot;forced-color-adjust: none; color: rgb(0, 0, 0); font-family: Helvetica; font-size: 12px; font-style: normal; font-variant-ligatures: normal; font-variant-caps: normal; font-weight: 400; letter-spacing: normal; orphans: 2; text-align: left; text-indent: 0px; text-transform: none; widows: 2; word-spacing: 0px; -webkit-text-stroke-width: 0px; white-space: normal; background-color: rgb(251, 251, 251); text-decoration-thickness: initial; text-decoration-style: initial; text-decoration-color: initial;&quot;&gt;&lt;font face=&quot;Roboto Mono&quot; style=&quot;forced-color-adjust: none;&quot;&gt;&amp;nbsp;[ ]&lt;/font&gt;&lt;/div&gt;&lt;div style=&quot;forced-color-adjust: none; color: rgb(0, 0, 0); font-family: Helvetica; font-size: 12px; font-style: normal; font-variant-ligatures: normal; font-variant-caps: normal; font-weight: 400; letter-spacing: normal; orphans: 2; text-align: left; text-indent: 0px; text-transform: none; widows: 2; word-spacing: 0px; -webkit-text-stroke-width: 0px; white-space: normal; background-color: rgb(251, 251, 251); text-decoration-thickness: initial; text-decoration-style: initial; text-decoration-color: initial;&quot;&gt;&lt;font face=&quot;Roboto Mono&quot; style=&quot;forced-color-adjust: none;&quot;&gt;&amp;nbsp;[ ]&lt;/font&gt;&lt;/div&gt;&lt;div style=&quot;forced-color-adjust: none; color: rgb(0, 0, 0); font-family: Helvetica; font-size: 12px; font-style: normal; font-variant-ligatures: normal; font-variant-caps: normal; font-weight: 400; letter-spacing: normal; orphans: 2; text-align: left; text-indent: 0px; text-transform: none; widows: 2; word-spacing: 0px; -webkit-text-stroke-width: 0px; white-space: normal; background-color: rgb(251, 251, 251); text-decoration-thickness: initial; text-decoration-style: initial; text-decoration-color: initial;&quot;&gt;&lt;font face=&quot;Roboto Mono&quot; style=&quot;forced-color-adjust: none;&quot;&gt;&amp;nbsp;[ ]&lt;/font&gt;&lt;/div&gt;&lt;div style=&quot;forced-color-adjust: none; color: rgb(0, 0, 0); font-family: Helvetica; font-size: 12px; font-style: normal; font-variant-ligatures: normal; font-variant-caps: normal; font-weight: 400; letter-spacing: normal; orphans: 2; text-align: left; text-indent: 0px; text-transform: none; widows: 2; word-spacing: 0px; -webkit-text-stroke-width: 0px; white-space: normal; background-color: rgb(251, 251, 251); text-decoration-thickness: initial; text-decoration-style: initial; text-decoration-color: initial;&quot;&gt;&lt;font face=&quot;Roboto Mono&quot; style=&quot;forced-color-adjust: none;&quot;&gt;&amp;nbsp;[ ]&lt;/font&gt;&lt;/div&gt;&lt;div style=&quot;forced-color-adjust: none; color: rgb(0, 0, 0); font-family: Helvetica; font-size: 12px; font-style: normal; font-variant-ligatures: normal; font-variant-caps: normal; font-weight: 400; letter-spacing: normal; orphans: 2; text-align: left; text-indent: 0px; text-transform: none; widows: 2; word-spacing: 0px; -webkit-text-stroke-width: 0px; white-space: normal; background-color: rgb(251, 251, 251); text-decoration-thickness: initial; text-decoration-style: initial; text-decoration-color: initial;&quot;&gt;&lt;font face=&quot;Roboto Mono&quot; style=&quot;forced-color-adjust: none;&quot;&gt;&amp;nbsp;[ ]&lt;/font&gt;&lt;/div&gt;&lt;div style=&quot;forced-color-adjust: none; color: rgb(0, 0, 0); font-family: Helvetica; font-size: 12px; font-style: normal; font-variant-ligatures: normal; font-variant-caps: normal; font-weight: 400; letter-spacing: normal; orphans: 2; text-align: left; text-indent: 0px; text-transform: none; widows: 2; word-spacing: 0px; -webkit-text-stroke-width: 0px; white-space: normal; background-color: rgb(251, 251, 251); text-decoration-thickness: initial; text-decoration-style: initial; text-decoration-color: initial;&quot;&gt;&lt;font face=&quot;Roboto Mono&quot; style=&quot;forced-color-adjust: none;&quot;&gt;&amp;nbsp;[ ]]&lt;/font&gt;&lt;/div&gt;" style="text;whiteSpace=wrap;html=1;fontFamily=Helvetica;fontSize=11;fontColor=default;labelBackgroundColor=default;" vertex="1" parent="1">
          <mxGeometry x="-880" y="1640" width="70" height="170" as="geometry" />
        </mxCell>
        <mxCell id="mFFu5V0ILwPEUMLw151d-24" value="&lt;div&gt;&lt;font face=&quot;Roboto Mono&quot;&gt;dot([&lt;/font&gt;&lt;span style=&quot;background-color: initial;&quot;&gt;&lt;font face=&quot;Roboto Mono&quot;&gt;0, 1, 1, 0, 0, 0, 0, 0, 0, 0]) = 2&lt;/font&gt;&lt;/span&gt;&lt;/div&gt;&lt;font face=&quot;Roboto Mono&quot;&gt;dot([&lt;/font&gt;&lt;span style=&quot;font-family: &amp;quot;Roboto Mono&amp;quot;;&quot;&gt;1, 0, 1, 1, 0, 0, 0, 0, 0, 0&lt;/span&gt;&lt;font face=&quot;Roboto Mono&quot;&gt;]) = 3&lt;br&gt;&lt;/font&gt;&lt;span style=&quot;font-family: &amp;quot;Roboto Mono&amp;quot;;&quot;&gt;dot([&lt;/span&gt;&lt;span style=&quot;font-family: &amp;quot;Roboto Mono&amp;quot;;&quot;&gt;1, 1, 0, 1, 0, 0, 0, 0, 0, 0&lt;/span&gt;&lt;span style=&quot;font-family: &amp;quot;Roboto Mono&amp;quot;;&quot;&gt;]) = 3&lt;/span&gt;&lt;font face=&quot;Roboto Mono&quot;&gt;&lt;br&gt;&lt;/font&gt;&lt;div&gt;&lt;font face=&quot;Roboto Mono&quot;&gt;dot([0, 1, 1, 0, 1, 0, 0, 0, 0, 0]) = 3&lt;/font&gt;&lt;span style=&quot;font-family: &amp;quot;Roboto Mono&amp;quot;;&quot;&gt;&lt;br&gt;&lt;/span&gt;&lt;/div&gt;&lt;div&gt;&lt;span style=&quot;font-family: &amp;quot;Roboto Mono&amp;quot;;&quot;&gt;&amp;nbsp; &amp;nbsp; [&amp;nbsp; &amp;nbsp; &amp;nbsp; &amp;nbsp; &amp;nbsp; &amp;nbsp; &amp;nbsp; &amp;nbsp; &amp;nbsp; &amp;nbsp; &amp;nbsp; &amp;nbsp; &amp;nbsp; &amp;nbsp; ]&lt;/span&gt;&lt;span style=&quot;font-family: &amp;quot;Roboto Mono&amp;quot;;&quot;&gt;&lt;br&gt;&lt;/span&gt;&lt;/div&gt;&lt;div&gt;&lt;span style=&quot;font-family: &amp;quot;Roboto Mono&amp;quot;;&quot;&gt;&amp;nbsp; &amp;nbsp; [&amp;nbsp; &amp;nbsp; &amp;nbsp; &amp;nbsp; &amp;nbsp; &amp;nbsp; &amp;nbsp; &amp;nbsp; &amp;nbsp; &amp;nbsp; &amp;nbsp; &amp;nbsp; &amp;nbsp; &amp;nbsp; ]&lt;/span&gt;&lt;span style=&quot;font-family: &amp;quot;Roboto Mono&amp;quot;;&quot;&gt;&lt;br&gt;&lt;/span&gt;&lt;/div&gt;&lt;div&gt;&lt;span style=&quot;font-family: &amp;quot;Roboto Mono&amp;quot;;&quot;&gt;&amp;nbsp; &amp;nbsp; [&amp;nbsp; &amp;nbsp; &amp;nbsp; &amp;nbsp; &amp;nbsp; &amp;nbsp; &amp;nbsp; &amp;nbsp; &amp;nbsp; &amp;nbsp; &amp;nbsp; &amp;nbsp; &amp;nbsp; &amp;nbsp; ]&lt;/span&gt;&lt;span style=&quot;font-family: &amp;quot;Roboto Mono&amp;quot;;&quot;&gt;&lt;br&gt;&lt;/span&gt;&lt;/div&gt;&lt;div&gt;&lt;span style=&quot;font-family: &amp;quot;Roboto Mono&amp;quot;;&quot;&gt;&amp;nbsp; &amp;nbsp; [&amp;nbsp; &amp;nbsp; &amp;nbsp; &amp;nbsp; &amp;nbsp; &amp;nbsp; &amp;nbsp; &amp;nbsp; &amp;nbsp; &amp;nbsp; &amp;nbsp; &amp;nbsp; &amp;nbsp; &amp;nbsp; ]&lt;/span&gt;&lt;span style=&quot;font-family: &amp;quot;Roboto Mono&amp;quot;;&quot;&gt;&lt;br&gt;&lt;/span&gt;&lt;/div&gt;&lt;div&gt;&lt;span style=&quot;font-family: &amp;quot;Roboto Mono&amp;quot;;&quot;&gt;&amp;nbsp; &amp;nbsp; [&amp;nbsp; &amp;nbsp; &amp;nbsp; &amp;nbsp; &amp;nbsp; &amp;nbsp; &amp;nbsp; &amp;nbsp; &amp;nbsp; &amp;nbsp; &amp;nbsp; &amp;nbsp; &amp;nbsp; &amp;nbsp; ]&lt;/span&gt;&lt;span style=&quot;font-family: &amp;quot;Roboto Mono&amp;quot;;&quot;&gt;&lt;br&gt;&lt;/span&gt;&lt;/div&gt;&lt;div&gt;&lt;span style=&quot;font-family: &amp;quot;Roboto Mono&amp;quot;;&quot;&gt;&amp;nbsp; &amp;nbsp; [&amp;nbsp; &amp;nbsp; &amp;nbsp; &amp;nbsp; &amp;nbsp; &amp;nbsp; &amp;nbsp; &amp;nbsp; &amp;nbsp; &amp;nbsp; &amp;nbsp; &amp;nbsp; &amp;nbsp; &amp;nbsp; ]&lt;/span&gt;&lt;span style=&quot;font-family: &amp;quot;Roboto Mono&amp;quot;;&quot;&gt;&lt;br&gt;&lt;/span&gt;&lt;/div&gt;" style="text;html=1;align=left;verticalAlign=top;whiteSpace=wrap;rounded=0;spacingLeft=6;spacing=0;" vertex="1" parent="1">
          <mxGeometry x="-810" y="1640" width="300" height="170" as="geometry" />
        </mxCell>
        <mxCell id="mFFu5V0ILwPEUMLw151d-26" value="&lt;div style=&quot;forced-color-adjust: none; color: rgb(0, 0, 0); font-family: Helvetica; font-size: 12px; font-style: normal; font-variant-ligatures: normal; font-variant-caps: normal; font-weight: 400; letter-spacing: normal; orphans: 2; text-align: left; text-indent: 0px; text-transform: none; widows: 2; word-spacing: 0px; -webkit-text-stroke-width: 0px; white-space: normal; background-color: rgb(251, 251, 251); text-decoration-thickness: initial; text-decoration-style: initial; text-decoration-color: initial;&quot;&gt;&lt;font face=&quot;Roboto Mono&quot; style=&quot;forced-color-adjust: none;&quot;&gt;[[0.307]&lt;/font&gt;&lt;/div&gt;&lt;div style=&quot;forced-color-adjust: none; color: rgb(0, 0, 0); font-family: Helvetica; font-size: 12px; font-style: normal; font-variant-ligatures: normal; font-variant-caps: normal; font-weight: 400; letter-spacing: normal; orphans: 2; text-align: left; text-indent: 0px; text-transform: none; widows: 2; word-spacing: 0px; -webkit-text-stroke-width: 0px; white-space: normal; background-color: rgb(251, 251, 251); text-decoration-thickness: initial; text-decoration-style: initial; text-decoration-color: initial;&quot;&gt;&lt;font face=&quot;Roboto Mono&quot; style=&quot;forced-color-adjust: none;&quot;&gt;&amp;nbsp;[&amp;nbsp; &amp;nbsp; &amp;nbsp;]&lt;/font&gt;&lt;/div&gt;&lt;div style=&quot;forced-color-adjust: none; color: rgb(0, 0, 0); font-family: Helvetica; font-size: 12px; font-style: normal; font-variant-ligatures: normal; font-variant-caps: normal; font-weight: 400; letter-spacing: normal; orphans: 2; text-align: left; text-indent: 0px; text-transform: none; widows: 2; word-spacing: 0px; -webkit-text-stroke-width: 0px; white-space: normal; background-color: rgb(251, 251, 251); text-decoration-thickness: initial; text-decoration-style: initial; text-decoration-color: initial;&quot;&gt;&lt;font face=&quot;Roboto Mono&quot; style=&quot;forced-color-adjust: none;&quot;&gt;&amp;nbsp;[&amp;nbsp; &amp;nbsp; &amp;nbsp;]&lt;/font&gt;&lt;/div&gt;&lt;div style=&quot;forced-color-adjust: none; color: rgb(0, 0, 0); font-family: Helvetica; font-size: 12px; font-style: normal; font-variant-ligatures: normal; font-variant-caps: normal; font-weight: 400; letter-spacing: normal; orphans: 2; text-align: left; text-indent: 0px; text-transform: none; widows: 2; word-spacing: 0px; -webkit-text-stroke-width: 0px; white-space: normal; background-color: rgb(251, 251, 251); text-decoration-thickness: initial; text-decoration-style: initial; text-decoration-color: initial;&quot;&gt;&lt;font face=&quot;Roboto Mono&quot; style=&quot;forced-color-adjust: none;&quot;&gt;&amp;nbsp;[&amp;nbsp; &amp;nbsp; &amp;nbsp;]&lt;/font&gt;&lt;/div&gt;&lt;div style=&quot;forced-color-adjust: none; color: rgb(0, 0, 0); font-family: Helvetica; font-size: 12px; font-style: normal; font-variant-ligatures: normal; font-variant-caps: normal; font-weight: 400; letter-spacing: normal; orphans: 2; text-align: left; text-indent: 0px; text-transform: none; widows: 2; word-spacing: 0px; -webkit-text-stroke-width: 0px; white-space: normal; background-color: rgb(251, 251, 251); text-decoration-thickness: initial; text-decoration-style: initial; text-decoration-color: initial;&quot;&gt;&lt;font face=&quot;Roboto Mono&quot; style=&quot;forced-color-adjust: none;&quot;&gt;&amp;nbsp;[&amp;nbsp; &amp;nbsp; &amp;nbsp;]&lt;/font&gt;&lt;/div&gt;&lt;div style=&quot;forced-color-adjust: none; color: rgb(0, 0, 0); font-family: Helvetica; font-size: 12px; font-style: normal; font-variant-ligatures: normal; font-variant-caps: normal; font-weight: 400; letter-spacing: normal; orphans: 2; text-align: left; text-indent: 0px; text-transform: none; widows: 2; word-spacing: 0px; -webkit-text-stroke-width: 0px; white-space: normal; background-color: rgb(251, 251, 251); text-decoration-thickness: initial; text-decoration-style: initial; text-decoration-color: initial;&quot;&gt;&lt;font face=&quot;Roboto Mono&quot; style=&quot;forced-color-adjust: none;&quot;&gt;&amp;nbsp;[&amp;nbsp; &amp;nbsp; &amp;nbsp;]&lt;/font&gt;&lt;/div&gt;&lt;div style=&quot;forced-color-adjust: none; color: rgb(0, 0, 0); font-family: Helvetica; font-size: 12px; font-style: normal; font-variant-ligatures: normal; font-variant-caps: normal; font-weight: 400; letter-spacing: normal; orphans: 2; text-align: left; text-indent: 0px; text-transform: none; widows: 2; word-spacing: 0px; -webkit-text-stroke-width: 0px; white-space: normal; background-color: rgb(251, 251, 251); text-decoration-thickness: initial; text-decoration-style: initial; text-decoration-color: initial;&quot;&gt;&lt;font face=&quot;Roboto Mono&quot; style=&quot;forced-color-adjust: none;&quot;&gt;&amp;nbsp;[&amp;nbsp; &amp;nbsp; &amp;nbsp;]&lt;/font&gt;&lt;/div&gt;&lt;div style=&quot;forced-color-adjust: none; color: rgb(0, 0, 0); font-family: Helvetica; font-size: 12px; font-style: normal; font-variant-ligatures: normal; font-variant-caps: normal; font-weight: 400; letter-spacing: normal; orphans: 2; text-align: left; text-indent: 0px; text-transform: none; widows: 2; word-spacing: 0px; -webkit-text-stroke-width: 0px; white-space: normal; background-color: rgb(251, 251, 251); text-decoration-thickness: initial; text-decoration-style: initial; text-decoration-color: initial;&quot;&gt;&lt;font face=&quot;Roboto Mono&quot; style=&quot;forced-color-adjust: none;&quot;&gt;&amp;nbsp;[&amp;nbsp; &amp;nbsp; &amp;nbsp;]&lt;/font&gt;&lt;/div&gt;&lt;div style=&quot;forced-color-adjust: none; color: rgb(0, 0, 0); font-family: Helvetica; font-size: 12px; font-style: normal; font-variant-ligatures: normal; font-variant-caps: normal; font-weight: 400; letter-spacing: normal; orphans: 2; text-align: left; text-indent: 0px; text-transform: none; widows: 2; word-spacing: 0px; -webkit-text-stroke-width: 0px; white-space: normal; background-color: rgb(251, 251, 251); text-decoration-thickness: initial; text-decoration-style: initial; text-decoration-color: initial;&quot;&gt;&lt;font face=&quot;Roboto Mono&quot; style=&quot;forced-color-adjust: none;&quot;&gt;&amp;nbsp;[&amp;nbsp; &amp;nbsp; &amp;nbsp;]&lt;/font&gt;&lt;/div&gt;&lt;div style=&quot;forced-color-adjust: none; color: rgb(0, 0, 0); font-family: Helvetica; font-size: 12px; font-style: normal; font-variant-ligatures: normal; font-variant-caps: normal; font-weight: 400; letter-spacing: normal; orphans: 2; text-align: left; text-indent: 0px; text-transform: none; widows: 2; word-spacing: 0px; -webkit-text-stroke-width: 0px; white-space: normal; background-color: rgb(251, 251, 251); text-decoration-thickness: initial; text-decoration-style: initial; text-decoration-color: initial;&quot;&gt;&lt;font face=&quot;Roboto Mono&quot; style=&quot;forced-color-adjust: none;&quot;&gt;&amp;nbsp;[&amp;nbsp; &amp;nbsp; &amp;nbsp;]]&lt;/font&gt;&lt;/div&gt;" style="text;whiteSpace=wrap;html=1;fontFamily=Helvetica;fontSize=11;fontColor=default;labelBackgroundColor=default;" vertex="1" parent="1">
          <mxGeometry x="440" y="1640" width="70" height="170" as="geometry" />
        </mxCell>
        <mxCell id="mFFu5V0ILwPEUMLw151d-27" value="&lt;font style=&quot;font-size: 8px;&quot; face=&quot;Roboto Mono&quot;&gt;1&lt;/font&gt;" style="text;html=1;align=left;verticalAlign=top;whiteSpace=wrap;rounded=0;spacingLeft=6;spacing=0;spacingTop=-6;" vertex="1" parent="1">
          <mxGeometry x="930" y="490" width="20" height="20" as="geometry" />
        </mxCell>
        <mxCell id="mFFu5V0ILwPEUMLw151d-28" value="&lt;font style=&quot;font-size: 8px;&quot; face=&quot;Roboto Mono&quot;&gt;1&lt;/font&gt;" style="text;html=1;align=left;verticalAlign=top;whiteSpace=wrap;rounded=0;spacingLeft=6;spacing=0;spacingTop=-6;" vertex="1" parent="1">
          <mxGeometry x="930" y="520" width="20" height="20" as="geometry" />
        </mxCell>
        <mxCell id="mFFu5V0ILwPEUMLw151d-29" value="&lt;font style=&quot;font-size: 8px;&quot; face=&quot;Roboto Mono&quot;&gt;1&lt;/font&gt;" style="text;html=1;align=left;verticalAlign=top;whiteSpace=wrap;rounded=0;spacingLeft=6;spacing=0;spacingTop=-6;" vertex="1" parent="1">
          <mxGeometry x="930" y="550" width="20" height="20" as="geometry" />
        </mxCell>
        <mxCell id="mFFu5V0ILwPEUMLw151d-30" value="&lt;font style=&quot;font-size: 8px;&quot; face=&quot;Roboto Mono&quot;&gt;1&lt;/font&gt;" style="text;html=1;align=left;verticalAlign=top;whiteSpace=wrap;rounded=0;spacingLeft=6;spacing=0;spacingTop=-6;" vertex="1" parent="1">
          <mxGeometry x="930" y="590" width="20" height="20" as="geometry" />
        </mxCell>
        <mxCell id="mFFu5V0ILwPEUMLw151d-31" value="&lt;font style=&quot;font-size: 8px;&quot; face=&quot;Roboto Mono&quot;&gt;1&lt;/font&gt;" style="text;html=1;align=left;verticalAlign=top;whiteSpace=wrap;rounded=0;spacingLeft=6;spacing=0;spacingTop=-6;" vertex="1" parent="1">
          <mxGeometry x="930" y="620" width="20" height="20" as="geometry" />
        </mxCell>
        <mxCell id="mFFu5V0ILwPEUMLw151d-32" value="&lt;font style=&quot;font-size: 8px;&quot; face=&quot;Roboto Mono&quot;&gt;1&lt;/font&gt;" style="text;html=1;align=left;verticalAlign=top;whiteSpace=wrap;rounded=0;spacingLeft=6;spacing=0;spacingTop=-6;" vertex="1" parent="1">
          <mxGeometry x="930" y="650" width="20" height="20" as="geometry" />
        </mxCell>
        <mxCell id="mFFu5V0ILwPEUMLw151d-33" value="&lt;font style=&quot;font-size: 8px; background-color: rgb(255, 255, 102);&quot; face=&quot;Roboto Mono&quot;&gt;1&lt;/font&gt;" style="text;html=1;align=left;verticalAlign=top;whiteSpace=wrap;rounded=0;spacingLeft=6;spacing=0;spacingTop=-6;" vertex="1" parent="1">
          <mxGeometry x="1000" y="720" width="20" height="20" as="geometry" />
        </mxCell>
        <mxCell id="mFFu5V0ILwPEUMLw151d-34" value="&lt;font style=&quot;font-size: 8px; background-color: rgb(255, 255, 102);&quot; face=&quot;Roboto Mono&quot;&gt;1&lt;/font&gt;" style="text;html=1;align=left;verticalAlign=top;whiteSpace=wrap;rounded=0;spacingLeft=6;spacing=0;spacingTop=-6;" vertex="1" parent="1">
          <mxGeometry x="1000" y="760" width="20" height="20" as="geometry" />
        </mxCell>
        <mxCell id="mFFu5V0ILwPEUMLw151d-35" value="&lt;font style=&quot;font-size: 8px;&quot; face=&quot;Roboto Mono&quot;&gt;&lt;span style=&quot;background-color: rgb(255, 255, 102);&quot;&gt;2&lt;/span&gt; (&lt;span style=&quot;background-color: rgb(153, 255, 153);&quot;&gt;0.254&lt;/span&gt;)&lt;/font&gt;" style="text;html=1;align=left;verticalAlign=top;whiteSpace=wrap;rounded=0;spacingLeft=6;spacing=0;spacingTop=-6;" vertex="1" parent="1">
          <mxGeometry x="905" y="730" width="50" height="20" as="geometry" />
        </mxCell>
        <mxCell id="mFFu5V0ILwPEUMLw151d-36" value="&lt;font style=&quot;font-size: 8px;&quot; face=&quot;Roboto Mono&quot;&gt;The numbers inside parentheses are calculated after dividied by normalization of \(\mathbf{x}_i\)&lt;/font&gt;" style="text;html=1;align=left;verticalAlign=top;whiteSpace=wrap;rounded=0;spacingLeft=6;spacing=0;spacingTop=-6;" vertex="1" parent="1">
          <mxGeometry x="1000" y="520" width="110" height="80" as="geometry" />
        </mxCell>
        <mxCell id="mFFu5V0ILwPEUMLw151d-37" value="&lt;font style=&quot;font-size: 8px;&quot; face=&quot;Roboto Mono&quot;&gt;1&lt;/font&gt;" style="text;html=1;align=left;verticalAlign=top;whiteSpace=wrap;rounded=0;spacingLeft=6;spacing=0;spacingTop=-6;" vertex="1" parent="1">
          <mxGeometry x="1000" y="810" width="20" height="20" as="geometry" />
        </mxCell>
        <mxCell id="mFFu5V0ILwPEUMLw151d-38" value="&lt;font style=&quot;font-size: 8px;&quot; face=&quot;Roboto Mono&quot;&gt;1&lt;/font&gt;" style="text;html=1;align=left;verticalAlign=top;whiteSpace=wrap;rounded=0;spacingLeft=6;spacing=0;spacingTop=-6;" vertex="1" parent="1">
          <mxGeometry x="1000" y="840" width="20" height="20" as="geometry" />
        </mxCell>
        <mxCell id="mFFu5V0ILwPEUMLw151d-39" value="&lt;font style=&quot;font-size: 8px;&quot; face=&quot;Roboto Mono&quot;&gt;1&lt;/font&gt;" style="text;html=1;align=left;verticalAlign=top;whiteSpace=wrap;rounded=0;spacingLeft=6;spacing=0;spacingTop=-6;" vertex="1" parent="1">
          <mxGeometry x="1000" y="870" width="20" height="20" as="geometry" />
        </mxCell>
        <mxCell id="mFFu5V0ILwPEUMLw151d-40" value="&lt;font style=&quot;font-size: 8px;&quot; face=&quot;Roboto Mono&quot;&gt;3 (&lt;span style=&quot;background-color: rgb(153, 255, 153);&quot;&gt;0.381&lt;/span&gt;)&lt;/font&gt;" style="text;html=1;align=left;verticalAlign=top;whiteSpace=wrap;rounded=0;spacingLeft=6;spacing=0;spacingTop=-6;" vertex="1" parent="1">
          <mxGeometry x="905" y="830" width="50" height="20" as="geometry" />
        </mxCell>
        <mxCell id="mFFu5V0ILwPEUMLw151d-41" value="&lt;font style=&quot;font-size: 8px;&quot; face=&quot;Roboto Mono&quot;&gt;3 (&lt;span style=&quot;background-color: rgb(153, 255, 153);&quot;&gt;0.381&lt;/span&gt;)&lt;/font&gt;" style="text;html=1;align=left;verticalAlign=top;whiteSpace=wrap;rounded=0;spacingLeft=6;spacing=0;spacingTop=-6;" vertex="1" parent="1">
          <mxGeometry x="915" y="940" width="50" height="20" as="geometry" />
        </mxCell>
        <mxCell id="mFFu5V0ILwPEUMLw151d-42" value="&lt;font style=&quot;font-size: 8px;&quot; face=&quot;Roboto Mono&quot;&gt;1&lt;/font&gt;" style="text;html=1;align=left;verticalAlign=top;whiteSpace=wrap;rounded=0;spacingLeft=6;spacing=0;spacingTop=-6;" vertex="1" parent="1">
          <mxGeometry x="1000" y="920" width="20" height="20" as="geometry" />
        </mxCell>
        <mxCell id="mFFu5V0ILwPEUMLw151d-43" value="&lt;font style=&quot;font-size: 8px;&quot; face=&quot;Roboto Mono&quot;&gt;1&lt;/font&gt;" style="text;html=1;align=left;verticalAlign=top;whiteSpace=wrap;rounded=0;spacingLeft=6;spacing=0;spacingTop=-6;" vertex="1" parent="1">
          <mxGeometry x="1000" y="950" width="20" height="20" as="geometry" />
        </mxCell>
        <mxCell id="mFFu5V0ILwPEUMLw151d-44" value="&lt;font style=&quot;font-size: 8px;&quot; face=&quot;Roboto Mono&quot;&gt;1&lt;/font&gt;" style="text;html=1;align=left;verticalAlign=top;whiteSpace=wrap;rounded=0;spacingLeft=6;spacing=0;spacingTop=-6;" vertex="1" parent="1">
          <mxGeometry x="1000" y="980" width="20" height="20" as="geometry" />
        </mxCell>
        <mxCell id="mFFu5V0ILwPEUMLw151d-45" value="&lt;font style=&quot;font-size: 8px;&quot; face=&quot;Roboto Mono&quot;&gt;1&lt;/font&gt;" style="text;html=1;align=left;verticalAlign=top;whiteSpace=wrap;rounded=0;spacingLeft=6;spacing=0;spacingTop=-6;" vertex="1" parent="1">
          <mxGeometry x="1000" y="1050" width="20" height="20" as="geometry" />
        </mxCell>
        <mxCell id="mFFu5V0ILwPEUMLw151d-46" value="&lt;font style=&quot;font-size: 8px;&quot; face=&quot;Roboto Mono&quot;&gt;1&lt;/font&gt;" style="text;html=1;align=left;verticalAlign=top;whiteSpace=wrap;rounded=0;spacingLeft=6;spacing=0;spacingTop=-6;" vertex="1" parent="1">
          <mxGeometry x="1000" y="1090" width="20" height="20" as="geometry" />
        </mxCell>
        <mxCell id="mFFu5V0ILwPEUMLw151d-47" value="&lt;font style=&quot;font-size: 8px;&quot; face=&quot;Roboto Mono&quot;&gt;2 (0.254)&lt;/font&gt;" style="text;html=1;align=left;verticalAlign=top;whiteSpace=wrap;rounded=0;spacingLeft=6;spacing=0;spacingTop=-6;" vertex="1" parent="1">
          <mxGeometry x="905" y="1060" width="50" height="20" as="geometry" />
        </mxCell>
        <mxCell id="mFFu5V0ILwPEUMLw151d-48" value="&lt;font style=&quot;font-size: 8px;&quot; face=&quot;Roboto Mono&quot;&gt;3 (0.381)&lt;/font&gt;" style="text;html=1;align=left;verticalAlign=top;whiteSpace=wrap;rounded=0;spacingLeft=6;spacing=0;spacingTop=-6;" vertex="1" parent="1">
          <mxGeometry x="905" y="1160" width="50" height="20" as="geometry" />
        </mxCell>
        <mxCell id="mFFu5V0ILwPEUMLw151d-49" value="&lt;font style=&quot;font-size: 8px;&quot; face=&quot;Roboto Mono&quot;&gt;1&lt;/font&gt;" style="text;html=1;align=left;verticalAlign=top;whiteSpace=wrap;rounded=0;spacingLeft=6;spacing=0;spacingTop=-6;" vertex="1" parent="1">
          <mxGeometry x="1000" y="1140" width="20" height="20" as="geometry" />
        </mxCell>
        <mxCell id="mFFu5V0ILwPEUMLw151d-50" value="&lt;font style=&quot;font-size: 8px;&quot; face=&quot;Roboto Mono&quot;&gt;1&lt;/font&gt;" style="text;html=1;align=left;verticalAlign=top;whiteSpace=wrap;rounded=0;spacingLeft=6;spacing=0;spacingTop=-6;" vertex="1" parent="1">
          <mxGeometry x="1000" y="1169" width="20" height="20" as="geometry" />
        </mxCell>
        <mxCell id="mFFu5V0ILwPEUMLw151d-51" value="&lt;font style=&quot;font-size: 8px;&quot; face=&quot;Roboto Mono&quot;&gt;1&lt;/font&gt;" style="text;html=1;align=left;verticalAlign=top;whiteSpace=wrap;rounded=0;spacingLeft=6;spacing=0;spacingTop=-6;" vertex="1" parent="1">
          <mxGeometry x="1000" y="1200" width="20" height="20" as="geometry" />
        </mxCell>
        <mxCell id="mFFu5V0ILwPEUMLw151d-52" value="&lt;font style=&quot;font-size: 8px;&quot; face=&quot;Roboto Mono&quot;&gt;3 (0.381)&lt;/font&gt;" style="text;html=1;align=left;verticalAlign=top;whiteSpace=wrap;rounded=0;spacingLeft=6;spacing=0;spacingTop=-6;" vertex="1" parent="1">
          <mxGeometry x="915" y="1270" width="50" height="20" as="geometry" />
        </mxCell>
        <mxCell id="mFFu5V0ILwPEUMLw151d-53" value="&lt;font style=&quot;font-size: 8px;&quot; face=&quot;Roboto Mono&quot;&gt;1&lt;/font&gt;" style="text;html=1;align=left;verticalAlign=top;whiteSpace=wrap;rounded=0;spacingLeft=6;spacing=0;spacingTop=-6;" vertex="1" parent="1">
          <mxGeometry x="1000" y="1250" width="20" height="20" as="geometry" />
        </mxCell>
        <mxCell id="mFFu5V0ILwPEUMLw151d-54" value="&lt;font style=&quot;font-size: 8px;&quot; face=&quot;Roboto Mono&quot;&gt;1&lt;/font&gt;" style="text;html=1;align=left;verticalAlign=top;whiteSpace=wrap;rounded=0;spacingLeft=6;spacing=0;spacingTop=-6;" vertex="1" parent="1">
          <mxGeometry x="1000" y="1280" width="20" height="20" as="geometry" />
        </mxCell>
        <mxCell id="mFFu5V0ILwPEUMLw151d-55" value="&lt;font style=&quot;font-size: 8px;&quot; face=&quot;Roboto Mono&quot;&gt;1&lt;/font&gt;" style="text;html=1;align=left;verticalAlign=top;whiteSpace=wrap;rounded=0;spacingLeft=6;spacing=0;spacingTop=-6;" vertex="1" parent="1">
          <mxGeometry x="1000" y="1310" width="20" height="20" as="geometry" />
        </mxCell>
        <mxCell id="mFFu5V0ILwPEUMLw151d-56" value="&lt;font style=&quot;font-size: 8px;&quot; face=&quot;Roboto Mono&quot;&gt;&lt;span style=&quot;background-color: rgb(51, 255, 255);&quot;&gt;0.794&lt;/span&gt;&amp;nbsp;(0.307)&lt;/font&gt;" style="text;html=1;align=left;verticalAlign=top;whiteSpace=wrap;rounded=0;spacingLeft=6;spacing=0;spacingTop=-6;" vertex="1" parent="1">
          <mxGeometry x="743" y="1010" width="77" height="20" as="geometry" />
        </mxCell>
        <mxCell id="mFFu5V0ILwPEUMLw151d-57" value="&lt;div&gt;&lt;font size=&quot;1&quot; face=&quot;Roboto Mono&quot;&gt;&lt;b style=&quot;font-size: 20px;&quot;&gt;Iteration 0&lt;/b&gt;&lt;/font&gt;&lt;/div&gt;" style="text;html=1;align=left;verticalAlign=top;whiteSpace=wrap;rounded=0;spacingLeft=6;spacing=0;" vertex="1" parent="1">
          <mxGeometry x="560" y="1280" width="180" height="30" as="geometry" />
        </mxCell>
        <mxCell id="mFFu5V0ILwPEUMLw151d-58" value="&lt;div&gt;&lt;font size=&quot;1&quot; face=&quot;Roboto Mono&quot;&gt;&lt;b style=&quot;font-size: 20px;&quot;&gt;Iteration 1&lt;/b&gt;&lt;/font&gt;&lt;/div&gt;" style="text;html=1;align=left;verticalAlign=top;whiteSpace=wrap;rounded=0;spacingLeft=6;spacing=0;" vertex="1" parent="1">
          <mxGeometry x="560" y="1480" width="180" height="30" as="geometry" />
        </mxCell>
        <mxCell id="mFFu5V0ILwPEUMLw151d-59" value="&lt;div&gt;&lt;font size=&quot;1&quot; face=&quot;Roboto Mono&quot;&gt;&lt;b style=&quot;font-size: 20px;&quot;&gt;Iteration 2&lt;/b&gt;&lt;/font&gt;&lt;/div&gt;" style="text;html=1;align=left;verticalAlign=top;whiteSpace=wrap;rounded=0;spacingLeft=6;spacing=0;" vertex="1" parent="1">
          <mxGeometry x="560" y="1680" width="180" height="30" as="geometry" />
        </mxCell>
        <mxCell id="mFFu5V0ILwPEUMLw151d-60" value="&lt;font style=&quot;font-size: 8px;&quot; face=&quot;Roboto Mono&quot;&gt;&lt;span style=&quot;background-color: rgb(255, 255, 102);&quot;&gt;2 = 1 + 1&lt;/span&gt;&lt;/font&gt;" style="text;html=1;align=left;verticalAlign=top;whiteSpace=wrap;rounded=0;spacingLeft=6;spacing=0;spacingTop=-6;" vertex="1" parent="1">
          <mxGeometry x="940" y="700" width="50" height="20" as="geometry" />
        </mxCell>
        <mxCell id="mFFu5V0ILwPEUMLw151d-61" value="&lt;font style=&quot;font-size: 8px;&quot; face=&quot;Roboto Mono&quot;&gt;The numbers inside parentheses are calculated after dividied by normalization of \(\mathbf{x}_i\) over all the elements of&amp;nbsp;&lt;/font&gt;&lt;span style=&quot;font-family: &amp;quot;Roboto Mono&amp;quot;; font-size: 8px;&quot;&gt;\(\mathbf{x}_i\)&lt;/span&gt;&lt;font style=&quot;font-size: 8px;&quot; face=&quot;Roboto Mono&quot;&gt;&amp;nbsp;&lt;/font&gt;" style="text;html=1;align=left;verticalAlign=top;whiteSpace=wrap;rounded=0;spacingLeft=6;spacing=0;spacingTop=-6;" vertex="1" parent="1">
          <mxGeometry x="1040" y="720" width="170" height="50" as="geometry" />
        </mxCell>
        <mxCell id="mFFu5V0ILwPEUMLw151d-63" value="&lt;font style=&quot;font-size: 8px;&quot; face=&quot;Roboto Mono&quot;&gt;&lt;span style=&quot;background-color: rgb(153, 255, 153);&quot;&gt;1.016 = 0.254 + 0.381 + 0.381&lt;/span&gt;&lt;/font&gt;" style="text;html=1;align=left;verticalAlign=top;whiteSpace=wrap;rounded=0;spacingLeft=6;spacing=0;spacingTop=-6;" vertex="1" parent="1">
          <mxGeometry x="730" y="810" width="150" height="20" as="geometry" />
        </mxCell>
        <mxCell id="mFFu5V0ILwPEUMLw151d-64" value="&lt;font style=&quot;font-size: 8px; background-color: rgb(51, 255, 255);&quot; face=&quot;Roboto Mono&quot;&gt;0.794 = 0.397 + 0.397&lt;/font&gt;" style="text;html=1;align=left;verticalAlign=top;whiteSpace=wrap;rounded=0;spacingLeft=6;spacing=0;spacingTop=-6;" vertex="1" parent="1">
          <mxGeometry x="727" y="990" width="113" height="20" as="geometry" />
        </mxCell>
      </root>
    </mxGraphModel>
  </diagram>
</mxfile>
